{
.appVersion = "1364";
copyright = "Copyright 2018 Google Inc. All Rights Reserved.";
customParameters = (
{
name = licenseURL;
value = "http://scripts.sil.org/OFL";
},
{
name = description;
value = "Designed by Monotype design team.";
},
{
name = trademark;
value = "Noto is a trademark of Google Inc.";
},
{
name = license;
value = "This Font Software is licensed under the SIL Open Font License, Version 1.1. This Font Software is distributed on an \"AS IS\" BASIS, WITHOUT WARRANTIES OR CONDITIONS OF ANY KIND, either express or implied. See the SIL Open Font License for the specific language, permissions and limitations governing your use of this Font Software.";
},
{
name = openTypeOS2VendorID;
value = GOOG;
},
{
name = glyphOrder;
value = (
.notdef,
uni0000,
uni000D,
space,
uni00A0,
u1820.fin,
u1823.med,
u1823.fin,
u1820.iniV1,
u1823.finV1,
u1822.med,
u1822.medV1,
u182E,
u1829.med,
u182F.fin,
u1828,
u1828.ini,
u1828.iniV1,
u1826.iniV1,
u180A,
u182C.med,
u182A_1822.ini,
u182C_1822.ini,
u182C_1822.med,
u1830.fin,
u1834.med,
u1834.ini,
u182A_1822.med,
u1837,
u1837.ini,
u1837.med,
u1837.fin,
u1832.med,
u1832,
u1832.ini,
u1833,
u1833.iniV1,
u1833.ini,
u1834,
u1830.med,
u182C.fin,
u182C.finV1,
u1830.ini,
u182A_1823,
u182A_1823.fin,
u182A_1823.ini,
u182A_1823.med,
u182A_1824.ini,
u182A_1824.med,
u182A_1824.fin,
u182A_1824,
u1829,
u1829.ini,
u1829.fin,
u1828.medV2,
u1828.fin,
u1828.finV1,
u1822.fin,
u1822.ini,
u1820.medV1,
u1820.medV2,
u1821.ini,
u1821.iniV1,
u1821.med,
u1824.fin,
u1825.fin,
u182A,
u182A_1825,
u182A_1825.fin,
u182A_1825.ini,
u182A_1825.med,
u182A_1825.finV1,
u182A_1826,
u182F.ini,
u182F.med,
u182F,
u1829_182F.med,
u182E.fin,
u182C.ini,
u1831.ini,
u1831.med,
u1831,
u1830,
u1831.fin,
u1830.finV1,
u183E.med,
u183F.ini,
u183F.med,
u1820,
u1820.V1,
u1820.ini,
u182A_1820.ini,
u1827.med,
u182C_1825,
u182C_1825.ini,
u182C_1821.ini,
u182B_1820.ini,
u1839_1823,
u183B_1820.ini,
u183C.ini,
u1835.med,
u1836.ini,
u182C_1821.med,
u182C_1825.fin,
u182C_1825.iniV1,

glyphs = (
{
glyphname = .notdef;
lastChange = "2020-02-16 15:19:08 +0000";
layers = (
{
layerId = "UUID0";
paths = (
{
closed = 1;
nodes = (
"50 836 LINE",
"50 -264 LINE",
"450 -264 LINE",
"450 836 LINE"
);
},
{
closed = 1;
nodes = (
"400 -214 LINE",
"100 -214 LINE",
"100 786 LINE",
"400 786 LINE"
);
}
);
vertWidth = 0;
width = 500;
}
);
note = .notdef;
},
{
glyphname = u1820.fin;
lastChange = "2020-02-16 15:22:35 +0000";
layers = (
{
layerId = "UUID0";
paths = (
{
closed = 1;
nodes = (
"261 299 OFFCURVE",
"278 430 OFFCURVE",
"310 547 CURVE SMOOTH",
"342 666 OFFCURVE",
"390 763 OFFCURVE",
"450 836 CURVE",
"358 836 LINE",
"323 794 OFFCURVE",
"293 737 OFFCURVE",
"267 665 CURVE SMOOTH",
"215 528 OFFCURVE",
"184 351 OFFCURVE",
"184 156 CURVE",
"153 174 OFFCURVE",
"130 197 OFFCURVE",
"114 226 CURVE SMOOTH",
"82 282 OFFCURVE",
"74 356 OFFCURVE",
"74 444 CURVE",
"0 444 LINE",
"0 364 LINE SMOOTH",
"0 315 OFFCURVE",
"11 266 OFFCURVE",
"32 216 CURVE",
"75 124 OFFCURVE",
"154 60 OFFCURVE",
"261 53 CURVE",
"261 156 LINE SMOOTH"
);
}
);
vertWidth = 0;
width = 495;
}
);
note = u1820.fin;
},
{
glyphname = u1823.med;
lastChange = "2020-02-16 15:19:08 +0000";
layers = (
{
layerId = "UUID0";
paths = (
{
closed = 1;
nodes = (
"324 40 OFFCURVE",
"395 124 OFFCURVE",
"395 249 CURVE SMOOTH",
"395 297 OFFCURVE",
"388 335 OFFCURVE",
"373 364 CURVE",
"603 364 LINE",
"603 444 LINE",
"0 444 LINE",
"0 364 LINE",
"20 364 LINE",
"7 328 OFFCURVE",
"0 290 OFFCURVE",
"0 249 CURVE SMOOTH",
"0 117 OFFCURVE",
"68 40 OFFCURVE",
"197 40 CURVE SMOOTH"
);
},
{
closed = 1;
nodes = (
"118 123 OFFCURVE",
"79 166 OFFCURVE",
"79 251 CURVE SMOOTH",
"79 290 OFFCURVE",
"86 328 OFFCURVE",
"99 364 CURVE",
"296 364 LINE",
"309 328 OFFCURVE",
"316 290 OFFCURVE",
"316 251 CURVE SMOOTH",
"316 166 OFFCURVE",
"272 123 OFFCURVE",
"197 123 CURVE SMOOTH"
);
}
);
vertWidth = 0;
width = 573;
}
);
note = u1823.med;
},
{
glyphname = u1823.fin;
lastChange = "2020-02-16 15:19:08 +0000";
layers = (
{
layerId = "UUID0";
paths = (
{
closed = 1;
nodes = (
"262 40 OFFCURVE",
"293 50 OFFCURVE",
"320 70 CURVE SMOOTH",
"375 110 OFFCURVE",
"406 183 OFFCURVE",
"406 275 CURVE SMOOTH",
"406 290 OFFCURVE",
"405 307 OFFCURVE",
"403 328 CURVE SMOOTH",
"399 371 OFFCURVE",
"392 417 OFFCURVE",
"383 444 CURVE",
"79 444 LINE",
"80 492 OFFCURVE",
"88 536 OFFCURVE",
"105 576 CURVE SMOOTH",
"137 652 OFFCURVE",
"198 699 OFFCURVE",
"290 699 CURVE SMOOTH",
"336 699 OFFCURVE",
"375 686 OFFCURVE",
"406 661 CURVE SMOOTH",
"469 609 OFFCURVE",
"502 518 OFFCURVE",
"510 409 CURVE",
"590 419 LINE",
"583 518 OFFCURVE",
"553 607 OFFCURVE",
"502 675 CURVE SMOOTH",
"451 742 OFFCURVE",
"381 782 OFFCURVE",
"290 782 CURVE SMOOTH",
"226 782 OFFCURVE",
"172 766 OFFCURVE",
"129 734 CURVE SMOOTH",
"44 669 OFFCURVE",
"0 552 OFFCURVE",
"0 408 CURVE SMOOTH",
"0 164 OFFCURVE",
"73 40 OFFCURVE",
"226 40 CURVE SMOOTH"
);
},
{
closed = 1;
nodes = (
"128 123 OFFCURVE",
"82 203 OFFCURVE",
"79 364 CURVE",
"317 364 LINE",
"324 348 OFFCURVE",
"327 318 OFFCURVE",
"327 275 CURVE SMOOTH",
"327 190 OFFCURVE",
"292 123 OFFCURVE",
"219 123 CURVE SMOOTH"
);
}
);
vertWidth = 0;
width = 635;
}
);
note = u1823.fin;
},
{
glyphname = u1820.iniV1;
lastChange = "2020-02-16 15:19:08 +0000";
layers = (
{
layerId = "UUID0";
paths = (
{
closed = 1;
nodes = (
"305 256 OFFCURVE",
"310 285 OFFCURVE",
"319 306 CURVE SMOOTH",
"336 349 OFFCURVE",
"373 364 OFFCURVE",
"445 364 CURVE SMOOTH",
"522 364 LINE",
"522 444 LINE",
"444 444 LINE SMOOTH",
"360 444 OFFCURVE",
"307 416 OFFCURVE",
"285 361 CURVE",
"281 361 LINE",
"278 445 LINE SMOOTH",
"277 488 OFFCURVE",
"273 524 OFFCURVE",
"264 557 CURVE SMOOTH",
"248 620 OFFCURVE",
"212 653 OFFCURVE",
"139 653 CURVE SMOOTH",
"100 653 OFFCURVE",
"57 643 OFFCURVE",
"10 623 CURVE",
"10 550 LINE",
"47 567 OFFCURVE",
"83 575 OFFCURVE",
"118 575 CURVE SMOOTH",
"181 575 OFFCURVE",
"195 522 OFFCURVE",
"200 437 CURVE SMOOTH",
"226 74 LINE",
"292 74 LINE",
"302 219 LINE SMOOTH"
);
}
);
vertWidth = 0;
width = 492;
}
);
note = u1820.iniV1;
},
{
glyphname = u1823.finV1;
lastChange = "2020-02-16 15:19:08 +0000";
layers = (
{
layerId = "UUID0";
paths = (
{
closed = 1;
nodes = (
"324 40 OFFCURVE",
"395 124 OFFCURVE",
"395 249 CURVE SMOOTH",
"395 314 OFFCURVE",
"379 388 OFFCURVE",
"348 444 CURVE",
"0 444 LINE",
"0 364 LINE",
"20 364 LINE",
"7 328 OFFCURVE",
"0 290 OFFCURVE",
"0 249 CURVE SMOOTH",
"0 116 OFFCURVE",
"69 40 OFFCURVE",
"197 40 CURVE SMOOTH"
);
},
{
closed = 1;
nodes = (
"118 123 OFFCURVE",
"79 166 OFFCURVE",
"79 251 CURVE SMOOTH",
"79 290 OFFCURVE",
"86 328 OFFCURVE",
"99 364 CURVE",
"294 364 LINE",
"309 335 OFFCURVE",
"316 297 OFFCURVE",
"316 251 CURVE SMOOTH",
"316 166 OFFCURVE",
"272 123 OFFCURVE",
"197 123 CURVE SMOOTH"
);
}
);
vertWidth = 0;
width = 440;
}
);
note = u1823.finV1;
},
{
glyphname = u1822.med;
lastChange = "2020-02-16 15:19:08 +0000";
layers = (
{
layerId = "UUID0";
paths = (
{
closed = 1;
nodes = (
"173 100 OFFCURVE",
"118 231 OFFCURVE",
"79 364 CURVE",
"391 364 LINE",
"391 444 LINE",
"0 444 LINE",
"0 364 LINE",
"37 224 OFFCURVE",
"94 80 OFFCURVE",
"173 -67 CURVE",
"246 -31 LINE"
);
}
);
vertWidth = 0;
width = 361;
}
);
note = u1822.med;
},
{
glyphname = u1822.medV1;
lastChange = "2020-02-16 15:19:08 +0000";
layers = (
{
layerId = "UUID0";
paths = (
{
closed = 1;
nodes = (
"391 100 OFFCURVE",
"336 231 OFFCURVE",
"297 364 CURVE",
"609 364 LINE",
"609 444 LINE",
"0 444 LINE",
"0 364 LINE",
"19 96 LINE",
"85 96 LINE",
"104 364 LINE",
"218 364 LINE",
"257 220 OFFCURVE",
"314 77 OFFCURVE",
"391 -67 CURVE",
"464 -31 LINE"
);
}
);
vertWidth = 0;
width = 579;
}
);
note = u1822.medV1;
},
{
glyphname = u182E;
lastChange = "2020-02-16 15:19:08 +0000";
layers = (
{
layerId = "UUID0";
paths = (
{
closed = 1;
nodes = (
"340 255 OFFCURVE",
"345 284 OFFCURVE",
"354 305 CURVE",
"370 348 OFFCURVE",
"407 364 OFFCURVE",
"480 364 CURVE SMOOTH",
"557 364 LINE",
"557 444 LINE",
"479 444 LINE SMOOTH",
"395 444 OFFCURVE",
"342 416 OFFCURVE",
"320 361 CURVE",
"316 361 LINE",
"313 484 OFFCURVE",
"305 602 OFFCURVE",
"264 693 CURVE",
"300 693 LINE SMOOTH",
"327 693 OFFCURVE",
"351 694 OFFCURVE",
"371 695 CURVE SMOOTH",
"410 698 OFFCURVE",
"444 700 OFFCURVE",
"479 731 CURVE",
"479 808 LINE",
"462 796 OFFCURVE",
"440 789 OFFCURVE",
"415 782 CURVE",
"390 776 OFFCURVE",
"352 773 OFFCURVE",
"300 773 CURVE SMOOTH",
"179 773 LINE",
"179 716 LINE",
"198 699 OFFCURVE",
"213 675 OFFCURVE",
"224 646 CURVE",
"211 650 OFFCURVE",
"194 653 OFFCURVE",
"174 653 CURVE SMOOTH",
"135 653 OFFCURVE",
"92 643 OFFCURVE",
"45 623 CURVE",
"45 550 LINE",
"82 567 OFFCURVE",
"118 575 OFFCURVE",
"153 575 CURVE SMOOTH",
"216 575 OFFCURVE",
"230 522 OFFCURVE",
"235 437 CURVE SMOOTH",
"261 74 LINE",
"327 74 LINE",
"337 219 LINE SMOOTH"
);
}
);
vertWidth = 0;
width = 602;
}
);
note = u182E;
unicode = 182E;
},
{
glyphname = u1829.med;
lastChange = "2020-02-16 15:19:08 +0000";
layers = (
{
layerId = "UUID0";
paths = (
{
closed = 1;
nodes = (
"356 205 OFFCURVE",
"321 292 OFFCURVE",
"321 396 CURVE SMOOTH",
"321 500 OFFCURVE",
"364 563 OFFCURVE",
"444 563 CURVE SMOOTH",
"516 563 OFFCURVE",
"566 499 OFFCURVE",
"574 364 CURVE",
"648 364 LINE",
"646 421 OFFCURVE",
"638 468 OFFCURVE",
"623 507 CURVE SMOOTH",
"594 591 OFFCURVE",
"536 646 OFFCURVE",
"444 646 CURVE SMOOTH",
"327 646 OFFCURVE",
"258 561 OFFCURVE",
"245 444 CURVE",
"0 444 LINE",
"0 364 LINE",
"19 96 LINE",
"85 96 LINE",
"104 364 LINE",
"243 364 LINE",
"250 271 OFFCURVE",
"281 173 OFFCURVE",
"338 70 CURVE",
"412 112 LINE"
);
}
);
vertWidth = 0;
width = 574;
}
);
note = u1829.med;
},
{
glyphname = u182F.fin;
lastChange = "2020-02-16 15:19:08 +0000";
layers = (
{
layerId = "UUID0";
paths = (
{
closed = 1;
nodes = (
"277 334 OFFCURVE",
"302 496 OFFCURVE",
"371 653 CURVE",
"371 714 LINE",
"195 714 LINE SMOOTH",
"150 714 OFFCURVE",
"113 716 OFFCURVE",
"88 721 CURVE SMOOTH",
"64 726 OFFCURVE",
"39 735 OFFCURVE",
"15 750 CURVE",
"15 672 LINE",
"33 657 OFFCURVE",
"54 647 OFFCURVE",
"79 642 CURVE SMOOTH",
"104 637 OFFCURVE",
"143 634 OFFCURVE",
"195 634 CURVE SMOOTH",
"273 634 LINE",
"223 503 OFFCURVE",
"198 345 OFFCURVE",
"198 159 CURVE",
"165 176 OFFCURVE",
"141 199 OFFCURVE",
"124 228 CURVE SMOOTH",
"91 283 OFFCURVE",
"81 357 OFFCURVE",
"81 444 CURVE",
"0 444 LINE",
"0 364 LINE SMOOTH",
"0 280 OFFCURVE",
"30 203 OFFCURVE",
"79 144 CURVE SMOOTH",
"130 85 OFFCURVE",
"197 48 OFFCURVE",
"277 45 CURVE",
"277 157 LINE SMOOTH"
);
}
);
vertWidth = 0;
width = 416;
}
);
note = u182F.fin;
},
{
glyphname = u1828;
lastChange = "2020-02-16 15:19:08 +0000";
layers = (
{
layerId = "UUID0";
paths = (
{
closed = 1;
nodes = (
"340 256 OFFCURVE",
"345 285 OFFCURVE",
"354 306 CURVE SMOOTH",
"371 349 OFFCURVE",
"408 364 OFFCURVE",
"480 364 CURVE SMOOTH",
"557 364 LINE",
"557 444 LINE",
"479 444 LINE SMOOTH",
"395 444 OFFCURVE",
"342 416 OFFCURVE",
"320 361 CURVE",
"316 361 LINE",
"313 445 LINE SMOOTH",
"312 488 OFFCURVE",
"308 524 OFFCURVE",
"299 557 CURVE SMOOTH",
"283 620 OFFCURVE",
"247 653 OFFCURVE",
"174 653 CURVE SMOOTH",
"135 653 OFFCURVE",
"92 643 OFFCURVE",
"45 623 CURVE",
"45 550 LINE",
"82 567 OFFCURVE",
"118 575 OFFCURVE",
"153 575 CURVE SMOOTH",
"216 575 OFFCURVE",
"230 522 OFFCURVE",
"235 437 CURVE SMOOTH",
"261 74 LINE",
"327 74 LINE",
"337 219 LINE SMOOTH"
);
},
{
closed = 1;
nodes = (
"330 -128 OFFCURVE",
"376 -90 OFFCURVE",
"436 -47 CURVE",
"375 22 LINE",
"336 -17 OFFCURVE",
"295 -65 OFFCURVE",
"254 -124 CURVE",
"297 -163 LINE"
);
}
);
vertWidth = 0;
width = 602;
}
);
note = u1828;
unicode = 1828;
},
{
glyphname = u1828.ini;
lastChange = "2020-02-16 15:19:08 +0000";
layers = (
{
layerId = "UUID0";
paths = (
{
closed = 1;
nodes = (
"305 256 OFFCURVE",
"310 285 OFFCURVE",
"319 306 CURVE SMOOTH",
"336 349 OFFCURVE",
"373 364 OFFCURVE",
"445 364 CURVE SMOOTH",
"522 364 LINE",
"522 444 LINE",
"444 444 LINE SMOOTH",
"360 444 OFFCURVE",
"307 416 OFFCURVE",
"285 361 CURVE",
"281 361 LINE",
"278 445 LINE SMOOTH",
"277 488 OFFCURVE",
"273 524 OFFCURVE",
"264 557 CURVE SMOOTH",
"248 620 OFFCURVE",
"212 653 OFFCURVE",
"139 653 CURVE SMOOTH",
"100 653 OFFCURVE",
"57 643 OFFCURVE",
"10 623 CURVE",
"10 550 LINE",
"47 567 OFFCURVE",
"83 575 OFFCURVE",
"118 575 CURVE SMOOTH",
"181 575 OFFCURVE",
"195 522 OFFCURVE",
"200 437 CURVE SMOOTH",
"226 74 LINE",
"292 74 LINE",
"302 219 LINE SMOOTH"
);
},
{
closed = 1;
nodes = (
"295 -128 OFFCURVE",
"341 -90 OFFCURVE",
"401 -47 CURVE",
"340 22 LINE",
"301 -17 OFFCURVE",
"260 -65 OFFCURVE",
"219 -124 CURVE",
"262 -163 LINE"
);
}
);
vertWidth = 0;
width = 492;
}
);
note = u1828.ini;
},
{
glyphname = u1826.iniV1;
lastChange = "2020-02-16 15:19:08 +0000";
layers = (
{
layerId = "UUID0";
paths = (
{
closed = 1;
nodes = (
"334 40 OFFCURVE",
"405 124 OFFCURVE",
"405 249 CURVE SMOOTH",
"405 290 OFFCURVE",
"398 328 OFFCURVE",
"385 364 CURVE",
"613 364 LINE",
"613 444 LINE",
"55 444 LINE",
"24 392 OFFCURVE",
"10 336 OFFCURVE",
"10 260 CURVE SMOOTH",
"10 123 OFFCURVE",
"76 40 OFFCURVE",
"207 40 CURVE SMOOTH"
);
},
{
closed = 1;
nodes = (
"128 123 OFFCURVE",
"89 169 OFFCURVE",
"89 262 CURVE SMOOTH",
"89 297 OFFCURVE",
"96 331 OFFCURVE",
"109 364 CURVE",
"306 364 LINE",
"319 328 OFFCURVE",
"326 290 OFFCURVE",
"326 251 CURVE SMOOTH",
"326 166 OFFCURVE",
"280 123 OFFCURVE",
"207 123 CURVE SMOOTH"
);
}
);
vertWidth = 0;
width = 583;
}
);
note = u1826.iniV1;
},
{
glyphname = u180A;
lastChange = "2020-02-16 15:19:08 +0000";
layers = (
{
layerId = "UUID0";
paths = (
{
closed = 1;
nodes = (
"188 444 LINE",
"0 444 LINE",
"0 364 LINE",
"188 364 LINE"
);
}
);
vertWidth = 0;
width = 158;
}
);
note = u180A;
unicode = 180A;
},
{
glyphname = u182A_1822.ini;
lastChange = "2020-02-16 15:19:08 +0000";
layers = (
{
layerId = "UUID0";
paths = (
{
closed = 1;
nodes = (
"687 113 OFFCURVE",
"634 239 OFFCURVE",
"607 364 CURVE",
"912 364 LINE",
"912 444 LINE",
"592 444 LINE",
"579 513 OFFCURVE",
"562 572 OFFCURVE",
"539 623 CURVE SMOOTH",
"494 724 OFFCURVE",
"418 782 OFFCURVE",
"295 782 CURVE SMOOTH",
"237 782 OFFCURVE",
"186 767 OFFCURVE",
"143 738 CURVE SMOOTH",
"58 678 OFFCURVE",
"10 565 OFFCURVE",
"10 408 CURVE SMOOTH",
"10 163 OFFCURVE",
"86 40 OFFCURVE",
"237 40 CURVE SMOOTH",
"273 40 OFFCURVE",
"304 50 OFFCURVE",
"331 70 CURVE SMOOTH",
"386 110 OFFCURVE",
"416 184 OFFCURVE",
"416 275 CURVE SMOOTH",
"416 288 OFFCURVE",
"415 305 OFFCURVE",
"413 328 CURVE SMOOTH",
"409 372 OFFCURVE",
"401 421 OFFCURVE",
"393 444 CURVE",
"89 444 LINE",
"90 492 OFFCURVE",
"98 535 OFFCURVE",
"113 574 CURVE SMOOTH",
"144 651 OFFCURVE",
"204 699 OFFCURVE",
"295 699 CURVE SMOOTH",
"342 699 OFFCURVE",
"380 688 OFFCURVE",
"409 665 CURVE SMOOTH",
"468 620 OFFCURVE",
"498 533 OFFCURVE",
"517 418 CURVE SMOOTH",
"532 334 OFFCURVE",
"549 259 OFFCURVE",
"574 192 CURVE SMOOTH",
"599 129 OFFCURVE",
"639 42 OFFCURVE",
"694 -67 CURVE",
"767 -31 LINE"
);
},
{
closed = 1;
nodes = (
"138 123 OFFCURVE",
"91 203 OFFCURVE",
"89 364 CURVE",
"327 364 LINE",
"334 345 OFFCURVE",
"337 311 OFFCURVE",
"337 271 CURVE SMOOTH",
"337 186 OFFCURVE",
"298 123 OFFCURVE",
"229 123 CURVE SMOOTH"
);
}
);
vertWidth = 0;
width = 882;
}
);
note = u182A_1822.ini;
},
{
glyphname = u182C_1822.ini;
lastChange = "2020-02-16 15:19:08 +0000";
layers = (
{
layerId = "UUID0";
paths = (
{
closed = 1;
nodes = (
"576 101 OFFCURVE",
"523 232 OFFCURVE",
"498 364 CURVE",
"805 364 LINE",
"805 444 LINE",
"488 444 LINE",
"481 505 OFFCURVE",
"469 560 OFFCURVE",
"452 608 CURVE SMOOTH",
"419 703 OFFCURVE",
"356 760 OFFCURVE",
"252 760 CURVE SMOOTH",
"197 760 OFFCURVE",
"153 745 OFFCURVE",
"118 714 CURVE SMOOTH",
"46 653 OFFCURVE",
"10 544 OFFCURVE",
"10 417 CURVE SMOOTH",
"10 299 OFFCURVE",
"53 174 OFFCURVE",
"139 42 CURVE",
"210 85 LINE",
"134 197 OFFCURVE",
"89 292 OFFCURVE",
"89 417 CURVE SMOOTH",
"89 460 OFFCURVE",
"95 503 OFFCURVE",
"106 546 CURVE SMOOTH",
"129 625 OFFCURVE",
"175 677 OFFCURVE",
"252 677 CURVE SMOOTH",
"319 677 OFFCURVE",
"356 645 OFFCURVE",
"381 572 CURVE SMOOTH",
"394 536 OFFCURVE",
"403 485 OFFCURVE",
"412 418 CURVE SMOOTH",
"423 341 OFFCURVE",
"441 259 OFFCURVE",
"470 176 CURVE SMOOTH",
"499 92 OFFCURVE",
"539 12 OFFCURVE",
"587 -67 CURVE",
"660 -31 LINE"
);
}
);
vertWidth = 0;
width = 775;
}
);
note = u182C_1822.ini;
},
{
glyphname = u1830.fin;
lastChange = "2020-02-16 15:19:08 +0000";
layers = (
{
layerId = "UUID0";
paths = (
{
closed = 1;
nodes = (
"92 123 OFFCURVE",
"86 191 OFFCURVE",
"86 276 CURVE SMOOTH",
"86 395 OFFCURVE",
"111 496 OFFCURVE",
"166 613 CURVE",
"170 613 LINE",
"179 520 OFFCURVE",
"197 431 OFFCURVE",
"222 350 CURVE SMOOTH",
"247 269 OFFCURVE",
"283 187 OFFCURVE",
"328 106 CURVE",
"408 106 LINE",
"449 309 OFFCURVE",
"520 478 OFFCURVE",
"640 642 CURVE",
"543 642 LINE",
"458 521 OFFCURVE",
"393 375 OFFCURVE",
"358 223 CURVE",
"354 223 LINE",
"271 395 OFFCURVE",
"238 555 OFFCURVE",
"238 734 CURVE",
"157 734 LINE",
"94 641 OFFCURVE",
"53 543 OFFCURVE",
"32 444 CURVE",
"0 444 LINE",
"0 364 LINE SMOOTH",
"0 276 OFFCURVE",
"11 168 OFFCURVE",
"27 73 CURVE",
"105 73 LINE"
);
}
);
vertWidth = 0;
width = 685;
}
);
note = u1830.fin;
},
{
glyphname = u1834.med;
lastChange = "2020-02-16 15:19:08 +0000";
layers = (
{
layerId = "UUID0";
paths = (
{
closed = 1;
nodes = (
"68 57 OFFCURVE",
"138 63 OFFCURVE",
"235 63 CURVE SMOOTH",
"356 63 LINE",
"356 129 LINE",
"329 209 OFFCURVE",
"315 280 OFFCURVE",
"315 364 CURVE",
"560 364 LINE",
"560 444 LINE",
"0 444 LINE",
"0 364 LINE",
"241 364 LINE",
"241 280 OFFCURVE",
"251 206 OFFCURVE",
"271 143 CURVE",
"235 143 LINE SMOOTH",
"142 143 OFFCURVE",
"63 141 OFFCURVE",
"0 101 CURVE",
"0 16 LINE"
);
}
);
vertWidth = 0;
width = 530;
}
);
note = u1834.med;
},
{
glyphname = u1837;
lastChange = "2020-02-16 15:19:08 +0000";
layers = (
{
layerId = "UUID0";
paths = (
{
closed = 1;
nodes = (
"272 -17 OFFCURVE",
"234 63 OFFCURVE",
"205 143 CURVE",
"289 143 LINE SMOOTH",
"380 143 OFFCURVE",
"416 97 OFFCURVE",
"416 13 CURVE SMOOTH",
"416 -18 OFFCURVE",
"411 -44 OFFCURVE",
"401 -65 CURVE",
"480 -65 LINE",
"491 -43 OFFCURVE",
"496 -13 OFFCURVE",
"496 24 CURVE SMOOTH",
"496 144 OFFCURVE",
"421 223 OFFCURVE",
"292 223 CURVE SMOOTH",
"176 223 LINE",
"161 268 OFFCURVE",
"148 315 OFFCURVE",
"137 364 CURVE",
"648 364 LINE",
"648 444 LINE",
"45 444 LINE",
"72 268 OFFCURVE",
"137 76 OFFCURVE",
"240 -131 CURVE",
"313 -96 LINE"
);
}
);
vertWidth = 0;
width = 693;
}
);
note = u1837;
unicode = 1837;
},
{
glyphname = u1837.ini;
lastChange = "2020-02-16 15:19:08 +0000";
layers = (
{
layerId = "UUID0";
paths = (
{
closed = 1;
nodes = (
"237 -17 OFFCURVE",
"199 63 OFFCURVE",
"170 143 CURVE",
"254 143 LINE SMOOTH",
"345 143 OFFCURVE",
"381 97 OFFCURVE",
"381 13 CURVE SMOOTH",
"381 -18 OFFCURVE",
"376 -44 OFFCURVE",
"366 -65 CURVE",
"445 -65 LINE",
"456 -43 OFFCURVE",
"461 -13 OFFCURVE",
"461 24 CURVE SMOOTH",
"461 144 OFFCURVE",
"386 223 OFFCURVE",
"257 223 CURVE SMOOTH",
"141 223 LINE",
"126 268 OFFCURVE",
"113 315 OFFCURVE",
"102 364 CURVE",
"613 364 LINE",
"613 444 LINE",
"10 444 LINE",
"37 268 OFFCURVE",
"102 76 OFFCURVE",
"205 -131 CURVE",
"278 -96 LINE"
);
}
);
vertWidth = 0;
width = 583;
}
);
note = u1837.ini;
},
{
glyphname = u1837.med;
lastChange = "2020-02-16 15:19:08 +0000";
layers = (
{
layerId = "UUID0";
paths = (
{
closed = 1;
nodes = (
"209 -13 OFFCURVE",
"174 67 OFFCURVE",
"146 143 CURVE",
"230 143 LINE SMOOTH",
"321 143 OFFCURVE",
"357 97 OFFCURVE",
"357 13 CURVE SMOOTH",
"357 -18 OFFCURVE",
"352 -44 OFFCURVE",
"342 -65 CURVE",
"421 -65 LINE",
"432 -43 OFFCURVE",
"437 -13 OFFCURVE",
"437 24 CURVE SMOOTH",
"437 144 OFFCURVE",
"362 223 OFFCURVE",
"233 223 CURVE SMOOTH",
"117 223 LINE",
"103 265 OFFCURVE",
"90 312 OFFCURVE",
"78 364 CURVE",
"589 364 LINE",
"589 444 LINE",
"0 444 LINE",
"0 364 LINE",
"39 200 OFFCURVE",
"100 36 OFFCURVE",
"181 -131 CURVE",
"254 -96 LINE"
);
}
);
vertWidth = 0;
width = 559;
}
);
note = u1837.med;
},
{
glyphname = u1837.fin;
lastChange = "2020-02-16 15:19:08 +0000";
layers = (
{
layerId = "UUID0";
paths = (
{
closed = 1;
nodes = (
"165 119 OFFCURVE",
"130 179 OFFCURVE",
"109 236 CURVE",
"195 236 LINE SMOOTH",
"278 236 OFFCURVE",
"311 192 OFFCURVE",
"311 115 CURVE SMOOTH",
"311 88 OFFCURVE",
"306 65 OFFCURVE",
"296 47 CURVE",
"376 47 LINE",
"387 68 OFFCURVE",
"392 94 OFFCURVE",
"392 126 CURVE SMOOTH",
"392 241 OFFCURVE",
"321 315 OFFCURVE",
"198 315 CURVE SMOOTH",
"87 315 LINE",
"82 339 OFFCURVE",
"79 370 OFFCURVE",
"79 407 CURVE SMOOTH",
"79 450 OFFCURVE",
"84 490 OFFCURVE",
"95 525 CURVE SMOOTH",
"115 596 OFFCURVE",
"159 642 OFFCURVE",
"231 642 CURVE SMOOTH",
"319 642 OFFCURVE",
"372 558 OFFCURVE",
"381 409 CURVE",
"461 419 LINE",
"458 476 OFFCURVE",
"448 528 OFFCURVE",
"431 575 CURVE SMOOTH",
"398 667 OFFCURVE",
"332 725 OFFCURVE",
"231 725 CURVE SMOOTH",
"180 725 OFFCURVE",
"137 711 OFFCURVE",
"103 683 CURVE SMOOTH",
"34 627 OFFCURVE",
"0 527 OFFCURVE",
"0 407 CURVE SMOOTH",
"0 282 OFFCURVE",
"46 151 OFFCURVE",
"139 12 CURVE",
"210 55 LINE"
);
}
);
vertWidth = 0;
width = 506;
}
);
note = u1837.fin;
},
{
glyphname = u1832.med;
lastChange = "2020-02-16 15:19:08 +0000";
layers = (
{
layerId = "UUID0";
paths = (
{
closed = 1;
nodes = (
"351 -157 OFFCURVE",
"381 -149 OFFCURVE",
"408 -134 CURVE SMOOTH",
"460 -103 OFFCURVE",
"491 -46 OFFCURVE",
"491 27 CURVE SMOOTH",
"491 152 OFFCURVE",
"414 232 OFFCURVE",
"290 232 CURVE SMOOTH",
"229 232 OFFCURVE",
"174 201 OFFCURVE",
"142 154 CURVE",
"117 225 OFFCURVE",
"96 295 OFFCURVE",
"79 364 CURVE",
"643 364 LINE",
"643 444 LINE",
"0 444 LINE",
"0 364 LINE",
"11 315 OFFCURVE",
"25 269 OFFCURVE",
"38 222 CURVE SMOOTH",
"66 130 OFFCURVE",
"104 37 OFFCURVE",
"145 -38 CURVE SMOOTH",
"188 -111 OFFCURVE",
"240 -157 OFFCURVE",
"319 -157 CURVE SMOOTH"
);
},
{
closed = 1;
nodes = (
"263 -77 OFFCURVE",
"217 -33 OFFCURVE",
"172 76 CURVE",
"195 123 OFFCURVE",
"239 153 OFFCURVE",
"290 153 CURVE SMOOTH",
"373 153 OFFCURVE",
"413 103 OFFCURVE",
"413 27 CURVE SMOOTH",
"413 -38 OFFCURVE",
"375 -77 OFFCURVE",
"319 -77 CURVE SMOOTH"
);
}
);
vertWidth = 0;
width = 613;
}
);
note = u1832.med;
},
{
glyphname = u1832;
lastChange = "2020-02-16 15:19:08 +0000";
layers = (
{
layerId = "UUID0";
paths = (
{
closed = 1;
nodes = (
"456 523 OFFCURVE",
"446 587 OFFCURVE",
"431 636 CURVE SMOOTH",
"399 735 OFFCURVE",
"340 777 OFFCURVE",
"243 777 CURVE SMOOTH",
"202 777 OFFCURVE",
"168 768 OFFCURVE",
"139 749 CURVE SMOOTH",
"79 712 OFFCURVE",
"45 646 OFFCURVE",
"45 563 CURVE SMOOTH",
"45 498 OFFCURVE",
"62 421 OFFCURVE",
"91 364 CURVE",
"386 364 LINE",
"405 96 LINE",
"471 96 LINE",
"490 364 LINE",
"700 364 LINE",
"700 444 LINE",
"460 444 LINE"
);
},
{
closed = 1;
nodes = (
"132 473 OFFCURVE",
"124 513 OFFCURVE",
"124 563 CURVE SMOOTH",
"124 646 OFFCURVE",
"171 694 OFFCURVE",
"243 694 CURVE SMOOTH",
"334 694 OFFCURVE",
"375 616 OFFCURVE",
"380 444 CURVE",
"147 444 LINE"
);
}
);
vertWidth = 0;
width = 745;
}
);
note = u1832;
unicode = 1832;
},
{
glyphname = u1833;
lastChange = "2020-02-16 15:19:08 +0000";
layers = (
{
layerId = "UUID0";
paths = (
{
closed = 1;
nodes = (
"480 -157 OFFCURVE",
"551 -84 OFFCURVE",
"551 27 CURVE SMOOTH",
"551 154 OFFCURVE",
"474 232 OFFCURVE",
"350 232 CURVE SMOOTH",
"289 232 OFFCURVE",
"234 201 OFFCURVE",
"202 154 CURVE",
"177 225 OFFCURVE",
"156 295 OFFCURVE",
"139 364 CURVE",
"703 364 LINE",
"703 444 LINE",
"45 444 LINE",
"54 393 OFFCURVE",
"66 342 OFFCURVE",
"79 290 CURVE SMOOTH",
"106 185 OFFCURVE",
"147 72 OFFCURVE",
"191 -15 CURVE SMOOTH",
"235 -103 OFFCURVE",
"294 -157 OFFCURVE",
"379 -157 CURVE SMOOTH"
);
},
{
closed = 1;
nodes = (
"323 -77 OFFCURVE",
"277 -33 OFFCURVE",
"232 76 CURVE",
"255 123 OFFCURVE",
"299 153 OFFCURVE",
"350 153 CURVE SMOOTH",
"433 153 OFFCURVE",
"473 103 OFFCURVE",
"473 27 CURVE SMOOTH",
"473 -38 OFFCURVE",
"435 -77 OFFCURVE",
"379 -77 CURVE SMOOTH"
);
}
);
vertWidth = 0;
width = 748;
}
);
note = u1833;
unicode = 1833;
},
{
glyphname = u1834;
lastChange = "2020-02-16 15:19:08 +0000";
layers = (
{
layerId = "UUID0";
paths = (
{
closed = 1;
nodes = (
"230 57 OFFCURVE",
"300 63 OFFCURVE",
"397 63 CURVE SMOOTH",
"518 63 LINE",
"518 129 LINE",
"491 209 OFFCURVE",
"477 280 OFFCURVE",
"477 364 CURVE",
"722 364 LINE",
"722 444 LINE",
"63 444 LINE",
"45 364 LINE",
"403 364 LINE",
"403 281 OFFCURVE",
"413 207 OFFCURVE",
"433 143 CURVE",
"397 143 LINE SMOOTH",
"304 143 OFFCURVE",
"225 140 OFFCURVE",
"162 101 CURVE",
"162 16 LINE"
);
}
);
vertWidth = 0;
width = 767;
}
);
note = u1834;
unicode = 1834;
},
{
glyphname = u1830.med;
lastChange = "2020-02-16 15:19:08 +0000";
layers = (
{
layerId = "UUID0";
paths = (
{
closed = 1;
nodes = (
"97 106 OFFCURVE",
"93 148 OFFCURVE",
"93 199 CURVE SMOOTH",
"93 350 OFFCURVE",
"124 481 OFFCURVE",
"197 617 CURVE",
"201 617 LINE",
"217 420 OFFCURVE",
"257 248 OFFCURVE",
"334 73 CURVE",
"419 73 LINE",
"374 168 OFFCURVE",
"337 265 OFFCURVE",
"313 364 CURVE",
"611 364 LINE",
"611 444 LINE",
"296 444 LINE",
"279 539 OFFCURVE",
"271 637 OFFCURVE",
"271 734 CURVE",
"190 734 LINE",
"125 645 OFFCURVE",
"79 548 OFFCURVE",
"50 444 CURVE",
"0 444 LINE",
"0 364 LINE SMOOTH",
"0 335 OFFCURVE",
"1 304 OFFCURVE",
"4 269 CURVE SMOOTH",
"8 201 OFFCURVE",
"17 130 OFFCURVE",
"28 73 CURVE",
"105 73 LINE"
);
}
);
vertWidth = 0;
width = 581;
}
);
note = u1830.med;
},
{
glyphname = u182C.fin;
lastChange = "2020-02-16 15:19:08 +0000";
layers = (
{
layerId = "UUID0";
paths = (
{
closed = 1;
nodes = (
"506 361 OFFCURVE",
"535 517 OFFCURVE",
"618 666 CURVE",
"525 666 LINE",
"460 537 OFFCURVE",
"427 377 OFFCURVE",
"427 188 CURVE",
"340 237 OFFCURVE",
"321 319 OFFCURVE",
"321 444 CURVE",
"0 444 LINE",
"0 364 LINE",
"19 96 LINE",
"85 96 LINE",
"104 364 LINE",
"251 364 LINE",
"251 289 OFFCURVE",
"279 218 OFFCURVE",
"324 163 CURVE SMOOTH",
"371 108 OFFCURVE",
"433 74 OFFCURVE",
"506 74 CURVE",
"506 186 LINE SMOOTH"
);
}
);
vertWidth = 0;
width = 663;
}
);
note = u182C.fin;
},
{
glyphname = u182C.finV1;
lastChange = "2020-02-16 15:19:08 +0000";
layers = (
{
layerId = "UUID0";
paths = (
{
closed = 1;
nodes = (
"506 361 OFFCURVE",
"535 517 OFFCURVE",
"618 666 CURVE",
"525 666 LINE",
"460 537 OFFCURVE",
"427 377 OFFCURVE",
"427 188 CURVE",
"340 237 OFFCURVE",
"321 319 OFFCURVE",
"321 444 CURVE",
"0 444 LINE",
"0 364 LINE",
"19 96 LINE",
"85 96 LINE",
"104 364 LINE",
"251 364 LINE",
"251 289 OFFCURVE",
"279 218 OFFCURVE",
"324 163 CURVE SMOOTH",
"371 108 OFFCURVE",
"433 74 OFFCURVE",
"506 74 CURVE",
"506 186 LINE SMOOTH"
);
},
{
closed = 1;
nodes = (
"276 -106 OFFCURVE",
"322 -68 OFFCURVE",
"382 -25 CURVE",
"321 44 LINE",
"282 5 OFFCURVE",
"241 -43 OFFCURVE",
"200 -102 CURVE",
"243 -141 LINE"
);
},
{
closed = 1;
nodes = (
"495 -161 OFFCURVE",
"541 -123 OFFCURVE",
"601 -80 CURVE",
"540 -11 LINE",
"501 -50 OFFCURVE",
"460 -98 OFFCURVE",
"419 -157 CURVE",
"462 -196 LINE"
);
}
);
vertWidth = 0;
width = 663;
}
);
note = u182C.finV1;
},
{
glyphname = u182A_1823;
lastChange = "2020-02-16 15:19:08 +0000";
layers = (
{
layerId = "UUID0";
paths = (
{
closed = 1;
nodes = (
"312 40 OFFCURVE",
"371 72 OFFCURVE",
"396 135 CURVE",
"424 71 OFFCURVE",
"474 40 OFFCURVE",
"538 40 CURVE SMOOTH",
"683 40 OFFCURVE",
"752 146 OFFCURVE",
"752 375 CURVE SMOOTH",
"752 453 OFFCURVE",
"739 522 OFFCURVE",
"713 583 CURVE SMOOTH",
"660 706 OFFCURVE",
"557 782 OFFCURVE",
"405 782 CURVE SMOOTH",
"330 782 OFFCURVE",
"265 765 OFFCURVE",
"211 731 CURVE SMOOTH",
"103 662 OFFCURVE",
"45 536 OFFCURVE",
"45 375 CURVE SMOOTH",
"45 155 OFFCURVE",
"108 40 OFFCURVE",
"249 40 CURVE SMOOTH"
);
},
{
closed = 1;
nodes = (
"146 605 OFFCURVE",
"236 699 OFFCURVE",
"405 699 CURVE SMOOTH",
"455 699 OFFCURVE",
"499 688 OFFCURVE",
"536 667 CURVE SMOOTH",
"609 624 OFFCURVE",
"655 545 OFFCURVE",
"668 444 CURVE",
"127 444 LINE"
);
},
{
closed = 1;
nodes = (
"214 123 OFFCURVE",
"188 133 OFFCURVE",
"170 154 CURVE SMOOTH",
"134 194 OFFCURVE",
"124 269 OFFCURVE",
"124 364 CURVE",
"359 364 LINE",
"359 286 LINE SMOOTH",
"359 195 OFFCURVE",
"325 123 OFFCURVE",
"249 123 CURVE SMOOTH"
);
},
{
closed = 1;
nodes = (
"471 123 OFFCURVE",
"438 177 OFFCURVE",
"438 286 CURVE SMOOTH",
"438 364 LINE",
"673 364 LINE",
"672 305 OFFCURVE",
"667 258 OFFCURVE",
"658 223 CURVE SMOOTH",
"641 152 OFFCURVE",
"605 123 OFFCURVE",
"538 123 CURVE SMOOTH"
);
}
);
vertWidth = 0;
width = 797;
}
);
note = u182A_1823;
},
{
glyphname = u182A_1823.ini;
lastChange = "2020-02-16 15:19:08 +0000";
layers = (
{
layerId = "UUID0";
paths = (
{
closed = 1;
nodes = (
"267 40 OFFCURVE",
"326 72 OFFCURVE",
"351 135 CURVE",
"379 71 OFFCURVE",
"429 40 OFFCURVE",
"493 40 CURVE SMOOTH",
"635 40 OFFCURVE",
"706 148 OFFCURVE",
"707 364 CURVE",
"918 364 LINE",
"918 444 LINE",
"703 444 LINE",
"696 512 OFFCURVE",
"678 572 OFFCURVE",
"647 624 CURVE SMOOTH",
"587 725 OFFCURVE",
"488 782 OFFCURVE",
"360 782 CURVE SMOOTH",
"285 782 OFFCURVE",
"220 765 OFFCURVE",
"166 731 CURVE SMOOTH",
"58 662 OFFCURVE",
"0 536 OFFCURVE",
"0 375 CURVE SMOOTH",
"0 155 OFFCURVE",
"63 40 OFFCURVE",
"204 40 CURVE SMOOTH"
);
},
{
closed = 1;
nodes = (
"101 605 OFFCURVE",
"191 699 OFFCURVE",
"360 699 CURVE SMOOTH",
"410 699 OFFCURVE",
"454 688 OFFCURVE",
"491 667 CURVE SMOOTH",
"564 624 OFFCURVE",
"610 545 OFFCURVE",
"623 444 CURVE",
"82 444 LINE"
);
},
{
closed = 1;
nodes = (
"169 123 OFFCURVE",
"143 133 OFFCURVE",
"125 154 CURVE SMOOTH",
"89 194 OFFCURVE",
"79 269 OFFCURVE",
"79 364 CURVE",
"314 364 LINE",
"314 286 LINE SMOOTH",
"314 195 OFFCURVE",
"280 123 OFFCURVE",
"204 123 CURVE SMOOTH"
);
},
{
closed = 1;
nodes = (
"426 123 OFFCURVE",
"393 177 OFFCURVE",
"393 286 CURVE SMOOTH",
"393 364 LINE",
"628 364 LINE",
"627 305 OFFCURVE",
"622 258 OFFCURVE",
"613 223 CURVE SMOOTH",
"596 152 OFFCURVE",
"560 123 OFFCURVE",
"493 123 CURVE SMOOTH"
);
}
);
vertWidth = 0;
width = 888;
}
);
note = u182A_1823.ini;
},
{
glyphname = u1829.fin;
lastChange = "2020-02-16 15:19:08 +0000";
layers = (
{
layerId = "UUID0";
paths = (
{
closed = 1;
nodes = (
"604 -240 OFFCURVE",
"597 -214 OFFCURVE",
"597 -187 CURVE SMOOTH",
"597 -130 OFFCURVE",
"617 -91 OFFCURVE",
"664 -31 CURVE SMOOTH",
"740 66 OFFCURVE",
"797 153 OFFCURVE",
"797 245 CURVE SMOOTH",
"797 373 OFFCURVE",
"721 444 OFFCURVE",
"566 444 CURVE SMOOTH",
"0 444 LINE",
"0 364 LINE",
"19 96 LINE",
"85 96 LINE",
"104 364 LINE",
"218 364 LINE",
"257 220 OFFCURVE",
"314 77 OFFCURVE",
"391 -67 CURVE",
"464 -31 LINE",
"391 100 OFFCURVE",
"336 231 OFFCURVE",
"297 364 CURVE",
"565 364 LINE SMOOTH",
"672 364 OFFCURVE",
"719 325 OFFCURVE",
"719 245 CURVE SMOOTH",
"719 172 OFFCURVE",
"675 111 OFFCURVE",
"612 28 CURVE SMOOTH",
"559 -44 OFFCURVE",
"517 -108 OFFCURVE",
"517 -187 CURVE SMOOTH",
"517 -218 OFFCURVE",
"523 -243 OFFCURVE",
"536 -264 CURVE",
"618 -264 LINE"
);
}
);
vertWidth = 0;
width = 842;
}
);
note = u1829.fin;
},
{
glyphname = u1828.medV2;
lastChange = "2020-02-16 15:19:08 +0000";
layers = (
{
layerId = "UUID0";
paths = (
{
closed = 1;
nodes = (
"261 299 OFFCURVE",
"278 430 OFFCURVE",
"310 547 CURVE SMOOTH",
"342 666 OFFCURVE",
"390 763 OFFCURVE",
"450 836 CURVE",
"358 836 LINE",
"323 794 OFFCURVE",
"293 737 OFFCURVE",
"267 665 CURVE SMOOTH",
"215 528 OFFCURVE",
"184 351 OFFCURVE",
"184 156 CURVE",
"153 174 OFFCURVE",
"130 197 OFFCURVE",
"114 226 CURVE SMOOTH",
"82 282 OFFCURVE",
"74 356 OFFCURVE",
"74 444 CURVE",
"0 444 LINE",
"0 364 LINE SMOOTH",
"0 315 OFFCURVE",
"11 266 OFFCURVE",
"32 216 CURVE",
"75 124 OFFCURVE",
"154 60 OFFCURVE",
"261 53 CURVE",
"261 156 LINE SMOOTH"
);
},
{
closed = 1;
nodes = (
"248 -150 OFFCURVE",
"294 -112 OFFCURVE",
"354 -69 CURVE",
"293 0 LINE",
"254 -39 OFFCURVE",
"213 -87 OFFCURVE",
"172 -146 CURVE",
"215 -185 LINE"
);
}
);
vertWidth = 0;
width = 495;
}
);
note = u1828.medV2;
},
{
glyphname = u1828.finV1;
lastChange = "2020-02-16 15:19:08 +0000";
layers = (
{
layerId = "UUID0";
paths = (
{
closed = 1;
nodes = (
"261 299 OFFCURVE",
"278 430 OFFCURVE",
"310 547 CURVE SMOOTH",
"342 666 OFFCURVE",
"390 763 OFFCURVE",
"450 836 CURVE",
"358 836 LINE",
"323 794 OFFCURVE",
"293 737 OFFCURVE",
"267 665 CURVE SMOOTH",
"215 528 OFFCURVE",
"184 351 OFFCURVE",
"184 156 CURVE",
"153 174 OFFCURVE",
"130 197 OFFCURVE",
"114 226 CURVE SMOOTH",
"82 282 OFFCURVE",
"74 356 OFFCURVE",
"74 444 CURVE",
"0 444 LINE",
"0 364 LINE SMOOTH",
"0 315 OFFCURVE",
"11 266 OFFCURVE",
"32 216 CURVE",
"75 124 OFFCURVE",
"154 60 OFFCURVE",
"261 53 CURVE",
"261 156 LINE SMOOTH"
);
},
{
closed = 1;
nodes = (
"248 -150 OFFCURVE",
"294 -112 OFFCURVE",
"354 -69 CURVE",
"293 0 LINE",
"254 -39 OFFCURVE",
"213 -87 OFFCURVE",
"172 -146 CURVE",
"215 -185 LINE"
);
}
);
vertWidth = 0;
width = 495;
}
);
note = u1828.finV1;
},
{
glyphname = u1822.fin;
lastChange = "2020-02-16 15:19:08 +0000";
layers = (
{
layerId = "UUID0";
paths = (
{
closed = 1;
nodes = (
"123 194 OFFCURVE",
"79 286 OFFCURVE",
"79 407 CURVE SMOOTH",
"79 567 OFFCURVE",
"136 644 OFFCURVE",
"228 644 CURVE SMOOTH",
"316 644 OFFCURVE",
"369 547 OFFCURVE",
"378 376 CURVE",
"458 386 LINE",
"453 477 OFFCURVE",
"434 561 OFFCURVE",
"398 625 CURVE SMOOTH",
"361 688 OFFCURVE",
"305 727 OFFCURVE",
"228 727 CURVE SMOOTH",
"177 727 OFFCURVE",
"135 713 OFFCURVE",
"102 685 CURVE SMOOTH",
"34 628 OFFCURVE",
"0 527 OFFCURVE",
"0 407 CURVE SMOOTH",
"0 292 OFFCURVE",
"43 170 OFFCURVE",
"129 42 CURVE",
"200 85 LINE"
);
}
);
vertWidth = 0;
width = 503;
}
);
note = u1822.fin;
},
{
glyphname = u1822.ini;
lastChange = "2020-02-16 15:19:08 +0000";
layers = (
{
layerId = "UUID0";
paths = (
{
closed = 1;
nodes = (
"626 100 OFFCURVE",
"571 231 OFFCURVE",
"532 364 CURVE",
"844 364 LINE",
"844 444 LINE",
"444 444 LINE SMOOTH",
"360 444 OFFCURVE",
"307 416 OFFCURVE",
"285 361 CURVE",
"281 361 LINE",
"278 445 LINE SMOOTH",
"277 488 OFFCURVE",
"273 524 OFFCURVE",
"264 557 CURVE SMOOTH",
"248 620 OFFCURVE",
"212 653 OFFCURVE",
"139 653 CURVE SMOOTH",
"100 653 OFFCURVE",
"57 643 OFFCURVE",
"10 623 CURVE",
"10 550 LINE",
"47 567 OFFCURVE",
"83 575 OFFCURVE",
"118 575 CURVE SMOOTH",
"179 575 OFFCURVE",
"195 520 OFFCURVE",
"200 437 CURVE SMOOTH",
"226 74 LINE",
"292 74 LINE",
"302 219 LINE SMOOTH",
"305 256 OFFCURVE",
"310 286 OFFCURVE",
"319 307 CURVE",
"335 350 OFFCURVE",
"373 364 OFFCURVE",
"445 364 CURVE SMOOTH",
"453 364 LINE",
"492 221 OFFCURVE",
"549 78 OFFCURVE",
"626 -67 CURVE",
"699 -31 LINE"
);
}
);
vertWidth = 0;
width = 814;
}
);
note = u1822.ini;
},
{
glyphname = u1820.medV1;
lastChange = "2020-02-16 15:19:08 +0000";
layers = (
{
layerId = "UUID0";
paths = (
{
closed = 1;
nodes = (
"388 364 LINE",
"598 364 LINE",
"598 444 LINE",
"0 444 LINE",
"0 364 LINE",
"19 96 LINE",
"85 96 LINE",
"104 364 LINE",
"284 364 LINE",
"303 96 LINE",
"369 96 LINE"
);
}
);
vertWidth = 0;
width = 568;
}
);
note = u1820.medV1;
},
{
glyphname = u182A_1825.ini;
lastChange = "2020-02-16 15:19:08 +0000";
layers = (
{
layerId = "UUID0";
paths = (
{
closed = 1;
nodes = (
"1001 98 OFFCURVE",
"946 229 OFFCURVE",
"907 364 CURVE",
"1219 364 LINE",
"1219 444 LINE",
"713 444 LINE",
"706 513 OFFCURVE",
"687 573 OFFCURVE",
"658 624 CURVE SMOOTH",
"598 725 OFFCURVE",
"499 782 OFFCURVE",
"370 782 CURVE SMOOTH",
"293 782 OFFCURVE",
"229 765 OFFCURVE",
"176 730 CURVE SMOOTH",
"68 661 OFFCURVE",
"10 535 OFFCURVE",
"10 375 CURVE SMOOTH",
"10 155 OFFCURVE",
"73 40 OFFCURVE",
"214 40 CURVE SMOOTH",
"277 40 OFFCURVE",
"336 72 OFFCURVE",
"361 135 CURVE",
"389 71 OFFCURVE",
"439 40 OFFCURVE",
"503 40 CURVE SMOOTH",
"645 40 OFFCURVE",
"716 148 OFFCURVE",
"717 364 CURVE",
"828 364 LINE",
"867 220 OFFCURVE",
"924 77 OFFCURVE",
"1001 -67 CURVE",
"1074 -31 LINE"
);
},
{
closed = 1;
nodes = (
"113 605 OFFCURVE",
"198 699 OFFCURVE",
"370 699 CURVE SMOOTH",
"420 699 OFFCURVE",
"464 688 OFFCURVE",
"501 667 CURVE SMOOTH",
"574 624 OFFCURVE",
"620 545 OFFCURVE",
"633 444 CURVE",
"92 444 LINE"
);
},
{
closed = 1;
nodes = (
"178 123 OFFCURVE",
"151 134 OFFCURVE",
"134 155 CURVE SMOOTH",
"98 198 OFFCURVE",
"89 273 OFFCURVE",
"89 364 CURVE",
"324 364 LINE",
"324 281 LINE SMOOTH",
"324 188 OFFCURVE",
"284 123 OFFCURVE",
"213 123 CURVE SMOOTH"
);
},
{
closed = 1;
nodes = (
"436 123 OFFCURVE",
"403 177 OFFCURVE",
"403 286 CURVE SMOOTH",
"403 364 LINE",
"638 364 LINE",
"637 305 OFFCURVE",
"632 258 OFFCURVE",
"623 223 CURVE SMOOTH",
"606 152 OFFCURVE",
"570 123 OFFCURVE",
"503 123 CURVE SMOOTH"
);
}
);
vertWidth = 0;
width = 1189;
}
);
note = u182A_1825.ini;
},
{
glyphname = u182F.med;
lastChange = "2020-02-16 15:35:28 +0000";
layers = (
{
guideLines = (
{
angle = 90;
position = "{0, 444}";
}
);
layerId = "UUID0";
paths = (
{
closed = 1;
nodes = (
"89 519 OFFCURVE",
"109 581 OFFCURVE",
"148 653 CURVE",
"148 719 LINE",
"28 719 LINE SMOOTH",
"-43 719 OFFCURVE",
"-101 722 OFFCURVE",
"-152 755 CURVE",
"-152 677 LINE",
"-112 642 OFFCURVE",
"-53 639 OFFCURVE",
"28 639 CURVE SMOOTH",
"62 639 LINE",
"35 582 OFFCURVE",
"19 516 OFFCURVE",
"16 444 CURVE",
"0 444 LINE",
"0 364 LINE",
"19 96 LINE",
"85 96 LINE",
"104 364 LINE",
"314 364 LINE",
"314 444 LINE",
"86 444 LINE"
);
}
);
vertWidth = 0;
width = 284;
}
);
note = u182F.med;
},
{
glyphname = u182F;
lastChange = "2020-02-16 15:19:08 +0000";
layers = (
{
layerId = "UUID0";
paths = (
{
closed = 1;
nodes = (
"340 256 OFFCURVE",
"345 286 OFFCURVE",
"354 307 CURVE",
"370 350 OFFCURVE",
"408 364 OFFCURVE",
"480 364 CURVE SMOOTH",
"557 364 LINE",
"557 444 LINE",
"479 444 LINE SMOOTH",
"395 444 OFFCURVE",
"342 416 OFFCURVE",
"320 361 CURVE",
"316 361 LINE",
"313 445 LINE SMOOTH",
"311 504 OFFCURVE",
"305 547 OFFCURVE",
"294 573 CURVE",
"301 640 OFFCURVE",
"327 698 OFFCURVE",
"374 766 CURVE",
"374 832 LINE",
"254 832 LINE SMOOTH",
"186 832 OFFCURVE",
"121 835 OFFCURVE",
"74 868 CURVE",
"74 790 LINE",
"115 754 OFFCURVE",
"177 752 OFFCURVE",
"254 752 CURVE SMOOTH",
"282 752 LINE",
"263 723 OFFCURVE",
"247 686 OFFCURVE",
"235 642 CURVE",
"212 649 OFFCURVE",
"191 653 OFFCURVE",
"174 653 CURVE SMOOTH",
"135 653 OFFCURVE",
"92 643 OFFCURVE",
"45 623 CURVE",
"45 550 LINE",
"82 567 OFFCURVE",
"118 575 OFFCURVE",
"153 575 CURVE SMOOTH",
"216 575 OFFCURVE",
"230 520 OFFCURVE",
"235 437 CURVE SMOOTH",
"261 74 LINE",
"327 74 LINE",
"337 219 LINE SMOOTH"
);
}
);
vertWidth = 0;
width = 602;
}
);
note = u182F;
unicode = 182F;
},
{
glyphname = u1829_182F.med;
lastChange = "2020-02-16 15:19:08 +0000";
layers = (
{
layerId = "UUID0";
paths = (
{
closed = 1;
nodes = (
"356 205 OFFCURVE",
"321 292 OFFCURVE",
"321 396 CURVE SMOOTH",
"321 500 OFFCURVE",
"364 563 OFFCURVE",
"444 563 CURVE SMOOTH",
"516 563 OFFCURVE",
"565 500 OFFCURVE",
"574 365 CURVE SMOOTH",
"593 96 LINE",
"659 96 LINE",
"678 364 LINE",
"888 364 LINE",
"888 444 LINE",
"639 444 LINE",
"634 473 OFFCURVE",
"627 500 OFFCURVE",
"616 523 CURVE",
"616 612 OFFCURVE",
"641 682 OFFCURVE",
"688 766 CURVE",
"688 832 LINE",
"568 832 LINE SMOOTH",
"500 832 OFFCURVE",
"435 835 OFFCURVE",
"388 868 CURVE",
"388 790 LINE",
"429 754 OFFCURVE",
"491 752 OFFCURVE",
"568 752 CURVE SMOOTH",
"596 752 LINE",
"577 712 OFFCURVE",
"562 664 OFFCURVE",
"553 609 CURVE",
"522 634 OFFCURVE",
"486 646 OFFCURVE",
"444 646 CURVE SMOOTH",
"327 646 OFFCURVE",
"258 561 OFFCURVE",
"245 444 CURVE",
"0 444 LINE",
"0 364 LINE",
"19 96 LINE",
"85 96 LINE",
"104 364 LINE",
"243 364 LINE",
"250 271 OFFCURVE",
"281 173 OFFCURVE",
"338 70 CURVE",
"412 112 LINE"
);
}
);
vertWidth = 0;
width = 858;
}
);
note = u1829_182F.med;
},
{
glyphname = u182E.fin;
lastChange = "2020-02-16 15:19:08 +0000";
layers = (
{
layerId = "UUID0";
paths = (
{
closed = 1;
nodes = (
"270 256 OFFCURVE",
"276 320 OFFCURVE",
"288 379 CURVE SMOOTH",
"312 496 OFFCURVE",
"364 602 OFFCURVE",
"445 718 CURVE",
"346 718 LINE",
"239 571 OFFCURVE",
"191 396 OFFCURVE",
"191 183 CURVE",
"159 200 OFFCURVE",
"135 220 OFFCURVE",
"119 242 CURVE",
"84 286 OFFCURVE",
"73 350 OFFCURVE",
"70 449 CURVE SMOOTH",
"69 506 OFFCURVE",
"64 558 OFFCURVE",
"49 606 CURVE",
"118 606 OFFCURVE",
"174 611 OFFCURVE",
"213 644 CURVE",
"213 722 LINE",
"169 690 OFFCURVE",
"117 686 OFFCURVE",
"45 686 CURVE SMOOTH",
"-27 686 LINE",
"-27 620 LINE",
"-9 564 OFFCURVE",
"0 507 OFFCURVE",
"0 449 CURVE SMOOTH",
"0 364 LINE SMOOTH",
"0 288 OFFCURVE",
"28 219 OFFCURVE",
"76 164 CURVE SMOOTH",
"124 111 OFFCURVE",
"191 75 OFFCURVE",
"270 74 CURVE",
"270 186 LINE SMOOTH"
);
}
);
vertWidth = 0;
width = 490;
}
);
note = u182E.fin;
},
{
glyphname = u182C.ini;
lastChange = "2020-02-16 15:19:08 +0000";
layers = (
{
layerId = "UUID0";
paths = (
{
closed = 1;
nodes = (
"254 268 OFFCURVE",
"223 377 OFFCURVE",
"171 423 CURVE",
"179 574 OFFCURVE",
"238 644 OFFCURVE",
"327 644 CURVE SMOOTH",
"427 644 OFFCURVE",
"477 563 OFFCURVE",
"477 378 CURVE SMOOTH",
"477 279 OFFCURVE",
"471 185 OFFCURVE",
"460 96 CURVE",
"538 96 LINE",
"552 192 OFFCURVE",
"559 281 OFFCURVE",
"559 364 CURVE",
"783 364 LINE",
"783 444 LINE",
"556 444 LINE",
"538 633 OFFCURVE",
"462 727 OFFCURVE",
"327 727 CURVE SMOOTH",
"281 727 OFFCURVE",
"241 715 OFFCURVE",
"208 691 CURVE SMOOTH",
"143 643 OFFCURVE",
"103 556 OFFCURVE",
"94 451 CURVE",
"61 450 OFFCURVE",
"33 444 OFFCURVE",
"10 433 CURVE",
"10 353 LINE",
"27 362 OFFCURVE",
"49 366 OFFCURVE",
"77 366 CURVE SMOOTH",
"117 366 OFFCURVE",
"142 334 OFFCURVE",
"158 283 CURVE SMOOTH",
"173 231 OFFCURVE",
"181 164 OFFCURVE",
"186 96 CURVE",
"264 96 LINE"
);
}
);
vertWidth = 0;
width = 753;
}
);
note = u182C.ini;
},
{
glyphname = u1831.ini;
lastChange = "2020-02-16 15:19:08 +0000";
layers = (
{
layerId = "UUID0";
paths = (
{
closed = 1;
nodes = (
"208 812 OFFCURVE",
"254 850 OFFCURVE",
"314 893 CURVE",
"253 962 LINE",
"214 923 OFFCURVE",
"173 875 OFFCURVE",
"132 816 CURVE",
"175 777 LINE"
);
},
{
closed = 1;
nodes = (
"415 812 OFFCURVE",
"461 850 OFFCURVE",
"521 893 CURVE",
"460 962 LINE",
"421 923 OFFCURVE",
"380 875 OFFCURVE",
"339 816 CURVE",
"382 777 LINE"
);
},
{
closed = 1;
nodes = (
"463 178 OFFCURVE",
"442 273 OFFCURVE",
"419 364 CURVE",
"676 364 LINE",
"676 444 LINE",
"398 444 LINE",
"371 545 OFFCURVE",
"343 642 OFFCURVE",
"314 734 CURVE",
"220 734 LINE",
"219 727 OFFCURVE",
"218 719 OFFCURVE",
"217 712 CURVE SMOOTH",
"216 705 OFFCURVE",
"214 697 OFFCURVE",
"213 690 CURVE",
"210 675 OFFCURVE",
"208 661 OFFCURVE",
"205 648 CURVE",
"196 596 OFFCURVE",
"187 550 OFFCURVE",
"172 503 CURVE SMOOTH",
"159 458 OFFCURVE",
"135 427 OFFCURVE",
"95 427 CURVE SMOOTH",
"64 427 OFFCURVE",
"36 433 OFFCURVE",
"10 446 CURVE",
"10 371 LINE",
"39 354 OFFCURVE",
"69 346 OFFCURVE",
"100 346 CURVE SMOOTH",
"181 346 OFFCURVE",
"214 395 OFFCURVE",
"238 480 CURVE SMOOTH",
"253 532 OFFCURVE",
"262 579 OFFCURVE",
"267 620 CURVE",
"271 620 LINE",
"292 563 OFFCURVE",
"315 486 OFFCURVE",
"339 387 CURVE SMOOTH",
"363 291 OFFCURVE",
"387 186 OFFCURVE",
"408 73 CURVE",
"484 73 LINE"
);
}
);
vertWidth = 0;
width = 646;
}
);
note = u1831.ini;
},
{
glyphname = u1831.med;
lastChange = "2020-02-16 15:19:08 +0000";
layers = (
{
layerId = "UUID0";
paths = (
{
closed = 1;
nodes = (
"173 812 OFFCURVE",
"219 850 OFFCURVE",
"279 893 CURVE",
"218 962 LINE",
"179 923 OFFCURVE",
"138 875 OFFCURVE",
"97 816 CURVE",
"140 777 LINE"
);
},
{
closed = 1;
nodes = (
"380 812 OFFCURVE",
"426 850 OFFCURVE",
"486 893 CURVE",
"425 962 LINE",
"386 923 OFFCURVE",
"345 875 OFFCURVE",
"304 816 CURVE",
"347 777 LINE"
);
},
{
closed = 1;
nodes = (
"97 106 OFFCURVE",
"93 148 OFFCURVE",
"93 199 CURVE SMOOTH",
"93 350 OFFCURVE",
"124 481 OFFCURVE",
"197 617 CURVE",
"201 617 LINE",
"217 420 OFFCURVE",
"257 248 OFFCURVE",
"334 73 CURVE",
"419 73 LINE",
"374 168 OFFCURVE",
"337 265 OFFCURVE",
"313 364 CURVE",
"611 364 LINE",
"611 444 LINE",
"296 444 LINE",
"279 539 OFFCURVE",
"271 637 OFFCURVE",
"271 734 CURVE",
"190 734 LINE",
"125 645 OFFCURVE",
"79 548 OFFCURVE",
"50 444 CURVE",
"0 444 LINE",
"0 364 LINE SMOOTH",
"0 335 OFFCURVE",
"1 304 OFFCURVE",
"4 269 CURVE SMOOTH",
"8 201 OFFCURVE",
"17 130 OFFCURVE",
"28 73 CURVE",
"105 73 LINE"
);
}
);
vertWidth = 0;
width = 581;
}
);
note = u1831.med;
},
{
glyphname = u1831;
lastChange = "2020-02-16 15:19:08 +0000";
layers = (
{
layerId = "UUID0";
paths = (
{
closed = 1;
nodes = (
"243 812 OFFCURVE",
"289 850 OFFCURVE",
"349 893 CURVE",
"288 962 LINE",
"249 923 OFFCURVE",
"208 875 OFFCURVE",
"167 816 CURVE",
"210 777 LINE"
);
},
{
closed = 1;
nodes = (
"450 812 OFFCURVE",
"496 850 OFFCURVE",
"556 893 CURVE",
"495 962 LINE",
"456 923 OFFCURVE",
"415 875 OFFCURVE",
"374 816 CURVE",
"417 777 LINE"
);
},
{
closed = 1;
nodes = (
"498 178 OFFCURVE",
"477 273 OFFCURVE",
"454 364 CURVE",
"711 364 LINE",
"711 444 LINE",
"433 444 LINE",
"406 545 OFFCURVE",
"378 642 OFFCURVE",
"349 734 CURVE",
"255 734 LINE",
"254 727 OFFCURVE",
"253 719 OFFCURVE",
"252 712 CURVE SMOOTH",
"251 705 OFFCURVE",
"249 697 OFFCURVE",
"248 690 CURVE",
"245 675 OFFCURVE",
"243 661 OFFCURVE",
"240 648 CURVE",
"231 596 OFFCURVE",
"222 550 OFFCURVE",
"207 503 CURVE SMOOTH",
"194 458 OFFCURVE",
"170 427 OFFCURVE",
"130 427 CURVE SMOOTH",
"99 427 OFFCURVE",
"71 433 OFFCURVE",
"45 446 CURVE",
"45 371 LINE",
"74 354 OFFCURVE",
"104 346 OFFCURVE",
"135 346 CURVE SMOOTH",
"216 346 OFFCURVE",
"249 395 OFFCURVE",
"273 480 CURVE SMOOTH",
"288 532 OFFCURVE",
"297 579 OFFCURVE",
"302 620 CURVE",
"306 620 LINE",
"327 563 OFFCURVE",
"350 486 OFFCURVE",
"374 387 CURVE SMOOTH",
"398 291 OFFCURVE",
"422 186 OFFCURVE",
"443 73 CURVE",
"519 73 LINE"
);
}
);
vertWidth = 0;
width = 756;
}
);
note = u1831;
unicode = 1831;
},
{
glyphname = u1830;
lastChange = "2020-02-16 15:19:08 +0000";
layers = (
{
layerId = "UUID0";
paths = (
{
closed = 1;
nodes = (
"498 178 OFFCURVE",
"477 273 OFFCURVE",
"454 364 CURVE",
"711 364 LINE",
"711 444 LINE",
"433 444 LINE",
"406 545 OFFCURVE",
"378 642 OFFCURVE",
"349 734 CURVE",
"255 734 LINE",
"254 727 OFFCURVE",
"253 719 OFFCURVE",
"252 712 CURVE SMOOTH",
"251 705 OFFCURVE",
"249 697 OFFCURVE",
"248 690 CURVE",
"245 675 OFFCURVE",
"243 661 OFFCURVE",
"240 648 CURVE",
"231 596 OFFCURVE",
"222 550 OFFCURVE",
"207 503 CURVE SMOOTH",
"194 458 OFFCURVE",
"170 427 OFFCURVE",
"130 427 CURVE SMOOTH",
"99 427 OFFCURVE",
"71 433 OFFCURVE",
"45 446 CURVE",
"45 371 LINE",
"74 354 OFFCURVE",
"104 346 OFFCURVE",
"135 346 CURVE SMOOTH",
"216 346 OFFCURVE",
"249 395 OFFCURVE",
"273 480 CURVE SMOOTH",
"288 532 OFFCURVE",
"297 579 OFFCURVE",
"302 620 CURVE",
"306 620 LINE",
"327 563 OFFCURVE",
"350 486 OFFCURVE",
"374 387 CURVE SMOOTH",
"398 291 OFFCURVE",
"422 186 OFFCURVE",
"443 73 CURVE",
"519 73 LINE"
);
}
);
vertWidth = 0;
width = 756;
}
);
note = u1830;
unicode = 1830;
},
{
glyphname = u1831.fin;
lastChange = "2020-02-16 15:19:08 +0000";
layers = (
{
layerId = "UUID0";
paths = (
{
closed = 1;
nodes = (
"141 812 OFFCURVE",
"187 850 OFFCURVE",
"247 893 CURVE",
"186 962 LINE",
"147 923 OFFCURVE",
"106 875 OFFCURVE",
"65 816 CURVE",
"108 777 LINE"
);
},
{
closed = 1;
nodes = (
"348 812 OFFCURVE",
"394 850 OFFCURVE",
"454 893 CURVE",
"393 962 LINE",
"354 923 OFFCURVE",
"313 875 OFFCURVE",
"272 816 CURVE",
"315 777 LINE"
);
},
{
closed = 1;
nodes = (
"92 123 OFFCURVE",
"86 191 OFFCURVE",
"86 276 CURVE SMOOTH",
"86 395 OFFCURVE",
"111 496 OFFCURVE",
"166 613 CURVE",
"170 613 LINE",
"179 520 OFFCURVE",
"197 431 OFFCURVE",
"222 350 CURVE SMOOTH",
"247 269 OFFCURVE",
"283 187 OFFCURVE",
"328 106 CURVE",
"408 106 LINE",
"449 309 OFFCURVE",
"520 478 OFFCURVE",
"640 642 CURVE",
"543 642 LINE",
"458 521 OFFCURVE",
"393 375 OFFCURVE",
"358 223 CURVE",
"354 223 LINE",
"271 395 OFFCURVE",
"238 555 OFFCURVE",
"238 734 CURVE",
"157 734 LINE",
"94 641 OFFCURVE",
"53 543 OFFCURVE",
"32 444 CURVE",
"0 444 LINE",
"0 364 LINE SMOOTH",
"0 276 OFFCURVE",
"11 168 OFFCURVE",
"27 73 CURVE",
"105 73 LINE"
);
}
);
vertWidth = 0;
width = 685;
}
);
note = u1831.fin;
},
{
glyphname = u1830.finV1;
lastChange = "2020-02-16 15:19:08 +0000";
layers = (
{
layerId = "UUID0";
paths = (
{
closed = 1;
nodes = (
"227 313 OFFCURVE",
"297 478 OFFCURVE",
"416 642 CURVE",
"319 642 LINE",
"291 603 OFFCURVE",
"265 561 OFFCURVE",
"241 514 CURVE SMOOTH",
"192 421 OFFCURVE",
"154 318 OFFCURVE",
"134 223 CURVE",
"130 223 LINE",
"79 284 OFFCURVE",
"70 351 OFFCURVE",
"70 444 CURVE",
"0 444 LINE",
"0 364 LINE SMOOTH",
"0 336 OFFCURVE",
"5 306 OFFCURVE",
"15 275 CURVE SMOOTH",
"35 214 OFFCURVE",
"72 154 OFFCURVE",
"113 106 CURVE",
"184 106 LINE"
);
}
);
vertWidth = 0;
width = 461;
}
);
note = u1830.finV1;
},
{
glyphname = u183E.med;
lastChange = "2020-02-16 15:19:08 +0000";
layers = (
{
layerId = "UUID0";
paths = (
{
closed = 1;
nodes = (
"334 82 OFFCURVE",
"298 215 OFFCURVE",
"295 364 CURVE",
"551 364 LINE",
"551 444 LINE",
"219 444 LINE",
"219 366 LINE SMOOTH",
"219 221 OFFCURVE",
"247 93 OFFCURVE",
"303 -17 CURVE",
"179 -72 LINE",
"104 71 OFFCURVE",
"75 200 OFFCURVE",
"75 364 CURVE SMOOTH",
"75 444 LINE",
"0 444 LINE",
"0 364 LINE SMOOTH",
"0 167 OFFCURVE",
"45 -6 OFFCURVE",
"140 -182 CURVE",
"409 -57 LINE"
);
}
);
vertWidth = 0;
width = 521;
}
);
note = u183E.med;
},
{
glyphname = u1820;
lastChange = "2020-02-16 15:19:08 +0000";
layers = (
{
layerId = "UUID0";
paths = (
{
closed = 1;
nodes = (
"765 277 OFFCURVE",
"779 403 OFFCURVE",
"808 523 CURVE SMOOTH",
"839 643 OFFCURVE",
"885 751 OFFCURVE",
"954 836 CURVE",
"862 836 LINE",
"802 756 OFFCURVE",
"758 648 OFFCURVE",
"730 527 CURVE SMOOTH",
"701 406 OFFCURVE",
"688 276 OFFCURVE",
"688 156 CURVE",
"657 174 OFFCURVE",
"634 197 OFFCURVE",
"618 226 CURVE SMOOTH",
"586 282 OFFCURVE",
"578 356 OFFCURVE",
"578 444 CURVE",
"479 444 LINE SMOOTH",
"395 444 OFFCURVE",
"342 416 OFFCURVE",
"320 361 CURVE",
"316 361 LINE",
"313 445 LINE SMOOTH",
"312 488 OFFCURVE",
"308 524 OFFCURVE",
"299 557 CURVE SMOOTH",
"283 620 OFFCURVE",
"247 653 OFFCURVE",
"174 653 CURVE SMOOTH",
"135 653 OFFCURVE",
"92 643 OFFCURVE",
"45 623 CURVE",
"45 550 LINE",
"82 567 OFFCURVE",
"118 575 OFFCURVE",
"153 575 CURVE SMOOTH",
"214 575 OFFCURVE",
"230 520 OFFCURVE",
"235 437 CURVE SMOOTH",
"261 74 LINE",
"327 74 LINE",
"337 219 LINE SMOOTH",
"340 256 OFFCURVE",
"345 286 OFFCURVE",
"354 307 CURVE",
"370 350 OFFCURVE",
"408 364 OFFCURVE",
"480 364 CURVE SMOOTH",
"504 364 LINE",
"504 315 OFFCURVE",
"515 266 OFFCURVE",
"536 216 CURVE",
"579 123 OFFCURVE",
"658 60 OFFCURVE",
"765 53 CURVE",
"765 156 LINE SMOOTH"
);
}
);
vertWidth = 0;
width = 999;
}
);
note = u1820;
unicode = 1820;
},
{
glyphname = u1820.V1;
lastChange = "2020-02-16 15:19:08 +0000";
layers = (
{
layerId = "UUID0";
paths = (
{
closed = 1;
nodes = (
"621 -240 OFFCURVE",
"614 -214 OFFCURVE",
"614 -187 CURVE SMOOTH",
"614 -166 OFFCURVE",
"616 -147 OFFCURVE",
"621 -132 CURVE",
"630 -101 OFFCURVE",
"649 -72 OFFCURVE",
"681 -31 CURVE SMOOTH",
"757 68 OFFCURVE",
"814 153 OFFCURVE",
"814 245 CURVE SMOOTH",
"814 373 OFFCURVE",
"738 444 OFFCURVE",
"583 444 CURVE SMOOTH",
"479 444 LINE SMOOTH",
"395 444 OFFCURVE",
"342 416 OFFCURVE",
"320 361 CURVE",
"316 361 LINE",
"313 445 LINE SMOOTH",
"312 488 OFFCURVE",
"308 524 OFFCURVE",
"299 557 CURVE SMOOTH",
"283 620 OFFCURVE",
"247 653 OFFCURVE",
"174 653 CURVE SMOOTH",
"135 653 OFFCURVE",
"92 643 OFFCURVE",
"45 623 CURVE",
"45 550 LINE",
"82 567 OFFCURVE",
"118 575 OFFCURVE",
"153 575 CURVE SMOOTH",
"214 575 OFFCURVE",
"230 520 OFFCURVE",
"235 437 CURVE SMOOTH",
"261 74 LINE",
"327 74 LINE",
"337 219 LINE SMOOTH",
"340 256 OFFCURVE",
"345 286 OFFCURVE",
"354 307 CURVE",
"370 350 OFFCURVE",
"408 364 OFFCURVE",
"480 364 CURVE SMOOTH",
"582 364 LINE SMOOTH",
"689 364 OFFCURVE",
"736 325 OFFCURVE",
"736 245 CURVE SMOOTH",
"736 176 OFFCURVE",
"692 112 OFFCURVE",
"629 28 CURVE SMOOTH",
"573 -45 OFFCURVE",
"534 -112 OFFCURVE",
"534 -187 CURVE SMOOTH",
"534 -218 OFFCURVE",
"540 -243 OFFCURVE",
"553 -264 CURVE",
"635 -264 LINE"
);
}
);
vertWidth = 0;
width = 859;
}
);
note = u1820.V1;
},
{
glyphname = u1820.ini;
lastChange = "2020-02-16 15:19:08 +0000";
layers = (
{
layerId = "UUID0";
paths = (
{
closed = 1;
nodes = (
"305 255 OFFCURVE",
"310 284 OFFCURVE",
"319 305 CURVE",
"335 348 OFFCURVE",
"372 364 OFFCURVE",
"445 364 CURVE SMOOTH",
"502 364 LINE",
"521 96 LINE",
"587 96 LINE",
"606 364 LINE",
"816 364 LINE",
"816 444 LINE",
"444 444 LINE SMOOTH",
"360 444 OFFCURVE",
"307 416 OFFCURVE",
"285 361 CURVE",
"281 361 LINE",
"278 445 LINE SMOOTH",
"277 488 OFFCURVE",
"273 524 OFFCURVE",
"264 557 CURVE SMOOTH",
"248 620 OFFCURVE",
"212 653 OFFCURVE",
"139 653 CURVE SMOOTH",
"100 653 OFFCURVE",
"57 643 OFFCURVE",
"10 623 CURVE",
"10 550 LINE",
"47 567 OFFCURVE",
"83 575 OFFCURVE",
"118 575 CURVE SMOOTH",
"179 575 OFFCURVE",
"195 520 OFFCURVE",
"200 437 CURVE SMOOTH",
"226 74 LINE",
"292 74 LINE",
"302 219 LINE SMOOTH"
);
}
);
vertWidth = 0;
width = 786;
}
);
note = u1820.ini;
},
{
glyphname = u182A_1820.ini;
lastChange = "2020-02-16 15:19:08 +0000";
layers = (
{
layerId = "UUID0";
paths = (
{
closed = 1;
nodes = (
"271 40 OFFCURVE",
"302 50 OFFCURVE",
"329 70 CURVE SMOOTH",
"384 109 OFFCURVE",
"416 182 OFFCURVE",
"416 275 CURVE SMOOTH",
"416 288 OFFCURVE",
"415 305 OFFCURVE",
"413 328 CURVE SMOOTH",
"409 372 OFFCURVE",
"401 421 OFFCURVE",
"393 444 CURVE",
"89 444 LINE",
"90 493 OFFCURVE",
"99 537 OFFCURVE",
"116 576 CURVE SMOOTH",
"151 652 OFFCURVE",
"218 699 OFFCURVE",
"317 699 CURVE SMOOTH",
"458 699 OFFCURVE",
"528 587 OFFCURVE",
"544 364 CURVE SMOOTH",
"563 96 LINE",
"629 96 LINE",
"648 364 LINE",
"858 364 LINE",
"858 444 LINE",
"617 444 LINE",
"608 509 OFFCURVE",
"591 567 OFFCURVE",
"568 617 CURVE SMOOTH",
"520 718 OFFCURVE",
"440 782 OFFCURVE",
"317 782 CURVE SMOOTH",
"250 782 OFFCURVE",
"193 766 OFFCURVE",
"148 735 CURVE SMOOTH",
"56 671 OFFCURVE",
"10 556 OFFCURVE",
"10 408 CURVE SMOOTH",
"10 163 OFFCURVE",
"85 40 OFFCURVE",
"236 40 CURVE SMOOTH"
);
},
{
closed = 1;
nodes = (
"138 123 OFFCURVE",
"91 203 OFFCURVE",
"89 364 CURVE",
"327 364 LINE",
"334 350 OFFCURVE",
"337 320 OFFCURVE",
"337 275 CURVE SMOOTH",
"337 190 OFFCURVE",
"302 123 OFFCURVE",
"229 123 CURVE SMOOTH"
);
}
);
vertWidth = 0;
width = 828;
}
);
note = u182A_1820.ini;
},
{
glyphname = u1827.med;
lastChange = "2020-02-16 15:19:08 +0000";
layers = (
{
layerId = "UUID0";
paths = (
{
closed = 1;
nodes = (
"348 -119 OFFCURVE",
"376 -108 OFFCURVE",
"392 -85 CURVE",
"392 6 LINE",
"373 -22 OFFCURVE",
"346 -36 OFFCURVE",
"309 -36 CURVE SMOOTH",
"288 -36 OFFCURVE",
"268 -27 OFFCURVE",
"251 -10 CURVE SMOOTH",
"216 25 OFFCURVE",
"187 84 OFFCURVE",
"156 152 CURVE SMOOTH",
"124 224 OFFCURVE",
"99 295 OFFCURVE",
"79 364 CURVE",
"488 364 LINE",
"488 444 LINE",
"0 444 LINE",
"0 364 LINE",
"11 328 OFFCURVE",
"21 294 OFFCURVE",
"32 259 CURVE SMOOTH",
"55 190 OFFCURVE",
"90 97 OFFCURVE",
"133 14 CURVE SMOOTH",
"176 -70 OFFCURVE",
"228 -119 OFFCURVE",
"309 -119 CURVE SMOOTH"
);
}
);
vertWidth = 0;
width = 458;
}
);
note = u1827.med;
},
{
glyphname = u182C_1825;
lastChange = "2020-02-16 15:19:08 +0000";
layers = (
{
layerId = "UUID0";
paths = (
{
closed = 1;
nodes = (
"548 40 OFFCURVE",
"581 51 OFFCURVE",
"610 73 CURVE SMOOTH",
"669 117 OFFCURVE",
"704 198 OFFCURVE",
"704 302 CURVE SMOOTH",
"704 430 OFFCURVE",
"681 543 OFFCURVE",
"626 627 CURVE SMOOTH",
"573 711 OFFCURVE",
"486 760 OFFCURVE",
"365 760 CURVE SMOOTH",
"302 760 OFFCURVE",
"245 745 OFFCURVE",
"196 716 CURVE SMOOTH",
"100 656 OFFCURVE",
"45 547 OFFCURVE",
"45 408 CURVE SMOOTH",
"45 291 OFFCURVE",
"86 153 OFFCURVE",
"146 42 CURVE",
"219 73 LINE",
"152 198 OFFCURVE",
"124 313 OFFCURVE",
"124 405 CURVE SMOOTH",
"124 463 OFFCURVE",
"133 511 OFFCURVE",
"152 548 CURVE",
"189 631 OFFCURVE",
"262 677 OFFCURVE",
"365 677 CURVE SMOOTH",
"503 677 OFFCURVE",
"586 599 OFFCURVE",
"614 444 CURVE",
"347 444 LINE",
"323 397 OFFCURVE",
"309 330 OFFCURVE",
"309 275 CURVE SMOOTH",
"309 132 OFFCURVE",
"376 40 OFFCURVE",
"509 40 CURVE SMOOTH"
);
},
{
closed = 1;
nodes = (
"426 123 OFFCURVE",
"388 174 OFFCURVE",
"388 275 CURVE SMOOTH",
"388 311 OFFCURVE",
"395 341 OFFCURVE",
"404 364 CURVE",
"623 364 LINE",
"624 355 OFFCURVE",
"625 344 OFFCURVE",
"625 333 CURVE SMOOTH",
"625 301 LINE SMOOTH",
"625 265 OFFCURVE",
"621 235 OFFCURVE",
"612 212 CURVE",
"595 159 OFFCURVE",
"558 123 OFFCURVE",
"502 123 CURVE SMOOTH"
);
}
);
vertWidth = 0;
width = 749;
}
);
note = u182C_1825;
},
{
glyphname = u182C_1825.ini;
lastChange = "2020-02-16 15:19:08 +0000";
layers = (
{
layerId = "UUID0";
paths = (
{
closed = 1;
nodes = (
"513 40 OFFCURVE",
"546 51 OFFCURVE",
"575 73 CURVE SMOOTH",
"634 117 OFFCURVE",
"669 198 OFFCURVE",
"669 302 CURVE SMOOTH",
"669 334 LINE SMOOTH",
"669 345 OFFCURVE",
"668 355 OFFCURVE",
"667 364 CURVE",
"880 364 LINE",
"880 444 LINE",
"658 444 LINE",
"623 649 OFFCURVE",
"510 760 OFFCURVE",
"330 760 CURVE SMOOTH",
"267 760 OFFCURVE",
"210 745 OFFCURVE",
"161 716 CURVE SMOOTH",
"65 656 OFFCURVE",
"10 547 OFFCURVE",
"10 408 CURVE SMOOTH",
"10 291 OFFCURVE",
"51 153 OFFCURVE",
"111 42 CURVE",
"184 73 LINE",
"117 198 OFFCURVE",
"89 313 OFFCURVE",
"89 405 CURVE SMOOTH",
"89 463 OFFCURVE",
"98 511 OFFCURVE",
"117 548 CURVE",
"154 631 OFFCURVE",
"227 677 OFFCURVE",
"330 677 CURVE SMOOTH",
"468 677 OFFCURVE",
"551 599 OFFCURVE",
"579 444 CURVE",
"312 444 LINE",
"288 397 OFFCURVE",
"274 330 OFFCURVE",
"274 275 CURVE SMOOTH",
"274 132 OFFCURVE",
"341 40 OFFCURVE",
"474 40 CURVE SMOOTH"
);
},
{
closed = 1;
nodes = (
"391 123 OFFCURVE",
"353 174 OFFCURVE",
"353 275 CURVE SMOOTH",
"353 311 OFFCURVE",
"360 341 OFFCURVE",
"369 364 CURVE",
"588 364 LINE",
"589 355 OFFCURVE",
"590 345 OFFCURVE",
"590 334 CURVE SMOOTH",
"590 303 LINE SMOOTH",
"590 266 OFFCURVE",
"586 236 OFFCURVE",
"577 213 CURVE",
"560 158 OFFCURVE",
"523 123 OFFCURVE",
"467 123 CURVE SMOOTH"
);
}
);
vertWidth = 0;
width = 850;
}
);
note = u182C_1825.ini;
},
{
glyphname = u182C_1821.ini;
lastChange = "2020-02-16 15:19:08 +0000";
layers = (
{
layerId = "UUID0";
paths = (
{
closed = 1;
nodes = (
"134 197 OFFCURVE",
"89 292 OFFCURVE",
"89 417 CURVE SMOOTH",
"89 572 OFFCURVE",
"148 644 OFFCURVE",
"240 644 CURVE SMOOTH",
"279 644 OFFCURVE",
"310 632 OFFCURVE",
"331 609 CURVE SMOOTH",
"372 561 OFFCURVE",
"387 474 OFFCURVE",
"395 363 CURVE SMOOTH",
"414 96 LINE",
"480 96 LINE",
"499 364 LINE",
"709 364 LINE",
"709 444 LINE",
"468 444 LINE",
"461 501 OFFCURVE",
"450 550 OFFCURVE",
"433 593 CURVE SMOOTH",
"400 677 OFFCURVE",
"339 727 OFFCURVE",
"239 727 CURVE SMOOTH",
"194 727 OFFCURVE",
"154 714 OFFCURVE",
"119 689 CURVE SMOOTH",
"50 638 OFFCURVE",
"10 544 OFFCURVE",
"10 417 CURVE SMOOTH",
"10 299 OFFCURVE",
"53 174 OFFCURVE",
"139 42 CURVE",
"210 85 LINE"
);
}
);
vertWidth = 0;
width = 679;
}
);
note = u182C_1821.ini;
},
{
glyphname = u182B_1820.ini;
lastChange = "2020-02-16 15:19:08 +0000";
layers = (
{
layerId = "UUID0";
paths = (
{
closed = 1;
nodes = (
"74 69 OFFCURVE",
"127 73 OFFCURVE",
"196 73 CURVE SMOOTH",
"233 73 OFFCURVE",
"267 82 OFFCURVE",
"296 99 CURVE",
"351 134 OFFCURVE",
"383 198 OFFCURVE",
"383 275 CURVE SMOOTH",
"383 332 OFFCURVE",
"376 388 OFFCURVE",
"362 444 CURVE",
"89 444 LINE",
"90 492 OFFCURVE",
"98 535 OFFCURVE",
"113 574 CURVE SMOOTH",
"144 651 OFFCURVE",
"204 699 OFFCURVE",
"295 699 CURVE SMOOTH",
"426 699 OFFCURVE",
"495 587 OFFCURVE",
"511 364 CURVE SMOOTH",
"530 96 LINE",
"596 96 LINE",
"615 364 LINE",
"825 364 LINE",
"825 444 LINE",
"583 444 LINE",
"551 665 OFFCURVE",
"454 782 OFFCURVE",
"295 782 CURVE SMOOTH",
"231 782 OFFCURVE",
"178 766 OFFCURVE",
"136 734 CURVE SMOOTH",
"51 669 OFFCURVE",
"10 552 OFFCURVE",
"10 408 CURVE SMOOTH",
"10 364 LINE",
"294 364 LINE",
"301 344 OFFCURVE",
"304 312 OFFCURVE",
"304 273 CURVE SMOOTH",
"304 201 OFFCURVE",
"263 153 OFFCURVE",
"196 153 CURVE SMOOTH",
"132 153 OFFCURVE",
"70 150 OFFCURVE",
"27 122 CURVE",
"27 42 LINE"
);
}
);
vertWidth = 0;
width = 795;
}
);
note = u182B_1820.ini;
},
{
glyphname = u1839_1823;
lastChange = "2020-02-16 15:19:08 +0000";
layers = (
{
layerId = "UUID0";
paths = (
{
closed = 1;
nodes = (
"263 -147 OFFCURVE",
"250 -107 OFFCURVE",
"250 -63 CURVE SMOOTH",
"250 -24 OFFCURVE",
"257 11 OFFCURVE",
"271 41 CURVE",
"323 48 OFFCURVE",
"372 79 OFFCURVE",
"396 135 CURVE",
"424 71 OFFCURVE",
"474 40 OFFCURVE",
"538 40 CURVE SMOOTH",
"683 40 OFFCURVE",
"752 146 OFFCURVE",
"752 375 CURVE SMOOTH",
"752 453 OFFCURVE",
"739 522 OFFCURVE",
"713 583 CURVE SMOOTH",
"660 706 OFFCURVE",
"557 782 OFFCURVE",
"405 782 CURVE SMOOTH",
"330 782 OFFCURVE",
"265 765 OFFCURVE",
"211 731 CURVE SMOOTH",
"103 662 OFFCURVE",
"45 536 OFFCURVE",
"45 375 CURVE SMOOTH",
"45 174 OFFCURVE",
"97 70 OFFCURVE",
"198 45 CURVE",
"178 10 OFFCURVE",
"168 -26 OFFCURVE",
"168 -64 CURVE SMOOTH",
"168 -113 OFFCURVE",
"178 -152 OFFCURVE",
"198 -182 CURVE",
"288 -182 LINE"
);
},
{
closed = 1;
nodes = (
"146 605 OFFCURVE",
"236 699 OFFCURVE",
"405 699 CURVE SMOOTH",
"455 699 OFFCURVE",
"499 688 OFFCURVE",
"536 667 CURVE SMOOTH",
"609 624 OFFCURVE",
"655 545 OFFCURVE",
"668 444 CURVE",
"127 444 LINE"
);
},
{
closed = 1;
nodes = (
"213 123 OFFCURVE",
"187 133 OFFCURVE",
"170 154 CURVE",
"134 195 OFFCURVE",
"124 271 OFFCURVE",
"124 364 CURVE",
"359 364 LINE",
"359 281 LINE SMOOTH",
"359 189 OFFCURVE",
"320 123 OFFCURVE",
"248 123 CURVE SMOOTH"
);
},
{
closed = 1;
nodes = (
"471 123 OFFCURVE",
"438 177 OFFCURVE",
"438 286 CURVE SMOOTH",
"438 364 LINE",
"673 364 LINE",
"672 305 OFFCURVE",
"667 258 OFFCURVE",
"658 223 CURVE SMOOTH",
"641 152 OFFCURVE",
"605 123 OFFCURVE",
"538 123 CURVE SMOOTH"
);
}
);
vertWidth = 0;
width = 797;
}
);
note = u1839_1823;
},
{
glyphname = u183B_1820.ini;
lastChange = "2020-02-16 15:19:08 +0000";
layers = (
{
layerId = "UUID0";
paths = (
{
closed = 1;
nodes = (
"149 174 OFFCURVE",
"102 263 OFFCURVE",
"91 364 CURVE",
"250 364 LINE",
"250 444 LINE",
"89 444 LINE",
"96 579 OFFCURVE",
"154 644 OFFCURVE",
"239 644 CURVE SMOOTH",
"279 644 OFFCURVE",
"310 632 OFFCURVE",
"331 609 CURVE SMOOTH",
"374 561 OFFCURVE",
"387 473 OFFCURVE",
"395 360 CURVE SMOOTH",
"414 96 LINE",
"480 96 LINE",
"499 364 LINE",
"709 364 LINE",
"709 444 LINE",
"468 444 LINE",
"461 501 OFFCURVE",
"450 550 OFFCURVE",
"433 593 CURVE SMOOTH",
"400 677 OFFCURVE",
"339 727 OFFCURVE",
"239 727 CURVE SMOOTH",
"194 727 OFFCURVE",
"154 715 OFFCURVE",
"119 690 CURVE SMOOTH",
"50 641 OFFCURVE",
"10 545 OFFCURVE",
"10 417 CURVE SMOOTH",
"10 299 OFFCURVE",
"53 174 OFFCURVE",
"139 42 CURVE",
"210 85 LINE"
);
}
);
vertWidth = 0;
width = 679;
}
);
note = u183B_1820.ini;
},
{
glyphname = u1835.med;
lastChange = "2020-02-16 15:19:08 +0000";
layers = (
{
layerId = "UUID0";
paths = (
{
closed = 1;
nodes = (
"43 44 OFFCURVE",
"89 77 OFFCURVE",
"137 103 CURVE SMOOTH",
"245 161 LINE SMOOTH",
"318 200 OFFCURVE",
"351 263 OFFCURVE",
"351 364 CURVE",
"560 364 LINE",
"560 444 LINE",
"0 444 LINE",
"0 364 LINE",
"274 364 LINE",
"274 293 OFFCURVE",
"255 254 OFFCURVE",
"196 222 CURVE SMOOTH",
"114 178 LINE SMOOTH",
"59 149 OFFCURVE",
"23 123 OFFCURVE",
"0 100 CURVE",
"0 5 LINE"
);
}
);
vertWidth = 0;
width = 530;
}
);
note = u1835.med;
},
{
glyphname = u182C_1825.iniV1;
lastChange = "2020-02-16 15:19:08 +0000";
layers = (
{
layerId = "UUID0";
paths = (
{
closed = 1;
nodes = (
"957 100 OFFCURVE",
"902 231 OFFCURVE",
"863 364 CURVE",
"1175 364 LINE",
"1175 444 LINE",
"658 444 LINE",
"623 649 OFFCURVE",
"510 760 OFFCURVE",
"330 760 CURVE SMOOTH",
"267 760 OFFCURVE",
"210 745 OFFCURVE",
"161 716 CURVE SMOOTH",
"65 656 OFFCURVE",
"10 547 OFFCURVE",
"10 408 CURVE SMOOTH",
"10 291 OFFCURVE",
"51 153 OFFCURVE",
"111 42 CURVE",
"184 73 LINE",
"117 198 OFFCURVE",
"89 313 OFFCURVE",
"89 405 CURVE SMOOTH",
"89 463 OFFCURVE",
"98 511 OFFCURVE",
"117 548 CURVE",
"154 631 OFFCURVE",
"227 677 OFFCURVE",
"330 677 CURVE SMOOTH",
"468 677 OFFCURVE",
"551 599 OFFCURVE",
"579 444 CURVE",
"312 444 LINE",
"288 397 OFFCURVE",
"274 330 OFFCURVE",
"274 275 CURVE SMOOTH",
"274 132 OFFCURVE",
"341 40 OFFCURVE",
"474 40 CURVE SMOOTH",
"511 40 OFFCURVE",
"544 51 OFFCURVE",
"573 72 CURVE SMOOTH",
"632 115 OFFCURVE",
"669 194 OFFCURVE",
"669 298 CURVE SMOOTH",
"669 332 LINE SMOOTH",
"669 343 OFFCURVE",
"668 355 OFFCURVE",
"667 364 CURVE",
"784 364 LINE",
"823 220 OFFCURVE",
"880 77 OFFCURVE",
"957 -67 CURVE",
"1030 -31 LINE"
);
},
{
closed = 1;
nodes = (
"391 123 OFFCURVE",
"353 174 OFFCURVE",
"353 275 CURVE SMOOTH",
"353 311 OFFCURVE",
"360 341 OFFCURVE",
"369 364 CURVE",
"588 364 LINE",
"589 355 OFFCURVE",
"590 345 OFFCURVE",
"590 334 CURVE SMOOTH",
"590 303 LINE SMOOTH",
"590 266 OFFCURVE",
"586 236 OFFCURVE",
"577 213 CURVE",
"560 158 OFFCURVE",
"523 123 OFFCURVE",
"467 123 CURVE SMOOTH"
);
}
);
vertWidth = 0;
width = 1145;
}
);
note = u182C_1825.iniV1;
},
{
glyphname = u182B_1823;
lastChange = "2020-02-16 15:19:08 +0000";
layers = (
{
layerId = "UUID0";
paths = (
{
closed = 1;
nodes = (
"650 40 OFFCURVE",
"719 148 OFFCURVE",
"719 375 CURVE SMOOTH",
"719 453 OFFCURVE",
"705 524 OFFCURVE",
"678 589 CURVE SMOOTH",
"622 712 OFFCURVE",
"516 782 OFFCURVE",
"372 782 CURVE SMOOTH",
"306 782 OFFCURVE",
"249 767 OFFCURVE",
"200 736 CURVE SMOOTH",
"103 675 OFFCURVE",
"45 561 OFFCURVE",
"45 409 CURVE SMOOTH",
"45 364 LINE",
"326 364 LINE",
"326 275 LINE SMOOTH",
"326 195 OFFCURVE",
"284 153 OFFCURVE",
"225 153 CURVE SMOOTH",
"162 153 OFFCURVE",
"105 150 OFFCURVE",
"62 122 CURVE",
"62 42 LINE",
"109 69 OFFCURVE",
"160 73 OFFCURVE",
"225 73 CURVE SMOOTH",
"282 73 OFFCURVE",
"328 94 OFFCURVE",
"363 136 CURVE",
"388 72 OFFCURVE",
"436 40 OFFCURVE",
"505 40 CURVE SMOOTH"
);
},
{
closed = 1;
nodes = (
"125 495 OFFCURVE",
"136 539 OFFCURVE",
"157 577 CURVE SMOOTH",
"198 653 OFFCURVE",
"273 699 OFFCURVE",
"372 699 CURVE SMOOTH",
"421 699 OFFCURVE",
"465 688 OFFCURVE",
"502 667 CURVE SMOOTH",
"575 624 OFFCURVE",
"622 545 OFFCURVE",
"635 444 CURVE",
"124 444 LINE"
);
},
{
closed = 1;
nodes = (
"438 123 OFFCURVE",
"405 177 OFFCURVE",
"405 286 CURVE SMOOTH",
"405 364 LINE",
"640 364 LINE",
"639 316 OFFCURVE",
"636 274 OFFCURVE",
"629 238 CURVE SMOOTH",
"616 165 OFFCURVE",
"581 123 OFFCURVE",
"505 123 CURVE SMOOTH"
);
}
);
vertWidth = 0;
width = 764;
}
);
note = u182B_1823;
},
{
glyphname = u182B_1823.ini;
lastChange = "2020-02-16 15:19:08 +0000";
layers = (
{
layerId = "UUID0";
paths = (
{
closed = 1;
nodes = (
"613 40 OFFCURVE",
"681 144 OFFCURVE",
"684 364 CURVE",
"895 364 LINE",
"895 444 LINE",
"680 444 LINE",
"673 512 OFFCURVE",
"655 572 OFFCURVE",
"624 624 CURVE SMOOTH",
"564 725 OFFCURVE",
"465 782 OFFCURVE",
"337 782 CURVE SMOOTH",
"272 782 OFFCURVE",
"216 767 OFFCURVE",
"167 736 CURVE SMOOTH",
"70 675 OFFCURVE",
"10 561 OFFCURVE",
"10 409 CURVE SMOOTH",
"10 364 LINE",
"291 364 LINE",
"291 275 LINE SMOOTH",
"291 195 OFFCURVE",
"249 153 OFFCURVE",
"190 153 CURVE SMOOTH",
"127 153 OFFCURVE",
"70 150 OFFCURVE",
"27 122 CURVE",
"27 42 LINE",
"74 69 OFFCURVE",
"125 73 OFFCURVE",
"190 73 CURVE SMOOTH",
"247 73 OFFCURVE",
"293 94 OFFCURVE",
"328 136 CURVE",
"353 72 OFFCURVE",
"401 40 OFFCURVE",
"470 40 CURVE SMOOTH"
);
},
{
closed = 1;
nodes = (
"90 495 OFFCURVE",
"101 539 OFFCURVE",
"122 577 CURVE SMOOTH",
"163 653 OFFCURVE",
"238 699 OFFCURVE",
"337 699 CURVE SMOOTH",
"386 699 OFFCURVE",
"430 688 OFFCURVE",
"467 667 CURVE SMOOTH",
"540 624 OFFCURVE",
"587 545 OFFCURVE",
"600 444 CURVE",
"89 444 LINE"
);
},
{
closed = 1;
nodes = (
"403 123 OFFCURVE",
"370 177 OFFCURVE",
"370 286 CURVE SMOOTH",
"370 364 LINE",
"605 364 LINE",
"604 316 OFFCURVE",
"600 274 OFFCURVE",
"593 238 CURVE SMOOTH",
"580 166 OFFCURVE",
"546 123 OFFCURVE",
"470 123 CURVE SMOOTH"
);
}
);
vertWidth = 0;
width = 865;
}
);
note = u182B_1823.ini;
},
{
glyphname = u182B_1825.ini;
lastChange = "2020-02-16 15:19:08 +0000";
layers = (
{
layerId = "UUID0";
paths = (
{
closed = 1;
nodes = (
"968 100 OFFCURVE",
"913 231 OFFCURVE",
"874 364 CURVE",
"1186 364 LINE",
"1186 444 LINE",
"680 444 LINE",
"673 513 OFFCURVE",
"654 573 OFFCURVE",
"625 624 CURVE SMOOTH",
"565 725 OFFCURVE",
"467 782 OFFCURVE",
"336 782 CURVE SMOOTH",
"271 782 OFFCURVE",
"214 767 OFFCURVE",
"165 737 CURVE SMOOTH",
"68 676 OFFCURVE",
"10 562 OFFCURVE",
"10 410 CURVE SMOOTH",
"10 364 LINE",
"291 364 LINE",
"291 275 LINE SMOOTH",
"291 195 OFFCURVE",
"249 153 OFFCURVE",
"190 153 CURVE SMOOTH",
"127 153 OFFCURVE",
"70 150 OFFCURVE",
"27 122 CURVE",
"27 42 LINE",
"74 69 OFFCURVE",
"125 73 OFFCURVE",
"190 73 CURVE SMOOTH",
"247 73 OFFCURVE",
"293 94 OFFCURVE",
"328 136 CURVE",
"353 72 OFFCURVE",
"401 40 OFFCURVE",
"470 40 CURVE SMOOTH",
"613 40 OFFCURVE",
"681 144 OFFCURVE",
"684 364 CURVE",
"795 364 LINE",
"834 221 OFFCURVE",
"891 78 OFFCURVE",
"968 -67 CURVE",
"1041 -31 LINE"
);
},
{
closed = 1;
nodes = (
"90 495 OFFCURVE",
"101 539 OFFCURVE",
"122 577 CURVE SMOOTH",
"162 653 OFFCURVE",
"238 699 OFFCURVE",
"337 699 CURVE SMOOTH",
"386 699 OFFCURVE",
"430 688 OFFCURVE",
"467 667 CURVE SMOOTH",
"540 624 OFFCURVE",
"587 545 OFFCURVE",
"600 444 CURVE",
"89 444 LINE"
);
},
{
closed = 1;
nodes = (
"403 123 OFFCURVE",
"370 177 OFFCURVE",
"370 286 CURVE SMOOTH",
"370 364 LINE",
"605 364 LINE",
"604 316 OFFCURVE",
"601 274 OFFCURVE",
"594 238 CURVE SMOOTH",
"581 165 OFFCURVE",
"546 123 OFFCURVE",
"470 123 CURVE SMOOTH"
);
}
);
vertWidth = 0;
width = 1156;
}
);
note = u182B_1825.ini;
},
{
glyphname = u182B_1822.ini;
lastChange = "2020-02-16 15:19:08 +0000";
layers = (
{
layerId = "UUID0";
paths = (
{
closed = 1;
nodes = (
"673 100 OFFCURVE",
"612 235 OFFCURVE",
"585 364 CURVE",
"890 364 LINE",
"890 444 LINE",
"570 444 LINE",
"559 511 OFFCURVE",
"543 569 OFFCURVE",
"520 621 CURVE SMOOTH",
"476 722 OFFCURVE",
"403 782 OFFCURVE",
"284 782 CURVE SMOOTH",
"222 782 OFFCURVE",
"171 766 OFFCURVE",
"130 733 CURVE SMOOTH",
"49 668 OFFCURVE",
"10 551 OFFCURVE",
"10 408 CURVE SMOOTH",
"10 364 LINE",
"294 364 LINE",
"301 348 OFFCURVE",
"304 318 OFFCURVE",
"304 275 CURVE SMOOTH",
"304 202 OFFCURVE",
"263 153 OFFCURVE",
"196 153 CURVE SMOOTH",
"131 153 OFFCURVE",
"70 150 OFFCURVE",
"27 122 CURVE",
"27 42 LINE",
"74 69 OFFCURVE",
"127 73 OFFCURVE",
"196 73 CURVE SMOOTH",
"233 73 OFFCURVE",
"267 82 OFFCURVE",
"296 99 CURVE",
"351 134 OFFCURVE",
"383 198 OFFCURVE",
"383 275 CURVE SMOOTH",
"383 332 OFFCURVE",
"376 388 OFFCURVE",
"362 444 CURVE",
"89 444 LINE",
"90 491 OFFCURVE",
"97 534 OFFCURVE",
"112 573 CURVE SMOOTH",
"140 649 OFFCURVE",
"197 699 OFFCURVE",
"284 699 CURVE SMOOTH",
"400 699 OFFCURVE",
"464 602 OFFCURVE",
"495 418 CURVE SMOOTH",
"511 325 OFFCURVE",
"530 249 OFFCURVE",
"558 176 CURVE SMOOTH",
"586 103 OFFCURVE",
"623 28 OFFCURVE",
"672 -67 CURVE",
"745 -31 LINE"
);
}
);
vertWidth = 0;
width = 860;
}
);
note = u182B_1822.ini;
},
{
glyphname = u182C_1827.ini;
lastChange = "2020-02-16 15:19:08 +0000";
layers = (
{
layerId = "UUID0";
paths = (
{
closed = 1;
nodes = (
"742 -119 OFFCURVE",
"769 -108 OFFCURVE",
"784 -85 CURVE",
"784 6 LINE",
"766 -22 OFFCURVE",
"739 -36 OFFCURVE",
"702 -36 CURVE SMOOTH",
"683 -36 OFFCURVE",
"665 -29 OFFCURVE",
"649 -15 CURVE SMOOTH",
"616 13 OFFCURVE",
"589 61 OFFCURVE",
"564 117 CURVE SMOOTH",
"531 190 OFFCURVE",
"507 271 OFFCURVE",
"495 364 CURVE",
"880 364 LINE",
"880 444 LINE",
"486 444 LINE",
"479 505 OFFCURVE",
"467 560 OFFCURVE",
"450 607 CURVE SMOOTH",
"417 702 OFFCURVE",
"356 760 OFFCURVE",
"252 760 CURVE SMOOTH",
"197 760 OFFCURVE",
"153 745 OFFCURVE",
"118 714 CURVE SMOOTH",
"46 653 OFFCURVE",
"10 544 OFFCURVE",
"10 417 CURVE SMOOTH",
"10 299 OFFCURVE",
"53 174 OFFCURVE",
"139 42 CURVE",
"210 85 LINE",
"134 197 OFFCURVE",
"89 292 OFFCURVE",
"89 417 CURVE SMOOTH",
"89 460 OFFCURVE",
"95 503 OFFCURVE",
"106 546 CURVE SMOOTH",
"129 625 OFFCURVE",
"175 677 OFFCURVE",
"252 677 CURVE SMOOTH",
"289 677 OFFCURVE",
"318 666 OFFCURVE",
"339 644 CURVE SMOOTH",
"380 600 OFFCURVE",
"399 519 OFFCURVE",
"410 418 CURVE SMOOTH",
"425 280 OFFCURVE",
"459 154 OFFCURVE",
"512 41 CURVE SMOOTH",
"559 -58 OFFCURVE",
"609 -119 OFFCURVE",
"702 -119 CURVE SMOOTH"
);
}
);
vertWidth = 0;
width = 850;
}
);
note = u182C_1827.ini;
},
{
glyphname = u182C_1827.iniV1;
lastChange = "2020-02-16 15:19:08 +0000";
layers = (
{
layerId = "UUID0";
paths = (
{
closed = 1;
nodes = (
"742 -119 OFFCURVE",
"769 -108 OFFCURVE",
"784 -85 CURVE",
"784 6 LINE",
"766 -22 OFFCURVE",
"739 -36 OFFCURVE",
"702 -36 CURVE SMOOTH",
"683 -36 OFFCURVE",
"665 -29 OFFCURVE",
"649 -15 CURVE SMOOTH",
"616 13 OFFCURVE",
"589 61 OFFCURVE",
"564 117 CURVE SMOOTH",
"531 190 OFFCURVE",
"507 271 OFFCURVE",
"495 364 CURVE",
"880 364 LINE",
"880 444 LINE",
"486 444 LINE",
"479 505 OFFCURVE",
"467 560 OFFCURVE",
"450 607 CURVE SMOOTH",
"417 702 OFFCURVE",
"356 760 OFFCURVE",
"252 760 CURVE SMOOTH",
"197 760 OFFCURVE",
"153 745 OFFCURVE",
"118 714 CURVE SMOOTH",
"46 653 OFFCURVE",
"10 544 OFFCURVE",
"10 417 CURVE SMOOTH",
"10 299 OFFCURVE",
"53 174 OFFCURVE",
"139 42 CURVE",
"210 85 LINE",
"134 197 OFFCURVE",
"89 292 OFFCURVE",
"89 417 CURVE SMOOTH",
"89 460 OFFCURVE",
"95 503 OFFCURVE",
"106 546 CURVE SMOOTH",
"129 625 OFFCURVE",
"175 677 OFFCURVE",
"252 677 CURVE SMOOTH",
"289 677 OFFCURVE",
"318 666 OFFCURVE",
"339 644 CURVE SMOOTH",
"380 600 OFFCURVE",
"399 519 OFFCURVE",
"410 418 CURVE SMOOTH",
"425 280 OFFCURVE",
"459 154 OFFCURVE",
"512 41 CURVE SMOOTH",
"559 -58 OFFCURVE",
"609 -119 OFFCURVE",
"702 -119 CURVE SMOOTH"
);
},
{
closed = 1;
nodes = (
"160 -161 OFFCURVE",
"206 -123 OFFCURVE",
"266 -80 CURVE",
"205 -11 LINE",
"166 -50 OFFCURVE",
"125 -98 OFFCURVE",
"84 -157 CURVE",
"127 -196 LINE"
);
},
{
closed = 1;
nodes = (
"375 -161 OFFCURVE",
"421 -123 OFFCURVE",
"481 -80 CURVE",
"420 -11 LINE",
"381 -50 OFFCURVE",
"340 -98 OFFCURVE",
"299 -157 CURVE",
"342 -196 LINE"
);
}
);
vertWidth = 0;
width = 850;
}
);
note = u182C_1827.iniV1;
},
{
glyphname = u182B_1827.ini;
lastChange = "2020-02-16 15:19:08 +0000";
layers = (
{
layerId = "UUID0";
paths = (
{
closed = 1;
nodes = (
"841 -119 OFFCURVE",
"868 -108 OFFCURVE",
"883 -85 CURVE",
"883 6 LINE",
"864 -22 OFFCURVE",
"837 -36 OFFCURVE",
"801 -36 CURVE SMOOTH",
"752 -36 OFFCURVE",
"712 13 OFFCURVE",
"668 106 CURVE SMOOTH",
"624 199 OFFCURVE",
"599 287 OFFCURVE",
"584 364 CURVE",
"979 364 LINE",
"979 444 LINE",
"569 444 LINE",
"557 511 OFFCURVE",
"540 570 OFFCURVE",
"518 621 CURVE SMOOTH",
"474 722 OFFCURVE",
"403 782 OFFCURVE",
"284 782 CURVE SMOOTH",
"222 782 OFFCURVE",
"171 766 OFFCURVE",
"130 733 CURVE SMOOTH",
"49 668 OFFCURVE",
"10 551 OFFCURVE",
"10 408 CURVE SMOOTH",
"10 364 LINE",
"294 364 LINE",
"301 348 OFFCURVE",
"304 318 OFFCURVE",
"304 275 CURVE SMOOTH",
"304 202 OFFCURVE",
"263 153 OFFCURVE",
"196 153 CURVE SMOOTH",
"131 153 OFFCURVE",
"70 150 OFFCURVE",
"27 122 CURVE",
"27 42 LINE",
"74 69 OFFCURVE",
"127 73 OFFCURVE",
"196 73 CURVE SMOOTH",
"233 73 OFFCURVE",
"267 82 OFFCURVE",
"296 99 CURVE",
"351 134 OFFCURVE",
"383 198 OFFCURVE",
"383 275 CURVE SMOOTH",
"383 332 OFFCURVE",
"376 388 OFFCURVE",
"362 444 CURVE",
"89 444 LINE",
"90 491 OFFCURVE",
"97 534 OFFCURVE",
"112 573 CURVE SMOOTH",
"140 649 OFFCURVE",
"197 699 OFFCURVE",
"284 699 CURVE SMOOTH",
"327 699 OFFCURVE",
"364 687 OFFCURVE",
"393 664 CURVE",
"448 616 OFFCURVE",
"476 530 OFFCURVE",
"495 418 CURVE SMOOTH",
"518 279 OFFCURVE",
"557 153 OFFCURVE",
"610 41 CURVE SMOOTH",
"657 -56 OFFCURVE",
"708 -119 OFFCURVE",
"801 -119 CURVE SMOOTH"
);
}
);
vertWidth = 0;
width = 949;
}
);
note = u182B_1827.ini;
},
{
glyphname = u182A_1827.ini;
lastChange = "2020-02-16 15:19:08 +0000";
layers = (
{
layerId = "UUID0";
paths = (
{
closed = 1;
nodes = (
"863 -119 OFFCURVE",
"890 -108 OFFCURVE",
"905 -85 CURVE",
"905 6 LINE",
"886 -22 OFFCURVE",
"858 -36 OFFCURVE",
"820 -36 CURVE SMOOTH",
"801 -36 OFFCURVE",
"783 -27 OFFCURVE",
"765 -9 CURVE SMOOTH",
"728 27 OFFCURVE",
"694 89 OFFCURVE",
"666 161 CURVE SMOOTH",
"638 232 OFFCURVE",
"617 305 OFFCURVE",
"606 364 CURVE",
"1001 364 LINE",
"1001 444 LINE",
"591 444 LINE",
"579 513 OFFCURVE",
"562 573 OFFCURVE",
"539 622 CURVE SMOOTH",
"494 723 OFFCURVE",
"416 782 OFFCURVE",
"295 782 CURVE SMOOTH",
"231 782 OFFCURVE",
"178 766 OFFCURVE",
"136 734 CURVE SMOOTH",
"51 669 OFFCURVE",
"10 552 OFFCURVE",
"10 408 CURVE SMOOTH",
"10 163 OFFCURVE",
"85 40 OFFCURVE",
"236 40 CURVE SMOOTH",
"273 40 OFFCURVE",
"304 50 OFFCURVE",
"331 70 CURVE SMOOTH",
"386 110 OFFCURVE",
"416 184 OFFCURVE",
"416 275 CURVE SMOOTH",
"416 288 OFFCURVE",
"415 305 OFFCURVE",
"413 328 CURVE SMOOTH",
"409 372 OFFCURVE",
"401 421 OFFCURVE",
"393 444 CURVE",
"89 444 LINE",
"90 492 OFFCURVE",
"98 535 OFFCURVE",
"113 574 CURVE SMOOTH",
"144 651 OFFCURVE",
"204 699 OFFCURVE",
"295 699 CURVE SMOOTH",
"342 699 OFFCURVE",
"380 688 OFFCURVE",
"409 665 CURVE SMOOTH",
"468 620 OFFCURVE",
"498 533 OFFCURVE",
"517 418 CURVE SMOOTH",
"541 279 OFFCURVE",
"579 153 OFFCURVE",
"632 41 CURVE SMOOTH",
"679 -56 OFFCURVE",
"730 -119 OFFCURVE",
"823 -119 CURVE SMOOTH"
);
},
{
closed = 1;
nodes = (
"138 123 OFFCURVE",
"91 203 OFFCURVE",
"89 364 CURVE",
"327 364 LINE",
"334 350 OFFCURVE",
"337 320 OFFCURVE",
"337 275 CURVE SMOOTH",
"337 190 OFFCURVE",
"302 123 OFFCURVE",
"229 123 CURVE SMOOTH"
);
}
);
vertWidth = 0;
width = 971;
}
);
note = u182A_1827.ini;
},
{
glyphname = u1802;
lastChange = "2020-02-16 15:40:40 +0000";
layers = (
{
layerId = "UUID0";
paths = (
{
closed = 1;
nodes = (
"226 339 OFFCURVE",
"254 359 OFFCURVE",
"254 407 CURVE SMOOTH",
"254 456 OFFCURVE",
"226 474 OFFCURVE",
"191 474 CURVE SMOOTH",
"156 474 OFFCURVE",
"130 456 OFFCURVE",
"130 407 CURVE SMOOTH",
"130 359 OFFCURVE",
"156 339 OFFCURVE",
"191 339 CURVE SMOOTH"
);
}
);
vertWidth = 0;
width = 354;
}
);
note = u1802;
unicode = 1802;
},
{
glyphname = u1839_1820.ini;
lastChange = "2020-02-16 15:19:08 +0000";
layers = (
{
layerId = "UUID0";
paths = (
{
closed = 1;
nodes = (
"229 -147 OFFCURVE",
"216 -107 OFFCURVE",
"216 -63 CURVE SMOOTH",
"216 -30 OFFCURVE",
"223 4 OFFCURVE",
"236 40 CURVE",
"245 40 LINE SMOOTH",
"274 40 OFFCURVE",
"301 49 OFFCURVE",
"326 68 CURVE",
"378 104 OFFCURVE",
"416 175 OFFCURVE",
"416 272 CURVE SMOOTH",
"416 291 OFFCURVE",
"413 324 OFFCURVE",
"409 359 CURVE SMOOTH",
"405 394 OFFCURVE",
"400 427 OFFCURVE",
"393 444 CURVE",
"89 444 LINE",
"90 493 OFFCURVE",
"99 537 OFFCURVE",
"116 576 CURVE SMOOTH",
"151 652 OFFCURVE",
"218 699 OFFCURVE",
"317 699 CURVE SMOOTH",
"458 699 OFFCURVE",
"528 587 OFFCURVE",
"544 364 CURVE SMOOTH",
"563 96 LINE",
"629 96 LINE",
"648 364 LINE",
"858 364 LINE",
"858 444 LINE",
"617 444 LINE",
"608 509 OFFCURVE",
"591 567 OFFCURVE",
"568 617 CURVE SMOOTH",
"520 718 OFFCURVE",
"440 782 OFFCURVE",
"317 782 CURVE SMOOTH",
"250 782 OFFCURVE",
"193 766 OFFCURVE",
"148 735 CURVE SMOOTH",
"56 671 OFFCURVE",
"10 556 OFFCURVE",
"10 408 CURVE SMOOTH",
"10 203 OFFCURVE",
"62 83 OFFCURVE",
"166 50 CURVE",
"145 13 OFFCURVE",
"134 -25 OFFCURVE",
"134 -64 CURVE SMOOTH",
"134 -113 OFFCURVE",
"144 -152 OFFCURVE",
"164 -182 CURVE",
"254 -182 LINE"
);
},
{
closed = 1;
nodes = (
"138 123 OFFCURVE",
"91 203 OFFCURVE",
"89 364 CURVE",
"327 364 LINE",
"334 345 OFFCURVE",
"337 314 OFFCURVE",
"337 274 CURVE SMOOTH",
"337 189 OFFCURVE",
"301 123 OFFCURVE",
"229 123 CURVE SMOOTH"
);
}
);
vertWidth = 0;
width = 828;
}
);
note = u1839_1820.ini;
},
{
glyphname = u1839_1822.ini;
lastChange = "2020-02-16 15:19:08 +0000";
layers = (
{
layerId = "UUID0";
paths = (
{
closed = 1;
nodes = (
"229 -147 OFFCURVE",
"216 -107 OFFCURVE",
"216 -63 CURVE SMOOTH",
"216 -30 OFFCURVE",
"223 4 OFFCURVE",
"236 40 CURVE",
"241 40 LINE SMOOTH",
"274 40 OFFCURVE",
"304 50 OFFCURVE",
"331 70 CURVE SMOOTH",
"383 110 OFFCURVE",
"416 183 OFFCURVE",
"416 274 CURVE SMOOTH",
"416 287 OFFCURVE",
"415 304 OFFCURVE",
"413 327 CURVE SMOOTH",
"409 371 OFFCURVE",
"401 421 OFFCURVE",
"393 444 CURVE",
"89 444 LINE",
"90 492 OFFCURVE",
"98 535 OFFCURVE",
"113 574 CURVE SMOOTH",
"144 651 OFFCURVE",
"204 699 OFFCURVE",
"295 699 CURVE SMOOTH",
"342 699 OFFCURVE",
"380 688 OFFCURVE",
"409 665 CURVE SMOOTH",
"468 620 OFFCURVE",
"498 533 OFFCURVE",
"517 418 CURVE SMOOTH",
"532 327 OFFCURVE",
"554 247 OFFCURVE",
"581 176 CURVE SMOOTH",
"609 103 OFFCURVE",
"645 28 OFFCURVE",
"694 -67 CURVE",
"767 -31 LINE",
"687 113 OFFCURVE",
"634 239 OFFCURVE",
"607 364 CURVE",
"912 364 LINE",
"912 444 LINE",
"592 444 LINE",
"579 513 OFFCURVE",
"562 572 OFFCURVE",
"539 623 CURVE SMOOTH",
"494 724 OFFCURVE",
"418 782 OFFCURVE",
"295 782 CURVE SMOOTH",
"231 782 OFFCURVE",
"178 766 OFFCURVE",
"136 734 CURVE SMOOTH",
"51 669 OFFCURVE",
"10 552 OFFCURVE",
"10 408 CURVE SMOOTH",
"10 203 OFFCURVE",
"62 83 OFFCURVE",
"166 50 CURVE",
"145 13 OFFCURVE",
"134 -25 OFFCURVE",
"134 -64 CURVE SMOOTH",
"134 -113 OFFCURVE",
"144 -152 OFFCURVE",
"164 -182 CURVE",
"254 -182 LINE"
);
},
{
closed = 1;
nodes = (
"138 123 OFFCURVE",
"91 203 OFFCURVE",
"89 364 CURVE",
"327 364 LINE",
"334 350 OFFCURVE",
"337 320 OFFCURVE",
"337 275 CURVE SMOOTH",
"337 190 OFFCURVE",
"302 123 OFFCURVE",
"229 123 CURVE SMOOTH"
);
}
);
vertWidth = 0;
width = 882;
}
);
note = u1839_1822.ini;
},
{
glyphname = u183A;
lastChange = "2020-02-16 15:19:08 +0000";
layers = (
{
layerId = "UUID0";
paths = (
{
closed = 1;
nodes = (
"181 225 OFFCURVE",
"124 330 OFFCURVE",
"124 419 CURVE SMOOTH",
"124 462 OFFCURVE",
"129 500 OFFCURVE",
"139 534 CURVE SMOOTH",
"159 601 OFFCURVE",
"202 644 OFFCURVE",
"274 644 CURVE SMOOTH",
"363 644 OFFCURVE",
"415 573 OFFCURVE",
"427 409 CURVE",
"506 419 LINE",
"502 472 OFFCURVE",
"491 524 OFFCURVE",
"474 575 CURVE",
"439 667 OFFCURVE",
"375 727 OFFCURVE",
"274 727 CURVE SMOOTH",
"222 727 OFFCURVE",
"180 714 OFFCURVE",
"147 687 CURVE SMOOTH",
"79 634 OFFCURVE",
"45 536 OFFCURVE",
"45 419 CURVE SMOOTH",
"45 96 LINE",
"111 96 LINE",
"119 215 LINE",
"146 158 OFFCURVE",
"187 98 OFFCURVE",
"244 35 CURVE",
"306 90 LINE"
);
}
);
vertWidth = 0;
width = 551;
}
);
note = u183A;
unicode = 183A;
},
{
glyphname = u183A.ini;
lastChange = "2020-02-16 15:19:08 +0000";
layers = (
{
layerId = "UUID0";
paths = (
{
closed = 1;
nodes = (
"146 225 OFFCURVE",
"89 330 OFFCURVE",
"89 419 CURVE SMOOTH",
"89 462 OFFCURVE",
"94 500 OFFCURVE",
"104 534 CURVE SMOOTH",
"124 601 OFFCURVE",
"167 644 OFFCURVE",
"239 644 CURVE SMOOTH",
"279 644 OFFCURVE",
"310 632 OFFCURVE",
"331 609 CURVE SMOOTH",
"374 561 OFFCURVE",
"387 475 OFFCURVE",
"394 364 CURVE",
"468 364 LINE",
"459 611 OFFCURVE",
"387 727 OFFCURVE",
"239 727 CURVE SMOOTH",
"187 727 OFFCURVE",
"145 714 OFFCURVE",
"112 687 CURVE SMOOTH",
"44 634 OFFCURVE",
"10 536 OFFCURVE",
"10 419 CURVE SMOOTH",
"10 96 LINE",
"76 96 LINE",
"84 215 LINE",
"111 158 OFFCURVE",
"152 98 OFFCURVE",
"209 35 CURVE",
"271 90 LINE"
);
}
);
vertWidth = 0;
width = 394;
}
);
note = u183A.ini;
},
{
glyphname = u1836;
lastChange = "2020-02-16 15:19:08 +0000";
layers = (
{
layerId = "UUID0";
paths = (
{
closed = 1;
nodes = (
"128 -116 OFFCURVE",
"133 -112 OFFCURVE",
"139 -108 CURVE",
"146 -104 OFFCURVE",
"152 -99 OFFCURVE",
"159 -94 CURVE SMOOTH",
"174 -84 OFFCURVE",
"190 -73 OFFCURVE",
"207 -61 CURVE SMOOTH",
"242 -38 OFFCURVE",
"276 -16 OFFCURVE",
"293 -7 CURVE",
"266 44 OFFCURVE",
"234 110 OFFCURVE",
"206 178 CURVE SMOOTH",
"177 246 OFFCURVE",
"151 313 OFFCURVE",
"138 364 CURVE",
"451 364 LINE",
"451 444 LINE",
"45 444 LINE",
"52 399 OFFCURVE",
"64 353 OFFCURVE",
"77 305 CURVE SMOOTH",
"105 208 OFFCURVE",
"145 110 OFFCURVE",
"186 25 CURVE",
"151 -4 OFFCURVE",
"119 -35 OFFCURVE",
"87 -70 CURVE",
"125 -119 LINE"
);
}
);
vertWidth = 0;
width = 496;
}
);
note = u1836;
unicode = 1836;
},
{
glyphname = u1836.med;
lastChange = "2020-02-16 15:19:08 +0000";
layers = (
{
layerId = "UUID0";
paths = (
{
closed = 1;
nodes = (
"68 -116 OFFCURVE",
"73 -112 OFFCURVE",
"79 -108 CURVE",
"86 -104 OFFCURVE",
"92 -99 OFFCURVE",
"99 -94 CURVE SMOOTH",
"114 -84 OFFCURVE",
"130 -73 OFFCURVE",
"147 -61 CURVE SMOOTH",
"182 -38 OFFCURVE",
"216 -16 OFFCURVE",
"233 -7 CURVE",
"206 44 OFFCURVE",
"174 110 OFFCURVE",
"146 178 CURVE SMOOTH",
"117 246 OFFCURVE",
"91 313 OFFCURVE",
"78 364 CURVE",
"391 364 LINE",
"391 444 LINE",
"0 444 LINE",
"0 364 LINE",
"29 252 OFFCURVE",
"71 139 OFFCURVE",
"126 25 CURVE",
"91 -4 OFFCURVE",
"59 -35 OFFCURVE",
"27 -70 CURVE",
"65 -119 LINE"
);
}
);
vertWidth = 0;
width = 361;
}
);
note = u1836.med;
},
{
glyphname = u182C_1821.iniV1;
lastChange = "2020-02-16 15:19:08 +0000";
layers = (
{
layerId = "UUID0";
paths = (
{
closed = 1;
nodes = (
"134 197 OFFCURVE",
"89 292 OFFCURVE",
"89 417 CURVE SMOOTH",
"89 572 OFFCURVE",
"148 644 OFFCURVE",
"240 644 CURVE SMOOTH",
"279 644 OFFCURVE",
"310 632 OFFCURVE",
"331 609 CURVE SMOOTH",
"372 561 OFFCURVE",
"387 474 OFFCURVE",
"395 363 CURVE SMOOTH",
"414 96 LINE",
"480 96 LINE",
"499 364 LINE",
"709 364 LINE",
"709 444 LINE",
"468 444 LINE",
"461 501 OFFCURVE",
"450 550 OFFCURVE",
"433 593 CURVE SMOOTH",
"400 677 OFFCURVE",
"339 727 OFFCURVE",
"239 727 CURVE SMOOTH",
"194 727 OFFCURVE",
"154 714 OFFCURVE",
"119 689 CURVE SMOOTH",
"50 638 OFFCURVE",
"10 544 OFFCURVE",
"10 417 CURVE SMOOTH",
"10 299 OFFCURVE",
"53 174 OFFCURVE",
"139 42 CURVE",
"210 85 LINE"
);
},
{
closed = 1;
nodes = (
"182 -161 OFFCURVE",
"228 -123 OFFCURVE",
"288 -80 CURVE",
"227 -11 LINE",
"188 -50 OFFCURVE",
"147 -98 OFFCURVE",
"106 -157 CURVE",
"149 -196 LINE"
);
},
{
closed = 1;
nodes = (
"397 -161 OFFCURVE",
"443 -123 OFFCURVE",
"503 -80 CURVE",
"442 -11 LINE",
"403 -50 OFFCURVE",
"362 -98 OFFCURVE",
"321 -157 CURVE",
"364 -196 LINE"
);
}
);
vertWidth = 0;
width = 679;
}
);
note = u182C_1821.iniV1;
},
{
glyphname = u182C_1821.medV1;
lastChange = "2020-02-16 15:19:08 +0000";
layers = (
{
layerId = "UUID0";
paths = (
{
closed = 1;
nodes = (
"124 197 OFFCURVE",
"79 292 OFFCURVE",
"79 417 CURVE SMOOTH",
"79 572 OFFCURVE",
"138 644 OFFCURVE",
"230 644 CURVE SMOOTH",
"269 644 OFFCURVE",
"300 632 OFFCURVE",
"321 609 CURVE SMOOTH",
"362 561 OFFCURVE",
"377 474 OFFCURVE",
"385 363 CURVE SMOOTH",
"404 96 LINE",
"470 96 LINE",
"489 364 LINE",
"699 364 LINE",
"699 444 LINE",
"458 444 LINE",
"451 501 OFFCURVE",
"440 550 OFFCURVE",
"423 593 CURVE SMOOTH",
"390 677 OFFCURVE",
"329 727 OFFCURVE",
"229 727 CURVE SMOOTH",
"184 727 OFFCURVE",
"144 714 OFFCURVE",
"109 689 CURVE SMOOTH",
"40 638 OFFCURVE",
"0 544 OFFCURVE",
"0 417 CURVE SMOOTH",
"0 299 OFFCURVE",
"43 174 OFFCURVE",
"129 42 CURVE",
"200 85 LINE"
);
},
{
closed = 1;
nodes = (
"172 -161 OFFCURVE",
"218 -123 OFFCURVE",
"278 -80 CURVE",
"217 -11 LINE",
"178 -50 OFFCURVE",
"137 -98 OFFCURVE",
"96 -157 CURVE",
"139 -196 LINE"
);
},
{
closed = 1;
nodes = (
"386 -161 OFFCURVE",
"432 -123 OFFCURVE",
"492 -80 CURVE",
"431 -11 LINE",
"392 -50 OFFCURVE",
"351 -98 OFFCURVE",
"310 -157 CURVE",
"353 -196 LINE"
);
}
);
vertWidth = 0;
width = 669;
}
);
note = u182C_1821.medV1;
},
{
glyphname = u182C_1827.medV1;
lastChange = "2020-02-16 15:19:08 +0000";
layers = (
{
layerId = "UUID0";
paths = (
{
closed = 1;
nodes = (
"732 -119 OFFCURVE",
"759 -108 OFFCURVE",
"774 -85 CURVE",
"774 6 LINE",
"756 -22 OFFCURVE",
"729 -36 OFFCURVE",
"692 -36 CURVE SMOOTH",
"673 -36 OFFCURVE",
"655 -29 OFFCURVE",
"639 -15 CURVE SMOOTH",
"606 13 OFFCURVE",
"579 61 OFFCURVE",
"554 117 CURVE SMOOTH",
"521 190 OFFCURVE",
"497 271 OFFCURVE",
"485 364 CURVE",
"870 364 LINE",
"870 444 LINE",
"476 444 LINE",
"469 505 OFFCURVE",
"457 560 OFFCURVE",
"440 607 CURVE SMOOTH",
"407 702 OFFCURVE",
"346 760 OFFCURVE",
"242 760 CURVE SMOOTH",
"187 760 OFFCURVE",
"143 745 OFFCURVE",
"108 714 CURVE SMOOTH",
"36 653 OFFCURVE",
"0 544 OFFCURVE",
"0 417 CURVE SMOOTH",
"0 299 OFFCURVE",
"43 174 OFFCURVE",
"129 42 CURVE",
"200 85 LINE",
"124 197 OFFCURVE",
"79 292 OFFCURVE",
"79 417 CURVE SMOOTH",
"79 460 OFFCURVE",
"85 503 OFFCURVE",
"96 546 CURVE SMOOTH",
"119 625 OFFCURVE",
"165 677 OFFCURVE",
"242 677 CURVE SMOOTH",
"279 677 OFFCURVE",
"308 666 OFFCURVE",
"329 644 CURVE SMOOTH",
"370 600 OFFCURVE",
"389 519 OFFCURVE",
"400 418 CURVE SMOOTH",
"415 280 OFFCURVE",
"449 154 OFFCURVE",
"502 41 CURVE SMOOTH",
"549 -58 OFFCURVE",
"599 -119 OFFCURVE",
"692 -119 CURVE SMOOTH"
);
},
{
closed = 1;
nodes = (
"150 -161 OFFCURVE",
"196 -123 OFFCURVE",
"256 -80 CURVE",
"195 -11 LINE",
"156 -50 OFFCURVE",
"115 -98 OFFCURVE",
"74 -157 CURVE",
"117 -196 LINE"
);
},
{
closed = 1;
nodes = (
"364 -161 OFFCURVE",
"410 -123 OFFCURVE",
"470 -80 CURVE",
"409 -11 LINE",
"370 -50 OFFCURVE",
"329 -98 OFFCURVE",
"288 -157 CURVE",
"331 -196 LINE"
);
}
);
vertWidth = 0;
width = 840;
}
);
note = u182C_1827.medV1;
},
{
glyphname = u1842;
lastChange = "2020-02-16 15:19:08 +0000";
layers = (
{
layerId = "UUID0";
paths = (
{
closed = 1;
nodes = (
"369 40 OFFCURVE",
"440 124 OFFCURVE",
"440 249 CURVE SMOOTH",
"440 290 OFFCURVE",
"433 328 OFFCURVE",
"420 364 CURVE",
"549 364 LINE",
"536 326 OFFCURVE",
"529 288 OFFCURVE",
"529 249 CURVE SMOOTH",
"529 116 OFFCURVE",
"598 40 OFFCURVE",
"726 40 CURVE SMOOTH",
"853 40 OFFCURVE",
"924 122 OFFCURVE",
"924 249 CURVE SMOOTH",
"924 297 OFFCURVE",
"917 335 OFFCURVE",
"902 364 CURVE",
"1132 364 LINE",
"1132 444 LINE",
"90 444 LINE",
"59 392 OFFCURVE",
"45 336 OFFCURVE",
"45 260 CURVE SMOOTH",
"45 123 OFFCURVE",
"111 40 OFFCURVE",
"242 40 CURVE SMOOTH"
);
},
{
closed = 1;
nodes = (
"163 123 OFFCURVE",
"124 169 OFFCURVE",
"124 262 CURVE SMOOTH",
"124 297 OFFCURVE",
"131 331 OFFCURVE",
"144 364 CURVE",
"341 364 LINE",
"354 328 OFFCURVE",
"361 290 OFFCURVE",
"361 251 CURVE SMOOTH",
"361 166 OFFCURVE",
"315 123 OFFCURVE",
"242 123 CURVE SMOOTH"
);
},
{
closed = 1;
nodes = (
"647 123 OFFCURVE",
"608 166 OFFCURVE",
"608 251 CURVE SMOOTH",
"608 290 OFFCURVE",
"615 327 OFFCURVE",
"628 364 CURVE",
"825 364 LINE",
"838 327 OFFCURVE",
"845 290 OFFCURVE",
"845 251 CURVE SMOOTH",
"845 166 OFFCURVE",
"799 123 OFFCURVE",
"726 123 CURVE SMOOTH"
);
}
);
vertWidth = 0;
width = 1177;
}
);
note = u1842;
unicode = 1842;
},
{
glyphname = u1842.fin;
lastChange = "2020-02-16 15:19:08 +0000";
layers = (
{
layerId = "UUID0";
paths = (
{
closed = 1;
nodes = (
"324 40 OFFCURVE",
"395 124 OFFCURVE",
"395 249 CURVE SMOOTH",
"395 297 OFFCURVE",
"388 335 OFFCURVE",
"373 364 CURVE",
"504 364 LINE",
"491 326 OFFCURVE",
"484 288 OFFCURVE",
"484 249 CURVE SMOOTH",
"484 116 OFFCURVE",
"553 40 OFFCURVE",
"681 40 CURVE SMOOTH",
"808 40 OFFCURVE",
"879 122 OFFCURVE",
"879 249 CURVE SMOOTH",
"879 297 OFFCURVE",
"872 335 OFFCURVE",
"857 364 CURVE",
"987 364 LINE",
"987 444 LINE",
"0 444 LINE",
"0 364 LINE",
"20 364 LINE",
"7 328 OFFCURVE",
"0 290 OFFCURVE",
"0 249 CURVE SMOOTH",
"0 116 OFFCURVE",
"69 40 OFFCURVE",
"197 40 CURVE SMOOTH"
);
},
{
closed = 1;
nodes = (
"118 123 OFFCURVE",
"79 166 OFFCURVE",
"79 251 CURVE SMOOTH",
"79 290 OFFCURVE",
"86 328 OFFCURVE",
"99 364 CURVE",
"296 364 LINE",
"309 328 OFFCURVE",
"316 290 OFFCURVE",
"316 251 CURVE SMOOTH",
"316 166 OFFCURVE",
"272 123 OFFCURVE",
"197 123 CURVE SMOOTH"
);
},
{
closed = 1;
nodes = (
"602 123 OFFCURVE",
"563 166 OFFCURVE",
"563 251 CURVE SMOOTH",
"563 290 OFFCURVE",
"570 328 OFFCURVE",
"583 364 CURVE",
"780 364 LINE",
"793 328 OFFCURVE",
"800 290 OFFCURVE",
"800 251 CURVE SMOOTH",
"800 166 OFFCURVE",
"754 123 OFFCURVE",
"681 123 CURVE SMOOTH"
);
}
);
vertWidth = 0;
width = 1032;
}
);
note = u1842.fin;
},
{
glyphname = u1842.med;
lastChange = "2020-02-16 15:19:08 +0000";
layers = (
{
layerId = "UUID0";
paths = (
{
closed = 1;
nodes = (
"324 40 OFFCURVE",
"395 124 OFFCURVE",
"395 249 CURVE SMOOTH",
"395 297 OFFCURVE",
"388 335 OFFCURVE",
"373 364 CURVE",
"504 364 LINE",
"491 326 OFFCURVE",
"484 288 OFFCURVE",
"484 249 CURVE SMOOTH",
"484 116 OFFCURVE",
"553 40 OFFCURVE",
"681 40 CURVE SMOOTH",
"808 40 OFFCURVE",
"879 122 OFFCURVE",
"879 249 CURVE SMOOTH",
"879 297 OFFCURVE",
"872 335 OFFCURVE",
"857 364 CURVE",
"1087 364 LINE",
"1087 444 LINE",
"0 444 LINE",
"0 364 LINE",
"20 364 LINE",
"7 328 OFFCURVE",
"0 290 OFFCURVE",
"0 249 CURVE SMOOTH",
"0 116 OFFCURVE",
"69 40 OFFCURVE",
"197 40 CURVE SMOOTH"
);
},
{
closed = 1;
nodes = (
"118 123 OFFCURVE",
"79 166 OFFCURVE",
"79 251 CURVE SMOOTH",
"79 290 OFFCURVE",
"86 328 OFFCURVE",
"99 364 CURVE",
"296 364 LINE",
"309 328 OFFCURVE",
"316 290 OFFCURVE",
"316 251 CURVE SMOOTH",
"316 166 OFFCURVE",
"272 123 OFFCURVE",
"197 123 CURVE SMOOTH"
);
},
{
closed = 1;
nodes = (
"602 123 OFFCURVE",
"563 166 OFFCURVE",
"563 251 CURVE SMOOTH",
"563 290 OFFCURVE",
"570 328 OFFCURVE",
"583 364 CURVE",
"780 364 LINE",
"793 328 OFFCURVE",
"800 290 OFFCURVE",
"800 251 CURVE SMOOTH",
"800 166 OFFCURVE",
"754 123 OFFCURVE",
"681 123 CURVE SMOOTH"
);
}
);
vertWidth = 0;
width = 1057;
}
);
note = u1842.med;
},
{
glyphname = u1841.fin;
lastChange = "2020-02-16 15:19:08 +0000";
layers = (
{
layerId = "UUID0";
paths = (
{
closed = 1;
nodes = (
"334 82 OFFCURVE",
"298 215 OFFCURVE",
"295 364 CURVE",
"451 364 LINE",
"451 444 LINE",
"219 444 LINE",
"219 366 LINE SMOOTH",
"219 221 OFFCURVE",
"247 93 OFFCURVE",
"303 -17 CURVE",
"179 -72 LINE",
"104 71 OFFCURVE",
"75 200 OFFCURVE",
"75 364 CURVE SMOOTH",
"75 444 LINE",
"0 444 LINE",
"0 364 LINE SMOOTH",
"0 167 OFFCURVE",
"45 -6 OFFCURVE",
"140 -182 CURVE",
"409 -57 LINE"
);
}
);
vertWidth = 0;
width = 496;
}
);
note = u1841.fin;
},
{
glyphname = u182A.fin;
lastChange = "2020-02-16 15:19:08 +0000";
layers = (
{
layerId = "UUID0";
paths = (
{
closed = 1;
nodes = (
"466 -238 OFFCURVE",
"459 -212 OFFCURVE",
"459 -187 CURVE SMOOTH",
"459 -164 OFFCURVE",
"462 -144 OFFCURVE",
"468 -126 CURVE SMOOTH",
"479 -90 OFFCURVE",
"501 -55 OFFCURVE",
"537 -7 CURVE SMOOTH",
"572 40 OFFCURVE",
"601 84 OFFCURVE",
"626 125 CURVE SMOOTH",
"677 208 OFFCURVE",
"703 292 OFFCURVE",
"703 388 CURVE SMOOTH",
"703 470 OFFCURVE",
"689 540 OFFCURVE",
"661 599 CURVE SMOOTH",
"604 718 OFFCURVE",
"496 782 OFFCURVE",
"345 782 CURVE SMOOTH",
"271 782 OFFCURVE",
"208 767 OFFCURVE",
"157 737 CURVE SMOOTH",
"54 677 OFFCURVE",
"0 563 OFFCURVE",
"0 408 CURVE SMOOTH",
"0 164 OFFCURVE",
"73 40 OFFCURVE",
"226 40 CURVE SMOOTH",
"261 40 OFFCURVE",
"292 50 OFFCURVE",
"319 70 CURVE SMOOTH",
"374 110 OFFCURVE",
"406 183 OFFCURVE",
"406 275 CURVE SMOOTH",
"406 290 OFFCURVE",
"405 307 OFFCURVE",
"403 328 CURVE SMOOTH",
"399 371 OFFCURVE",
"392 417 OFFCURVE",
"383 444 CURVE",
"79 444 LINE",
"83 607 OFFCURVE",
"184 699 OFFCURVE",
"345 699 CURVE SMOOTH",
"524 699 OFFCURVE",
"624 583 OFFCURVE",
"624 388 CURVE SMOOTH",
"624 345 OFFCURVE",
"619 306 OFFCURVE",
"609 271 CURVE SMOOTH",
"588 199 OFFCURVE",
"548 133 OFFCURVE",
"485 50 CURVE SMOOTH",
"420 -35 OFFCURVE",
"379 -102 OFFCURVE",
"379 -187 CURVE SMOOTH",
"379 -214 OFFCURVE",
"385 -239 OFFCURVE",
"398 -264 CURVE",
"480 -264 LINE"
);
},
{
closed = 1;
nodes = (
"128 123 OFFCURVE",
"82 203 OFFCURVE",
"79 364 CURVE",
"317 364 LINE",
"324 348 OFFCURVE",
"327 318 OFFCURVE",
"327 275 CURVE SMOOTH",
"327 190 OFFCURVE",
"292 123 OFFCURVE",
"219 123 CURVE SMOOTH"
);
}
);
vertWidth = 0;
width = 748;
}
);
note = u182A.fin;
},
{
glyphname = u182B.fin;
lastChange = "2020-02-16 15:19:08 +0000";
layers = (
{
layerId = "UUID0";
paths = (
{
closed = 1;
nodes = (
"433 -238 OFFCURVE",
"426 -212 OFFCURVE",
"426 -187 CURVE SMOOTH",
"426 -164 OFFCURVE",
"429 -144 OFFCURVE",
"435 -126 CURVE SMOOTH",
"446 -90 OFFCURVE",
"468 -55 OFFCURVE",
"504 -7 CURVE SMOOTH",
"539 38 OFFCURVE",
"567 83 OFFCURVE",
"592 124 CURVE SMOOTH",
"641 208 OFFCURVE",
"670 292 OFFCURVE",
"670 388 CURVE SMOOTH",
"670 465 OFFCURVE",
"656 535 OFFCURVE",
"629 598 CURVE SMOOTH",
"574 715 OFFCURVE",
"470 782 OFFCURVE",
"321 782 CURVE SMOOTH",
"255 782 OFFCURVE",
"198 767 OFFCURVE",
"150 737 CURVE SMOOTH",
"54 676 OFFCURVE",
"0 561 OFFCURVE",
"0 408 CURVE SMOOTH",
"0 364 LINE",
"284 364 LINE",
"291 349 OFFCURVE",
"294 319 OFFCURVE",
"294 275 CURVE SMOOTH",
"294 202 OFFCURVE",
"253 153 OFFCURVE",
"186 153 CURVE SMOOTH",
"121 153 OFFCURVE",
"60 150 OFFCURVE",
"16 122 CURVE",
"16 42 LINE",
"63 67 OFFCURVE",
"117 73 OFFCURVE",
"186 73 CURVE SMOOTH",
"223 73 OFFCURVE",
"257 82 OFFCURVE",
"286 99 CURVE",
"341 134 OFFCURVE",
"373 198 OFFCURVE",
"373 275 CURVE SMOOTH",
"373 332 OFFCURVE",
"366 388 OFFCURVE",
"352 444 CURVE",
"79 444 LINE",
"80 495 OFFCURVE",
"90 539 OFFCURVE",
"110 577 CURVE SMOOTH",
"149 653 OFFCURVE",
"218 699 OFFCURVE",
"322 699 CURVE SMOOTH",
"381 699 OFFCURVE",
"432 686 OFFCURVE",
"473 661 CURVE SMOOTH",
"552 609 OFFCURVE",
"591 513 OFFCURVE",
"591 388 CURVE SMOOTH",
"591 345 OFFCURVE",
"586 305 OFFCURVE",
"576 270 CURVE SMOOTH",
"556 199 OFFCURVE",
"515 134 OFFCURVE",
"452 50 CURVE SMOOTH",
"387 -38 OFFCURVE",
"346 -100 OFFCURVE",
"346 -187 CURVE SMOOTH",
"346 -218 OFFCURVE",
"352 -243 OFFCURVE",
"365 -264 CURVE",
"447 -264 LINE"
);
}
);
vertWidth = 0;
width = 715;
}
);
note = u182B.fin;
},
{
glyphname = u183A.fin;
lastChange = "2020-02-16 15:19:08 +0000";
layers = (
{
layerId = "UUID0";
paths = (
{
closed = 1;
nodes = (
"327 -238 OFFCURVE",
"320 -212 OFFCURVE",
"320 -187 CURVE SMOOTH",
"320 -120 OFFCURVE",
"348 -76 OFFCURVE",
"403 -7 CURVE SMOOTH",
"440 40 OFFCURVE",
"471 83 OFFCURVE",
"496 124 CURVE SMOOTH",
"547 207 OFFCURVE",
"575 289 OFFCURVE",
"575 388 CURVE SMOOTH",
"575 455 OFFCURVE",
"564 514 OFFCURVE",
"542 565 CURVE SMOOTH",
"498 668 OFFCURVE",
"412 727 OFFCURVE",
"284 727 CURVE SMOOTH",
"227 727 OFFCURVE",
"177 715 OFFCURVE",
"134 690 CURVE SMOOTH",
"49 641 OFFCURVE",
"0 546 OFFCURVE",
"0 419 CURVE SMOOTH",
"0 96 LINE",
"66 96 LINE",
"74 215 LINE",
"94 171 OFFCURVE",
"125 124 OFFCURVE",
"166 73 CURVE",
"228 128 LINE",
"203 159 OFFCURVE",
"178 189 OFFCURVE",
"155 222 CURVE SMOOTH",
"110 286 OFFCURVE",
"79 352 OFFCURVE",
"79 419 CURVE SMOOTH",
"79 560 OFFCURVE",
"151 644 OFFCURVE",
"284 644 CURVE SMOOTH",
"423 644 OFFCURVE",
"497 543 OFFCURVE",
"497 388 CURVE SMOOTH",
"497 341 OFFCURVE",
"492 302 OFFCURVE",
"481 270 CURVE",
"460 198 OFFCURVE",
"417 131 OFFCURVE",
"350 50 CURVE SMOOTH",
"281 -35 OFFCURVE",
"240 -98 OFFCURVE",
"240 -187 CURVE SMOOTH",
"240 -214 OFFCURVE",
"246 -239 OFFCURVE",
"259 -264 CURVE",
"341 -264 LINE"
);
}
);
vertWidth = 0;
width = 620;
}
);
note = u183A.fin;
},
{
glyphname = u1843.med;
lastChange = "2020-02-16 15:19:08 +0000";
layers = (
{
layerId = "UUID0";
paths = (
{
closed = 1;
nodes = (
"22 444 LINE",
"0 444 LINE",
"0 364 LINE",
"161 364 LINE",
"161 444 LINE",
"65 444 LINE",
"88 632 LINE",
"0 632 LINE"
);
}
);
vertWidth = 0;
width = 131;
}
);
note = u1843.med;
},
{
glyphname = u1843.fin;
lastChange = "2020-02-16 15:19:08 +0000";
layers = (
{
layerId = "UUID0";
paths = (
{
closed = 1;
nodes = (
"156 -238 OFFCURVE",
"149 -212 OFFCURVE",
"149 -187 CURVE SMOOTH",
"149 -162 OFFCURVE",
"151 -144 OFFCURVE",
"156 -132 CURVE",
"165 -101 OFFCURVE",
"185 -71 OFFCURVE",
"216 -31 CURVE SMOOTH",
"291 64 OFFCURVE",
"349 156 OFFCURVE",
"349 245 CURVE SMOOTH",
"349 373 OFFCURVE",
"271 444 OFFCURVE",
"118 444 CURVE SMOOTH",
"65 444 LINE",
"88 632 LINE",
"0 632 LINE",
"22 444 LINE",
"0 444 LINE",
"0 364 LINE",
"117 364 LINE SMOOTH",
"224 364 OFFCURVE",
"271 325 OFFCURVE",
"271 245 CURVE SMOOTH",
"271 177 OFFCURVE",
"229 113 OFFCURVE",
"164 28 CURVE SMOOTH",
"109 -44 OFFCURVE",
"69 -108 OFFCURVE",
"69 -187 CURVE SMOOTH",
"69 -218 OFFCURVE",
"75 -243 OFFCURVE",
"88 -264 CURVE",
"170 -264 LINE"
);
}
);
vertWidth = 0;
width = 394;
}
);
note = u1843.fin;
},
{
glyphname = u1845.med;
lastChange = "2020-02-16 15:19:08 +0000";
layers = (
{
layerId = "UUID0";
paths = (
{
closed = 1;
nodes = (
"405 108 OFFCURVE",
"366 119 OFFCURVE",
"317 119 CURVE SMOOTH",
"288 119 LINE",
"288 364 LINE",
"574 364 LINE",
"574 444 LINE",
"209 444 LINE",
"209 119 LINE",
"176 119 LINE SMOOTH",
"111 119 OFFCURVE",
"79 154 OFFCURVE",
"79 223 CURVE SMOOTH",
"79 444 LINE",
"0 444 LINE",
"0 223 LINE SMOOTH",
"0 98 OFFCURVE",
"59 36 OFFCURVE",
"176 36 CURVE SMOOTH",
"317 36 LINE SMOOTH",
"367 36 OFFCURVE",
"402 27 OFFCURVE",
"422 9 CURVE",
"422 92 LINE"
);
}
);
vertWidth = 0;
width = 544;
}
);
note = u1845.med;
},
{
glyphname = u1866_1823;
lastChange = "2020-02-16 15:19:08 +0000";
layers = (
{
layerId = "UUID0";
paths = (
{
closed = 1;
nodes = (
"312 40 OFFCURVE",
"371 72 OFFCURVE",
"396 135 CURVE",
"424 71 OFFCURVE",
"474 40 OFFCURVE",
"538 40 CURVE SMOOTH",
"683 40 OFFCURVE",
"752 146 OFFCURVE",
"752 375 CURVE SMOOTH",
"752 472 OFFCURVE",
"737 562 OFFCURVE",
"701 627 CURVE SMOOTH",
"664 694 OFFCURVE",
"604 733 OFFCURVE",
"516 733 CURVE SMOOTH",
"467 733 OFFCURVE",
"432 715 OFFCURVE",
"396 670 CURVE",
"363 712 OFFCURVE",
"322 733 OFFCURVE",
"271 733 CURVE SMOOTH",
"123 733 OFFCURVE",
"45 606 OFFCURVE",
"45 375 CURVE SMOOTH",
"45 155 OFFCURVE",
"108 40 OFFCURVE",
"249 40 CURVE SMOOTH"
);
},
{
closed = 1;
nodes = (
"137 585 OFFCURVE",
"183 650 OFFCURVE",
"271 650 CURVE SMOOTH",
"326 650 OFFCURVE",
"363 627 OFFCURVE",
"396 571 CURVE",
"427 623 OFFCURVE",
"461 650 OFFCURVE",
"516 650 CURVE SMOOTH",
"611 650 OFFCURVE",
"658 584 OFFCURVE",
"670 444 CURVE",
"126 444 LINE"
);
},
{
closed = 1;
nodes = (
"214 123 OFFCURVE",
"188 133 OFFCURVE",
"170 154 CURVE SMOOTH",
"134 195 OFFCURVE",
"124 271 OFFCURVE",
"124 364 CURVE",
"359 364 LINE",
"359 286 LINE SMOOTH",
"359 195 OFFCURVE",
"325 123 OFFCURVE",
"249 123 CURVE SMOOTH"
);
},
{
closed = 1;
nodes = (
"471 123 OFFCURVE",
"438 177 OFFCURVE",
"438 286 CURVE SMOOTH",
"438 364 LINE",
"673 364 LINE",
"672 305 OFFCURVE",
"667 258 OFFCURVE",
"658 223 CURVE SMOOTH",
"641 152 OFFCURVE",
"605 123 OFFCURVE",
"538 123 CURVE SMOOTH"
);
}
);
vertWidth = 0;
width = 797;
}
);
note = u1866_1823;
},
{
glyphname = u1850;
lastChange = "2020-02-16 15:19:08 +0000";
layers = (
{
layerId = "UUID0";
paths = (
{
closed = 1;
nodes = (
"415 173 OFFCURVE",
"438 263 OFFCURVE",
"443 364 CURVE",
"678 364 LINE",
"678 444 LINE",
"443 444 LINE",
"439 625 OFFCURVE",
"378 711 OFFCURVE",
"253 711 CURVE SMOOTH",
"212 711 OFFCURVE",
"176 700 OFFCURVE",
"145 677 CURVE SMOOTH",
"82 632 OFFCURVE",
"45 543 OFFCURVE",
"45 420 CURVE SMOOTH",
"45 401 OFFCURVE",
"46 383 OFFCURVE",
"50 364 CURVE",
"145 301 OFFCURVE",
"222 211 OFFCURVE",
"281 96 CURVE",
"370 96 LINE"
);
},
{
closed = 1;
nodes = (
"309 205 OFFCURVE",
"291 233 OFFCURVE",
"270 262 CURVE SMOOTH",
"227 319 OFFCURVE",
"177 370 OFFCURVE",
"126 405 CURVE",
"125 406 OFFCURVE",
"125 408 OFFCURVE",
"125 412 CURVE SMOOTH",
"125 416 LINE",
"124 417 OFFCURVE",
"124 418 OFFCURVE",
"124 420 CURVE SMOOTH",
"124 553 OFFCURVE",
"178 633 OFFCURVE",
"253 633 CURVE SMOOTH",
"284 633 OFFCURVE",
"308 623 OFFCURVE",
"324 604 CURVE SMOOTH",
"356 565 OFFCURVE",
"364 496 OFFCURVE",
"364 409 CURVE SMOOTH",
"364 318 OFFCURVE",
"355 248 OFFCURVE",
"324 176 CURVE"
);
}
);
vertWidth = 0;
width = 723;
}
);
note = u1850;
unicode = 1850;
},
{
glyphname = u1850.fin;
lastChange = "2020-02-16 15:19:08 +0000";
layers = (
{
layerId = "UUID0";
paths = (
{
closed = 1;
nodes = (
"370 173 OFFCURVE",
"394 262 OFFCURVE",
"398 364 CURVE",
"609 364 LINE SMOOTH",
"680 364 OFFCURVE",
"707 334 OFFCURVE",
"707 279 CURVE SMOOTH",
"707 231 OFFCURVE",
"700 192 OFFCURVE",
"685 162 CURVE",
"759 162 LINE",
"776 195 OFFCURVE",
"784 234 OFFCURVE",
"784 279 CURVE SMOOTH",
"784 389 OFFCURVE",
"726 444 OFFCURVE",
"609 444 CURVE SMOOTH",
"398 444 LINE",
"394 625 OFFCURVE",
"333 711 OFFCURVE",
"208 711 CURVE SMOOTH",
"167 711 OFFCURVE",
"132 700 OFFCURVE",
"101 677 CURVE SMOOTH",
"38 632 OFFCURVE",
"0 545 OFFCURVE",
"0 422 CURVE SMOOTH",
"0 403 OFFCURVE",
"2 383 OFFCURVE",
"5 364 CURVE",
"100 299 OFFCURVE",
"177 210 OFFCURVE",
"236 96 CURVE",
"325 96 LINE"
);
},
{
closed = 1;
nodes = (
"264 205 OFFCURVE",
"246 233 OFFCURVE",
"225 262 CURVE SMOOTH",
"182 319 OFFCURVE",
"132 372 OFFCURVE",
"81 405 CURVE",
"80 406 OFFCURVE",
"80 408 OFFCURVE",
"80 412 CURVE SMOOTH",
"80 416 LINE",
"79 417 OFFCURVE",
"79 418 OFFCURVE",
"79 420 CURVE SMOOTH",
"79 456 OFFCURVE",
"84 490 OFFCURVE",
"93 523 CURVE SMOOTH",
"112 587 OFFCURVE",
"148 633 OFFCURVE",
"208 633 CURVE SMOOTH",
"239 633 OFFCURVE",
"263 623 OFFCURVE",
"279 604 CURVE SMOOTH",
"310 565 OFFCURVE",
"319 496 OFFCURVE",
"319 409 CURVE SMOOTH",
"319 318 OFFCURVE",
"310 248 OFFCURVE",
"279 176 CURVE"
);
}
);
vertWidth = 0;
width = 829;
}
);
note = u1850.fin;
},
{
glyphname = u184F;
lastChange = "2020-02-16 15:19:08 +0000";
layers = (
{
layerId = "UUID0";
paths = (
{
closed = 1;
nodes = (
"341 256 OFFCURVE",
"347 320 OFFCURVE",
"359 379 CURVE SMOOTH",
"383 496 OFFCURVE",
"435 603 OFFCURVE",
"516 718 CURVE",
"417 718 LINE",
"394 685 OFFCURVE",
"372 650 OFFCURVE",
"353 614 CURVE",
"326 648 OFFCURVE",
"291 665 OFFCURVE",
"246 665 CURVE SMOOTH",
"207 665 OFFCURVE",
"174 655 OFFCURVE",
"145 634 CURVE",
"84 593 OFFCURVE",
"45 513 OFFCURVE",
"45 409 CURVE SMOOTH",
"45 346 OFFCURVE",
"57 291 OFFCURVE",
"82 242 CURVE SMOOTH",
"130 142 OFFCURVE",
"221 78 OFFCURVE",
"341 74 CURVE",
"341 186 LINE SMOOTH"
);
},
{
closed = 1;
nodes = (
"167 218 OFFCURVE",
"119 305 OFFCURVE",
"119 410 CURVE SMOOTH",
"119 439 OFFCURVE",
"124 470 OFFCURVE",
"133 502 CURVE",
"152 557 OFFCURVE",
"190 593 OFFCURVE",
"246 593 CURVE SMOOTH",
"279 593 OFFCURVE",
"305 578 OFFCURVE",
"324 548 CURVE",
"283 439 OFFCURVE",
"262 318 OFFCURVE",
"262 183 CURVE"
);
}
);
vertWidth = 0;
width = 561;
}
);
note = u184F;
unicode = 184F;
},
{
glyphname = u1853.med;
lastChange = "2020-02-16 15:19:08 +0000";
layers = (
{
layerId = "UUID0";
paths = (
{
closed = 1;
nodes = (
"311 -54 OFFCURVE",
"251 -50 OFFCURVE",
"176 -50 CURVE SMOOTH",
"155 -50 LINE SMOOTH",
"99 -50 OFFCURVE",
"71 -25 OFFCURVE",
"71 12 CURVE SMOOTH",
"71 69 OFFCURVE",
"117 81 OFFCURVE",
"180 81 CURVE SMOOTH",
"356 81 LINE",
"356 142 LINE",
"329 222 OFFCURVE",
"315 296 OFFCURVE",
"315 364 CURVE",
"560 364 LINE",
"560 444 LINE",
"0 444 LINE",
"0 364 LINE",
"241 364 LINE",
"241 284 OFFCURVE",
"250 216 OFFCURVE",
"269 161 CURVE",
"180 161 LINE SMOOTH",
"60 161 OFFCURVE",
"0 108 OFFCURVE",
"0 12 CURVE SMOOTH",
"0 -80 OFFCURVE",
"51 -130 OFFCURVE",
"155 -130 CURVE SMOOTH",
"176 -130 LINE SMOOTH",
"251 -130 OFFCURVE",
"301 -133 OFFCURVE",
"356 -176 CURVE",
"356 -89 LINE"
);
}
);
vertWidth = 0;
width = 530;
}
);
note = u1853.med;
},
{
glyphname = u1853;
lastChange = "2020-02-16 15:19:08 +0000";
layers = (
{
layerId = "UUID0";
paths = (
{
closed = 1;
nodes = (
"475 -54 OFFCURVE",
"413 -50 OFFCURVE",
"338 -50 CURVE SMOOTH",
"317 -50 LINE SMOOTH",
"261 -50 OFFCURVE",
"233 -25 OFFCURVE",
"233 12 CURVE SMOOTH",
"233 69 OFFCURVE",
"279 81 OFFCURVE",
"342 81 CURVE SMOOTH",
"518 81 LINE",
"518 142 LINE",
"491 222 OFFCURVE",
"477 296 OFFCURVE",
"477 364 CURVE",
"722 364 LINE",
"722 444 LINE",
"63 444 LINE",
"45 364 LINE",
"403 364 LINE",
"403 285 OFFCURVE",
"412 217 OFFCURVE",
"431 161 CURVE",
"342 161 LINE SMOOTH",
"222 161 OFFCURVE",
"162 108 OFFCURVE",
"162 12 CURVE SMOOTH",
"162 -83 OFFCURVE",
"214 -130 OFFCURVE",
"317 -130 CURVE SMOOTH",
"338 -130 LINE SMOOTH",
"413 -130 OFFCURVE",
"463 -133 OFFCURVE",
"518 -176 CURVE",
"518 -89 LINE"
);
}
);
vertWidth = 0;
width = 767;
}
);
note = u1853;
unicode = 1853;
},
{
glyphname = u1846.fin;
lastChange = "2020-02-16 15:19:08 +0000";
layers = (
{
layerId = "UUID0";
paths = (
{
closed = 1;
nodes = (
"0 154 OFFCURVE",
"57 74 OFFCURVE",
"176 47 CURVE SMOOTH",
"378 3 LINE",
"378 444 LINE",
"0 444 LINE",
"0 267 LINE SMOOTH"
);
},
{
closed = 1;
nodes = (
"118 146 OFFCURVE",
"79 196 OFFCURVE",
"79 267 CURVE SMOOTH",
"79 364 LINE",
"300 364 LINE",
"300 104 LINE",
"198 127 LINE SMOOTH"
);
}
);
vertWidth = 0;
width = 423;
}
);
note = u1846.fin;
},
{
glyphname = u1846.med;
lastChange = "2020-02-16 15:19:08 +0000";
layers = (
{
layerId = "UUID0";
paths = (
{
closed = 1;
nodes = (
"0 154 OFFCURVE",
"57 74 OFFCURVE",
"176 47 CURVE SMOOTH",
"378 3 LINE",
"378 364 LINE",
"590 364 LINE",
"590 444 LINE",
"0 444 LINE",
"0 267 LINE SMOOTH"
);
},
{
closed = 1;
nodes = (
"118 146 OFFCURVE",
"79 196 OFFCURVE",
"79 267 CURVE SMOOTH",
"79 364 LINE",
"300 364 LINE",
"300 104 LINE",
"198 127 LINE SMOOTH"
);
}
);
vertWidth = 0;
width = 560;
}
);
note = u1846.med;
},
{
glyphname = u184C.ini;
lastChange = "2020-02-16 15:19:08 +0000";
layers = (
{
layerId = "UUID0";
paths = (
{
closed = 1;
nodes = (
"293 198 OFFCURVE",
"254 321 OFFCURVE",
"254 430 CURVE SMOOTH",
"254 575 OFFCURVE",
"312 644 OFFCURVE",
"404 644 CURVE SMOOTH",
"444 644 OFFCURVE",
"475 632 OFFCURVE",
"496 609 CURVE SMOOTH",
"539 561 OFFCURVE",
"552 475 OFFCURVE",
"559 364 CURVE",
"633 364 LINE",
"624 611 OFFCURVE",
"552 727 OFFCURVE",
"404 727 CURVE SMOOTH",
"361 727 OFFCURVE",
"321 715 OFFCURVE",
"286 692 CURVE SMOOTH",
"217 645 OFFCURVE",
"175 559 OFFCURVE",
"175 444 CURVE",
"81 444 LINE",
"81 711 LINE",
"10 711 LINE",
"10 63 LINE",
"370 63 LINE"
);
},
{
closed = 1;
nodes = (
"186 293 OFFCURVE",
"207 220 OFFCURVE",
"241 146 CURVE",
"81 146 LINE",
"81 364 LINE",
"178 364 LINE"
);
}
);
vertWidth = 0;
width = 559;
}
);
note = u184C.ini;
},
{
glyphname = u1822;
lastChange = "2020-02-16 15:19:08 +0000";
layers = (
{
layerId = "UUID0";
paths = (
{
closed = 1;
nodes = (
"653 188 OFFCURVE",
"604 287 OFFCURVE",
"604 407 CURVE SMOOTH",
"604 544 OFFCURVE",
"661 609 OFFCURVE",
"753 609 CURVE SMOOTH",
"841 609 OFFCURVE",
"892 525 OFFCURVE",
"903 376 CURVE",
"983 386 LINE",
"980 441 OFFCURVE",
"970 492 OFFCURVE",
"953 539 CURVE SMOOTH",
"920 631 OFFCURVE",
"856 692 OFFCURVE",
"753 692 CURVE SMOOTH",
"617 692 OFFCURVE",
"537 595 OFFCURVE",
"526 444 CURVE",
"479 444 LINE SMOOTH",
"395 444 OFFCURVE",
"342 416 OFFCURVE",
"320 361 CURVE",
"316 361 LINE",
"313 445 LINE SMOOTH",
"312 488 OFFCURVE",
"308 524 OFFCURVE",
"299 557 CURVE SMOOTH",
"283 620 OFFCURVE",
"247 653 OFFCURVE",
"174 653 CURVE SMOOTH",
"135 653 OFFCURVE",
"92 643 OFFCURVE",
"45 623 CURVE",
"45 550 LINE",
"82 567 OFFCURVE",
"118 575 OFFCURVE",
"153 575 CURVE SMOOTH",
"214 575 OFFCURVE",
"230 520 OFFCURVE",
"235 437 CURVE SMOOTH",
"261 74 LINE",
"327 74 LINE",
"337 219 LINE SMOOTH",
"340 255 OFFCURVE",
"345 284 OFFCURVE",
"354 305 CURVE",
"370 348 OFFCURVE",
"407 364 OFFCURVE",
"480 364 CURVE SMOOTH",
"527 364 LINE",
"536 260 OFFCURVE",
"579 153 OFFCURVE",
"654 42 CURVE",
"726 85 LINE"
);
}
);
vertWidth = 0;
width = 1028;
}
);
note = u1822;
unicode = 1822;
},
{
glyphname = u1826.isoV1;
lastChange = "2020-02-16 15:19:08 +0000";
layers = (
{
layerId = "UUID0";
paths = (
{
closed = 1;
nodes = (
"789 40 OFFCURVE",
"820 50 OFFCURVE",
"847 70 CURVE SMOOTH",
"902 110 OFFCURVE",
"932 184 OFFCURVE",
"932 275 CURVE SMOOTH",
"932 291 OFFCURVE",
"931 309 OFFCURVE",
"929 330 CURVE SMOOTH",
"925 373 OFFCURVE",
"918 417 OFFCURVE",
"909 444 CURVE",
"605 444 LINE",
"606 493 OFFCURVE",
"615 537 OFFCURVE",
"630 575 CURVE SMOOTH",
"662 651 OFFCURVE",
"724 699 OFFCURVE",
"816 699 CURVE SMOOTH",
"863 699 OFFCURVE",
"902 686 OFFCURVE",
"933 659 CURVE SMOOTH",
"996 606 OFFCURVE",
"1029 514 OFFCURVE",
"1036 409 CURVE",
"1116 419 LINE",
"1111 514 OFFCURVE",
"1082 603 OFFCURVE",
"1031 671 CURVE SMOOTH",
"980 739 OFFCURVE",
"908 782 OFFCURVE",
"816 782 CURVE SMOOTH",
"756 782 OFFCURVE",
"705 768 OFFCURVE",
"664 740 CURVE SMOOTH",
"580 683 OFFCURVE",
"535 579 OFFCURVE",
"527 444 CURVE",
"479 444 LINE SMOOTH",
"395 444 OFFCURVE",
"342 416 OFFCURVE",
"320 361 CURVE",
"316 361 LINE",
"313 445 LINE SMOOTH",
"312 488 OFFCURVE",
"308 524 OFFCURVE",
"299 557 CURVE SMOOTH",
"283 620 OFFCURVE",
"247 653 OFFCURVE",
"174 653 CURVE SMOOTH",
"135 653 OFFCURVE",
"92 643 OFFCURVE",
"45 623 CURVE",
"45 550 LINE",
"82 567 OFFCURVE",
"118 575 OFFCURVE",
"153 575 CURVE SMOOTH",
"214 575 OFFCURVE",
"230 520 OFFCURVE",
"235 437 CURVE SMOOTH",
"261 74 LINE",
"327 74 LINE",
"337 219 LINE SMOOTH",
"340 256 OFFCURVE",
"345 285 OFFCURVE",
"354 306 CURVE SMOOTH",
"371 349 OFFCURVE",
"408 364 OFFCURVE",
"480 364 CURVE SMOOTH",
"526 364 LINE",
"537 141 OFFCURVE",
"612 40 OFFCURVE",
"752 40 CURVE SMOOTH"
);
},
{
closed = 1;
nodes = (
"654 123 OFFCURVE",
"608 203 OFFCURVE",
"605 364 CURVE",
"843 364 LINE",
"850 348 OFFCURVE",
"853 318 OFFCURVE",
"853 275 CURVE SMOOTH",
"853 190 OFFCURVE",
"818 123 OFFCURVE",
"745 123 CURVE SMOOTH"
);
}
);
vertWidth = 0;
width = 1161;
}
);
note = u1826.isoV1;
},
{
glyphname = u186E;
lastChange = "2020-02-16 15:19:08 +0000";
layers = (
{
layerId = "UUID0";
paths = (
{
closed = 1;
nodes = (
"507 128 OFFCURVE",
"485 225 OFFCURVE",
"450 364 CURVE",
"711 364 LINE",
"711 444 LINE",
"428 444 LINE",
"405 527 OFFCURVE",
"380 610 OFFCURVE",
"352 694 CURVE",
"499 694 LINE",
"499 756 LINE",
"334 756 LINE",
"334 888 LINE",
"271 888 LINE",
"271 756 LINE",
"114 756 LINE",
"114 694 LINE",
"258 694 LINE",
"257 683 OFFCURVE",
"253 667 OFFCURVE",
"248 646 CURVE",
"247 639 OFFCURVE",
"245 632 OFFCURVE",
"244 624 CURVE",
"243 621 OFFCURVE",
"243 619 OFFCURVE",
"243 617 CURVE",
"242 613 OFFCURVE",
"240 608 OFFCURVE",
"239 604 CURVE",
"238 602 OFFCURVE",
"238 600 OFFCURVE",
"237 597 CURVE",
"228 560 OFFCURVE",
"217 520 OFFCURVE",
"206 493 CURVE SMOOTH",
"190 453 OFFCURVE",
"167 427 OFFCURVE",
"131 427 CURVE SMOOTH",
"100 427 OFFCURVE",
"71 433 OFFCURVE",
"45 446 CURVE",
"45 371 LINE",
"74 354 OFFCURVE",
"104 346 OFFCURVE",
"135 346 CURVE SMOOTH",
"172 346 OFFCURVE",
"200 355 OFFCURVE",
"220 373 CURVE SMOOTH",
"260 408 OFFCURVE",
"285 497 OFFCURVE",
"304 590 CURVE",
"308 590 LINE",
"332 525 OFFCURVE",
"358 437 OFFCURVE",
"382 342 CURVE SMOOTH",
"406 249 OFFCURVE",
"428 152 OFFCURVE",
"443 73 CURVE",
"519 73 LINE"
);
}
);
vertWidth = 0;
width = 756;
}
);
note = u186E;
unicode = 186E;
},
{
glyphname = u1823;
lastChange = "2020-02-16 15:19:08 +0000";
layers = (
{
layerId = "UUID0";
paths = (
{
closed = 1;
nodes = (
"851 40 OFFCURVE",
"922 124 OFFCURVE",
"922 249 CURVE SMOOTH",
"922 312 OFFCURVE",
"904 392 OFFCURVE",
"875 444 CURVE",
"479 444 LINE SMOOTH",
"395 444 OFFCURVE",
"342 416 OFFCURVE",
"320 361 CURVE",
"316 361 LINE",
"313 445 LINE SMOOTH",
"312 488 OFFCURVE",
"308 524 OFFCURVE",
"299 557 CURVE SMOOTH",
"283 620 OFFCURVE",
"247 653 OFFCURVE",
"174 653 CURVE SMOOTH",
"135 653 OFFCURVE",
"92 643 OFFCURVE",
"45 623 CURVE",
"45 550 LINE",
"82 567 OFFCURVE",
"118 575 OFFCURVE",
"153 575 CURVE SMOOTH",
"214 575 OFFCURVE",
"230 520 OFFCURVE",
"235 437 CURVE SMOOTH",
"261 74 LINE",
"327 74 LINE",
"337 219 LINE SMOOTH",
"340 255 OFFCURVE",
"345 284 OFFCURVE",
"354 305 CURVE",
"370 348 OFFCURVE",
"407 364 OFFCURVE",
"480 364 CURVE SMOOTH",
"547 364 LINE",
"534 328 OFFCURVE",
"527 290 OFFCURVE",
"527 249 CURVE SMOOTH",
"527 116 OFFCURVE",
"597 40 OFFCURVE",
"724 40 CURVE SMOOTH"
);
},
{
closed = 1;
nodes = (
"645 123 OFFCURVE",
"606 166 OFFCURVE",
"606 251 CURVE SMOOTH",
"606 290 OFFCURVE",
"613 327 OFFCURVE",
"626 364 CURVE",
"821 364 LINE",
"836 334 OFFCURVE",
"843 296 OFFCURVE",
"843 251 CURVE SMOOTH",
"843 166 OFFCURVE",
"799 123 OFFCURVE",
"724 123 CURVE SMOOTH"
);
}
);
vertWidth = 0;
width = 967;
}
);
note = u1823;
unicode = 1823;
},
{
glyphname = u1825.ini;
lastChange = "2020-02-16 15:19:08 +0000";
layers = (
{
layerId = "UUID0";
paths = (
{
closed = 1;
nodes = (
"1172 100 OFFCURVE",
"1117 231 OFFCURVE",
"1078 364 CURVE",
"1390 364 LINE",
"1390 444 LINE",
"444 444 LINE SMOOTH",
"360 444 OFFCURVE",
"307 416 OFFCURVE",
"285 361 CURVE",
"281 361 LINE",
"278 445 LINE SMOOTH",
"277 488 OFFCURVE",
"273 524 OFFCURVE",
"264 557 CURVE SMOOTH",
"248 620 OFFCURVE",
"212 653 OFFCURVE",
"139 653 CURVE SMOOTH",
"100 653 OFFCURVE",
"57 643 OFFCURVE",
"10 623 CURVE",
"10 550 LINE",
"47 567 OFFCURVE",
"83 575 OFFCURVE",
"118 575 CURVE SMOOTH",
"179 575 OFFCURVE",
"195 520 OFFCURVE",
"200 437 CURVE SMOOTH",
"226 74 LINE",
"292 74 LINE",
"302 219 LINE SMOOTH",
"305 255 OFFCURVE",
"310 284 OFFCURVE",
"319 305 CURVE",
"335 348 OFFCURVE",
"372 364 OFFCURVE",
"445 364 CURVE SMOOTH",
"512 364 LINE",
"499 328 OFFCURVE",
"492 290 OFFCURVE",
"492 249 CURVE SMOOTH",
"492 116 OFFCURVE",
"562 40 OFFCURVE",
"689 40 CURVE SMOOTH",
"816 40 OFFCURVE",
"887 124 OFFCURVE",
"887 249 CURVE SMOOTH",
"887 297 OFFCURVE",
"880 335 OFFCURVE",
"865 364 CURVE",
"999 364 LINE",
"1036 224 OFFCURVE",
"1093 80 OFFCURVE",
"1172 -67 CURVE",
"1245 -31 LINE"
);
},
{
closed = 1;
nodes = (
"610 123 OFFCURVE",
"571 166 OFFCURVE",
"571 251 CURVE SMOOTH",
"571 290 OFFCURVE",
"578 327 OFFCURVE",
"591 364 CURVE",
"788 364 LINE",
"801 327 OFFCURVE",
"808 290 OFFCURVE",
"808 251 CURVE SMOOTH",
"808 166 OFFCURVE",
"764 123 OFFCURVE",
"689 123 CURVE SMOOTH"
);
}
);
vertWidth = 0;
width = 1360;
}
);
note = u1825.ini;
},
{
glyphname = u1825.medV2;
lastChange = "2020-02-16 15:19:08 +0000";
layers = (
{
layerId = "UUID0";
paths = (
{
closed = 1;
nodes = (
"964 100 OFFCURVE",
"909 231 OFFCURVE",
"870 364 CURVE",
"1182 364 LINE",
"1182 444 LINE",
"0 444 LINE",
"0 364 LINE",
"19 96 LINE",
"85 96 LINE",
"104 364 LINE",
"304 364 LINE",
"291 328 OFFCURVE",
"284 290 OFFCURVE",
"284 249 CURVE SMOOTH",
"284 116 OFFCURVE",
"354 40 OFFCURVE",
"481 40 CURVE SMOOTH",
"608 40 OFFCURVE",
"679 124 OFFCURVE",
"679 249 CURVE SMOOTH",
"679 297 OFFCURVE",
"672 335 OFFCURVE",
"657 364 CURVE",
"791 364 LINE",
"828 224 OFFCURVE",
"885 80 OFFCURVE",
"964 -67 CURVE",
"1037 -31 LINE"
);
},
{
closed = 1;
nodes = (
"402 123 OFFCURVE",
"363 166 OFFCURVE",
"363 251 CURVE SMOOTH",
"363 290 OFFCURVE",
"370 327 OFFCURVE",
"383 364 CURVE",
"580 364 LINE",
"593 327 OFFCURVE",
"600 290 OFFCURVE",
"600 251 CURVE SMOOTH",
"600 166 OFFCURVE",
"556 123 OFFCURVE",
"481 123 CURVE SMOOTH"
);
}
);
vertWidth = 0;
width = 1152;
}
);
note = u1825.medV2;
},
{
glyphname = u183E.fin;
lastChange = "2020-02-16 15:19:08 +0000";
layers = (
{
layerId = "UUID0";
paths = (
{
closed = 1;
nodes = (
"334 82 OFFCURVE",
"298 215 OFFCURVE",
"295 364 CURVE",
"551 364 LINE SMOOTH",
"622 364 OFFCURVE",
"649 334 OFFCURVE",
"649 279 CURVE SMOOTH",
"649 230 OFFCURVE",
"642 191 OFFCURVE",
"627 162 CURVE",
"701 162 LINE",
"718 195 OFFCURVE",
"726 234 OFFCURVE",
"726 279 CURVE SMOOTH",
"726 389 OFFCURVE",
"668 444 OFFCURVE",
"551 444 CURVE SMOOTH",
"219 444 LINE",
"219 366 LINE SMOOTH",
"219 221 OFFCURVE",
"247 93 OFFCURVE",
"303 -17 CURVE",
"179 -72 LINE",
"104 71 OFFCURVE",
"75 200 OFFCURVE",
"75 364 CURVE SMOOTH",
"75 444 LINE",
"0 444 LINE",
"0 364 LINE SMOOTH",
"0 167 OFFCURVE",
"45 -6 OFFCURVE",
"140 -182 CURVE",
"409 -57 LINE"
);
}
);
vertWidth = 0;
width = 771;
}
);
note = u183E.fin;
},
{
glyphname = u1834.fin;
lastChange = "2020-02-16 15:19:08 +0000";
layers = (
{
layerId = "UUID0";
paths = (
{
closed = 1;
nodes = (
"68 57 OFFCURVE",
"138 63 OFFCURVE",
"235 63 CURVE SMOOTH",
"356 63 LINE",
"356 129 LINE",
"329 209 OFFCURVE",
"315 280 OFFCURVE",
"315 364 CURVE",
"560 364 LINE SMOOTH",
"631 364 OFFCURVE",
"658 334 OFFCURVE",
"658 279 CURVE SMOOTH",
"658 231 OFFCURVE",
"651 192 OFFCURVE",
"636 162 CURVE",
"710 162 LINE",
"727 195 OFFCURVE",
"735 234 OFFCURVE",
"735 279 CURVE SMOOTH",
"735 389 OFFCURVE",
"677 444 OFFCURVE",
"560 444 CURVE SMOOTH",
"0 444 LINE",
"0 364 LINE",
"241 364 LINE",
"241 280 OFFCURVE",
"251 206 OFFCURVE",
"271 143 CURVE",
"235 143 LINE SMOOTH",
"142 143 OFFCURVE",
"63 141 OFFCURVE",
"0 101 CURVE",
"0 16 LINE"
);
}
);
vertWidth = 0;
width = 780;
}
);
note = u1834.fin;
},
{
glyphname = u1823.ini;
lastChange = "2020-02-16 15:19:08 +0000";
layers = (
{
layerId = "UUID0";
paths = (
{
closed = 1;
nodes = (
"816 40 OFFCURVE",
"887 124 OFFCURVE",
"887 249 CURVE SMOOTH",
"887 297 OFFCURVE",
"880 335 OFFCURVE",
"865 364 CURVE",
"1095 364 LINE",
"1095 444 LINE",
"444 444 LINE SMOOTH",
"360 444 OFFCURVE",
"307 416 OFFCURVE",
"285 361 CURVE",
"281 361 LINE",
"278 445 LINE SMOOTH",
"277 488 OFFCURVE",
"273 524 OFFCURVE",
"264 557 CURVE SMOOTH",
"248 620 OFFCURVE",
"212 653 OFFCURVE",
"139 653 CURVE SMOOTH",
"100 653 OFFCURVE",
"57 643 OFFCURVE",
"10 623 CURVE",
"10 550 LINE",
"47 567 OFFCURVE",
"83 575 OFFCURVE",
"118 575 CURVE SMOOTH",
"179 575 OFFCURVE",
"195 520 OFFCURVE",
"200 437 CURVE SMOOTH",
"226 74 LINE",
"292 74 LINE",
"302 219 LINE SMOOTH",
"305 255 OFFCURVE",
"310 284 OFFCURVE",
"319 305 CURVE",
"335 348 OFFCURVE",
"372 364 OFFCURVE",
"445 364 CURVE SMOOTH",
"512 364 LINE",
"499 328 OFFCURVE",
"492 290 OFFCURVE",
"492 249 CURVE SMOOTH",
"492 116 OFFCURVE",
"562 40 OFFCURVE",
"689 40 CURVE SMOOTH"
);
},
{
closed = 1;
nodes = (
"610 123 OFFCURVE",
"571 166 OFFCURVE",
"571 251 CURVE SMOOTH",
"571 290 OFFCURVE",
"578 327 OFFCURVE",
"591 364 CURVE",
"788 364 LINE",
"801 327 OFFCURVE",
"808 290 OFFCURVE",
"808 251 CURVE SMOOTH",
"808 166 OFFCURVE",
"764 123 OFFCURVE",
"689 123 CURVE SMOOTH"
);
}
);
vertWidth = 0;
width = 1065;
}
);
note = u1823.ini;
},
{
glyphname = u1823.medV1;
lastChange = "2020-02-16 15:19:08 +0000";
layers = (
{
layerId = "UUID0";
paths = (
{
closed = 1;
nodes = (
"608 40 OFFCURVE",
"679 124 OFFCURVE",
"679 249 CURVE SMOOTH",
"679 297 OFFCURVE",
"672 335 OFFCURVE",
"657 364 CURVE",
"887 364 LINE",
"887 444 LINE",
"0 444 LINE",
"0 364 LINE",
"19 96 LINE",
"85 96 LINE",
"104 364 LINE",
"304 364 LINE",
"291 328 OFFCURVE",
"284 290 OFFCURVE",
"284 249 CURVE SMOOTH",
"284 116 OFFCURVE",
"354 40 OFFCURVE",
"481 40 CURVE SMOOTH"
);
},
{
closed = 1;
nodes = (
"402 123 OFFCURVE",
"363 166 OFFCURVE",
"363 251 CURVE SMOOTH",
"363 290 OFFCURVE",
"370 327 OFFCURVE",
"383 364 CURVE",
"580 364 LINE",
"593 327 OFFCURVE",
"600 290 OFFCURVE",
"600 251 CURVE SMOOTH",
"600 166 OFFCURVE",
"556 123 OFFCURVE",
"481 123 CURVE SMOOTH"
);
}
);
vertWidth = 0;
width = 857;
}
);
note = u1823.medV1;
},
{
glyphname = u1825;
lastChange = "2020-02-16 15:19:08 +0000";
layers = (
{
layerId = "UUID0";
paths = (
{
closed = 1;
nodes = (
"851 40 OFFCURVE",
"922 124 OFFCURVE",
"922 249 CURVE SMOOTH",
"922 297 OFFCURVE",
"915 335 OFFCURVE",
"900 364 CURVE",
"1050 364 LINE SMOOTH",
"1121 364 OFFCURVE",
"1148 334 OFFCURVE",
"1148 279 CURVE SMOOTH",
"1148 232 OFFCURVE",
"1141 193 OFFCURVE",
"1126 162 CURVE",
"1200 162 LINE",
"1217 195 OFFCURVE",
"1225 234 OFFCURVE",
"1225 279 CURVE SMOOTH",
"1225 389 OFFCURVE",
"1167 444 OFFCURVE",
"1050 444 CURVE SMOOTH",
"479 444 LINE SMOOTH",
"395 444 OFFCURVE",
"342 416 OFFCURVE",
"320 361 CURVE",
"316 361 LINE",
"313 445 LINE SMOOTH",
"312 488 OFFCURVE",
"308 524 OFFCURVE",
"299 557 CURVE SMOOTH",
"283 620 OFFCURVE",
"247 653 OFFCURVE",
"174 653 CURVE SMOOTH",
"135 653 OFFCURVE",
"92 643 OFFCURVE",
"45 623 CURVE",
"45 550 LINE",
"82 567 OFFCURVE",
"118 575 OFFCURVE",
"153 575 CURVE SMOOTH",
"214 575 OFFCURVE",
"230 520 OFFCURVE",
"235 437 CURVE SMOOTH",
"261 74 LINE",
"327 74 LINE",
"337 219 LINE SMOOTH",
"340 256 OFFCURVE",
"345 286 OFFCURVE",
"354 307 CURVE",
"370 350 OFFCURVE",
"408 364 OFFCURVE",
"480 364 CURVE SMOOTH",
"547 364 LINE",
"534 328 OFFCURVE",
"527 290 OFFCURVE",
"527 249 CURVE SMOOTH",
"527 116 OFFCURVE",
"597 40 OFFCURVE",
"724 40 CURVE SMOOTH"
);
},
{
closed = 1;
nodes = (
"645 123 OFFCURVE",
"606 166 OFFCURVE",
"606 251 CURVE SMOOTH",
"606 290 OFFCURVE",
"613 327 OFFCURVE",
"626 364 CURVE",
"823 364 LINE",
"836 327 OFFCURVE",
"843 290 OFFCURVE",
"843 251 CURVE SMOOTH",
"843 166 OFFCURVE",
"799 123 OFFCURVE",
"724 123 CURVE SMOOTH"
);
}
);
vertWidth = 0;
width = 1270;
}
);
note = u1825;
unicode = 1825;
},
{
glyphname = u1825.finV1;
lastChange = "2020-02-16 15:19:08 +0000";
layers = (
{
layerId = "UUID0";
paths = (
{
closed = 1;
nodes = (
"324 40 OFFCURVE",
"395 124 OFFCURVE",
"395 249 CURVE SMOOTH",
"395 297 OFFCURVE",
"388 335 OFFCURVE",
"373 364 CURVE",
"523 364 LINE SMOOTH",
"594 364 OFFCURVE",
"621 334 OFFCURVE",
"621 279 CURVE SMOOTH",
"621 231 OFFCURVE",
"614 192 OFFCURVE",
"599 162 CURVE",
"673 162 LINE",
"690 195 OFFCURVE",
"698 234 OFFCURVE",
"698 279 CURVE SMOOTH",
"698 389 OFFCURVE",
"640 444 OFFCURVE",
"523 444 CURVE SMOOTH",
"0 444 LINE",
"0 364 LINE",
"20 364 LINE",
"7 328 OFFCURVE",
"0 290 OFFCURVE",
"0 249 CURVE SMOOTH",
"0 116 OFFCURVE",
"69 40 OFFCURVE",
"197 40 CURVE SMOOTH"
);
},
{
closed = 1;
nodes = (
"118 123 OFFCURVE",
"79 166 OFFCURVE",
"79 251 CURVE SMOOTH",
"79 290 OFFCURVE",
"86 328 OFFCURVE",
"99 364 CURVE",
"296 364 LINE",
"309 328 OFFCURVE",
"316 290 OFFCURVE",
"316 251 CURVE SMOOTH",
"316 166 OFFCURVE",
"272 123 OFFCURVE",
"197 123 CURVE SMOOTH"
);
}
);
vertWidth = 0;
width = 743;
}
);
note = u1825.finV1;
},
{
glyphname = u1833.fin;
lastChange = "2020-02-16 15:19:08 +0000";
layers = (
{
layerId = "UUID0";
paths = (
{
closed = 1;
nodes = (
"324 40 OFFCURVE",
"395 124 OFFCURVE",
"395 249 CURVE SMOOTH",
"395 297 OFFCURVE",
"388 335 OFFCURVE",
"373 364 CURVE",
"540 364 LINE",
"540 316 OFFCURVE",
"551 267 OFFCURVE",
"572 217 CURVE",
"615 124 OFFCURVE",
"694 60 OFFCURVE",
"801 53 CURVE",
"801 156 LINE SMOOTH",
"801 237 OFFCURVE",
"807 319 OFFCURVE",
"820 402 CURVE SMOOTH",
"844 569 OFFCURVE",
"899 723 OFFCURVE",
"990 836 CURVE",
"898 836 LINE",
"837 756 OFFCURVE",
"793 648 OFFCURVE",
"765 528 CURVE SMOOTH",
"737 407 OFFCURVE",
"724 277 OFFCURVE",
"724 156 CURVE",
"693 175 OFFCURVE",
"670 198 OFFCURVE",
"654 225 CURVE SMOOTH",
"622 280 OFFCURVE",
"614 353 OFFCURVE",
"614 444 CURVE",
"0 444 LINE",
"0 364 LINE",
"20 364 LINE",
"7 328 OFFCURVE",
"0 290 OFFCURVE",
"0 249 CURVE SMOOTH",
"0 116 OFFCURVE",
"69 40 OFFCURVE",
"197 40 CURVE SMOOTH"
);
},
{
closed = 1;
nodes = (
"118 123 OFFCURVE",
"79 166 OFFCURVE",
"79 251 CURVE SMOOTH",
"79 290 OFFCURVE",
"86 328 OFFCURVE",
"99 364 CURVE",
"296 364 LINE",
"309 328 OFFCURVE",
"316 290 OFFCURVE",
"316 251 CURVE SMOOTH",
"316 166 OFFCURVE",
"272 123 OFFCURVE",
"197 123 CURVE SMOOTH"
);
}
);
vertWidth = 0;
width = 1035;
}
);
note = u1833.fin;
},
{
glyphname = u182A_1825.V1;
lastChange = "2020-02-16 15:19:08 +0000";
layers = (
{
layerId = "UUID0";
paths = (
{
closed = 1;
nodes = (
"312 40 OFFCURVE",
"371 72 OFFCURVE",
"396 135 CURVE",
"424 71 OFFCURVE",
"474 40 OFFCURVE",
"538 40 CURVE SMOOTH",
"680 40 OFFCURVE",
"751 148 OFFCURVE",
"752 364 CURVE",
"963 364 LINE SMOOTH",
"1034 364 OFFCURVE",
"1061 334 OFFCURVE",
"1061 279 CURVE SMOOTH",
"1061 231 OFFCURVE",
"1054 192 OFFCURVE",
"1039 162 CURVE",
"1113 162 LINE",
"1130 195 OFFCURVE",
"1138 234 OFFCURVE",
"1138 279 CURVE SMOOTH",
"1138 389 OFFCURVE",
"1080 444 OFFCURVE",
"963 444 CURVE SMOOTH",
"748 444 LINE",
"741 513 OFFCURVE",
"722 573 OFFCURVE",
"693 624 CURVE SMOOTH",
"633 725 OFFCURVE",
"534 782 OFFCURVE",
"405 782 CURVE SMOOTH",
"330 782 OFFCURVE",
"265 765 OFFCURVE",
"211 731 CURVE SMOOTH",
"103 662 OFFCURVE",
"45 536 OFFCURVE",
"45 375 CURVE SMOOTH",
"45 155 OFFCURVE",
"108 40 OFFCURVE",
"249 40 CURVE SMOOTH"
);
},
{
closed = 1;
nodes = (
"146 605 OFFCURVE",
"236 699 OFFCURVE",
"405 699 CURVE SMOOTH",
"455 699 OFFCURVE",
"499 688 OFFCURVE",
"536 667 CURVE SMOOTH",
"609 624 OFFCURVE",
"655 545 OFFCURVE",
"668 444 CURVE",
"127 444 LINE"
);
},
{
closed = 1;
nodes = (
"213 123 OFFCURVE",
"187 133 OFFCURVE",
"170 154 CURVE",
"134 194 OFFCURVE",
"124 269 OFFCURVE",
"124 364 CURVE",
"359 364 LINE",
"359 282 LINE SMOOTH",
"359 191 OFFCURVE",
"323 123 OFFCURVE",
"248 123 CURVE SMOOTH"
);
},
{
closed = 1;
nodes = (
"471 123 OFFCURVE",
"438 177 OFFCURVE",
"438 286 CURVE SMOOTH",
"438 364 LINE",
"673 364 LINE",
"672 305 OFFCURVE",
"667 258 OFFCURVE",
"658 223 CURVE SMOOTH",
"641 152 OFFCURVE",
"605 123 OFFCURVE",
"538 123 CURVE SMOOTH"
);
}
);
vertWidth = 0;
width = 1183;
}
);
note = u182A_1825.V1;
},
{
glyphname = u182C_1825.V1;
lastChange = "2020-02-16 15:19:08 +0000";
layers = (
{
layerId = "UUID0";
paths = (
{
closed = 1;
nodes = (
"548 40 OFFCURVE",
"581 51 OFFCURVE",
"610 73 CURVE SMOOTH",
"669 116 OFFCURVE",
"704 198 OFFCURVE",
"704 303 CURVE SMOOTH",
"704 334 LINE SMOOTH",
"704 345 OFFCURVE",
"703 355 OFFCURVE",
"702 364 CURVE",
"915 364 LINE SMOOTH",
"986 364 OFFCURVE",
"1013 334 OFFCURVE",
"1013 279 CURVE SMOOTH",
"1013 231 OFFCURVE",
"1006 192 OFFCURVE",
"991 162 CURVE",
"1065 162 LINE",
"1082 195 OFFCURVE",
"1090 234 OFFCURVE",
"1090 279 CURVE SMOOTH",
"1090 389 OFFCURVE",
"1032 444 OFFCURVE",
"915 444 CURVE SMOOTH",
"693 444 LINE",
"658 649 OFFCURVE",
"545 760 OFFCURVE",
"365 760 CURVE SMOOTH",
"302 760 OFFCURVE",
"245 745 OFFCURVE",
"196 716 CURVE SMOOTH",
"100 656 OFFCURVE",
"45 547 OFFCURVE",
"45 408 CURVE SMOOTH",
"45 291 OFFCURVE",
"86 153 OFFCURVE",
"146 42 CURVE",
"219 73 LINE",
"152 198 OFFCURVE",
"124 313 OFFCURVE",
"124 405 CURVE SMOOTH",
"124 463 OFFCURVE",
"133 511 OFFCURVE",
"152 548 CURVE",
"189 631 OFFCURVE",
"262 677 OFFCURVE",
"365 677 CURVE SMOOTH",
"503 677 OFFCURVE",
"586 599 OFFCURVE",
"614 444 CURVE",
"347 444 LINE",
"323 397 OFFCURVE",
"309 330 OFFCURVE",
"309 275 CURVE SMOOTH",
"309 131 OFFCURVE",
"377 40 OFFCURVE",
"510 40 CURVE SMOOTH"
);
},
{
closed = 1;
nodes = (
"426 123 OFFCURVE",
"388 174 OFFCURVE",
"388 275 CURVE SMOOTH",
"388 311 OFFCURVE",
"395 341 OFFCURVE",
"404 364 CURVE",
"623 364 LINE",
"624 355 OFFCURVE",
"625 345 OFFCURVE",
"625 334 CURVE SMOOTH",
"625 303 LINE SMOOTH",
"625 266 OFFCURVE",
"621 236 OFFCURVE",
"612 213 CURVE",
"595 158 OFFCURVE",
"558 123 OFFCURVE",
"502 123 CURVE SMOOTH"
);
}
);
vertWidth = 0;
width = 1135;
}
);
note = u182C_1825.V1;
},
{
glyphname = u1853.fin;
lastChange = "2020-02-16 15:19:08 +0000";
layers = (
{
layerId = "UUID0";
paths = (
{
closed = 1;
nodes = (
"311 -54 OFFCURVE",
"251 -50 OFFCURVE",
"176 -50 CURVE SMOOTH",
"155 -50 LINE SMOOTH",
"99 -50 OFFCURVE",
"71 -25 OFFCURVE",
"71 12 CURVE SMOOTH",
"71 68 OFFCURVE",
"117 81 OFFCURVE",
"180 81 CURVE SMOOTH",
"356 81 LINE",
"356 142 LINE",
"329 222 OFFCURVE",
"315 296 OFFCURVE",
"315 364 CURVE",
"560 364 LINE SMOOTH",
"631 364 OFFCURVE",
"658 334 OFFCURVE",
"658 279 CURVE SMOOTH",
"658 231 OFFCURVE",
"651 192 OFFCURVE",
"636 162 CURVE",
"710 162 LINE",
"727 195 OFFCURVE",
"735 234 OFFCURVE",
"735 279 CURVE SMOOTH",
"735 389 OFFCURVE",
"677 444 OFFCURVE",
"560 444 CURVE SMOOTH",
"0 444 LINE",
"0 364 LINE",
"241 364 LINE",
"241 284 OFFCURVE",
"250 216 OFFCURVE",
"269 161 CURVE",
"180 161 LINE SMOOTH",
"60 161 OFFCURVE",
"0 108 OFFCURVE",
"0 12 CURVE SMOOTH",
"0 -80 OFFCURVE",
"51 -130 OFFCURVE",
"155 -130 CURVE SMOOTH",
"176 -130 LINE SMOOTH",
"251 -130 OFFCURVE",
"301 -133 OFFCURVE",
"356 -176 CURVE",
"356 -89 LINE"
);
}
);
vertWidth = 0;
width = 780;
}
);
note = u1853.fin;
},
{
glyphname = u182A_182F.ini;
lastChange = "2020-02-16 15:19:08 +0000";
layers = (
{
layerId = "UUID0";
paths = (
{
closed = 1;
nodes = (
"272 40 OFFCURVE",
"303 50 OFFCURVE",
"330 70 CURVE SMOOTH",
"385 110 OFFCURVE",
"416 184 OFFCURVE",
"416 275 CURVE SMOOTH",
"416 288 OFFCURVE",
"415 305 OFFCURVE",
"413 328 CURVE SMOOTH",
"409 372 OFFCURVE",
"401 421 OFFCURVE",
"393 444 CURVE",
"89 444 LINE",
"92 579 OFFCURVE",
"178 659 OFFCURVE",
"313 659 CURVE SMOOTH",
"453 659 OFFCURVE",
"530 561 OFFCURVE",
"544 364 CURVE SMOOTH",
"563 96 LINE",
"629 96 LINE",
"648 364 LINE",
"858 364 LINE",
"858 444 LINE",
"617 444 LINE",
"605 511 OFFCURVE",
"585 566 OFFCURVE",
"558 611 CURVE",
"561 695 OFFCURVE",
"589 767 OFFCURVE",
"640 848 CURVE",
"640 914 LINE",
"520 914 LINE SMOOTH",
"440 914 OFFCURVE",
"388 917 OFFCURVE",
"340 950 CURVE",
"340 872 LINE",
"380 837 OFFCURVE",
"443 834 OFFCURVE",
"520 834 CURVE SMOOTH",
"548 834 LINE",
"522 787 OFFCURVE",
"504 736 OFFCURVE",
"495 683 CURVE",
"448 722 OFFCURVE",
"387 742 OFFCURVE",
"313 742 CURVE SMOOTH",
"248 742 OFFCURVE",
"194 729 OFFCURVE",
"149 702 CURVE SMOOTH",
"56 647 OFFCURVE",
"10 549 OFFCURVE",
"10 408 CURVE SMOOTH",
"10 163 OFFCURVE",
"85 40 OFFCURVE",
"236 40 CURVE SMOOTH"
);
},
{
closed = 1;
nodes = (
"138 123 OFFCURVE",
"91 203 OFFCURVE",
"89 364 CURVE",
"327 364 LINE",
"334 350 OFFCURVE",
"337 320 OFFCURVE",
"337 275 CURVE SMOOTH",
"337 190 OFFCURVE",
"302 123 OFFCURVE",
"229 123 CURVE SMOOTH"
);
}
);
vertWidth = 0;
width = 828;
}
);
note = u182A_182F.ini;
},
{
glyphname = u182E.med;
lastChange = "2020-02-16 15:45:50 +0000";
layers = (
{
layerId = "UUID0";
paths = (
{
closed = 1;
nodes = (
"81 518 OFFCURVE",
"71 583 OFFCURVE",
"54 639 CURVE",
"90 639 LINE SMOOTH",
"170 639 OFFCURVE",
"226 641 OFFCURVE",
"269 677 CURVE",
"269 754 LINE",
"217 723 OFFCURVE",
"165 719 OFFCURVE",
"90 719 CURVE SMOOTH",
"-31 719 LINE",
"-31 653 LINE",
"0 581 OFFCURVE",
"13 519 OFFCURVE",
"14 444 CURVE",
"0 444 LINE",
"0 364 LINE",
"19 96 LINE",
"85 96 LINE",
"104 364 LINE",
"314 364 LINE",
"314 444 LINE",
"84 444 LINE"
);
}
);
vertWidth = 0;
width = 284;
}
);
note = u182E.med;
},
{
glyphname = u182E_182E.med;
lastChange = "2020-02-16 15:46:07 +0000";
layers = (
{
layerId = "UUID0";
paths = (
{
closed = 1;
nodes = (
"388 364 LINE",
"598 364 LINE",
"598 444 LINE",
"368 444 LINE",
"367 500 OFFCURVE",
"363 548 OFFCURVE",
"359 589 CURVE",
"374 589 LINE SMOOTH",
"457 589 OFFCURVE",
"508 590 OFFCURVE",
"553 627 CURVE",
"553 705 LINE",
"502 672 OFFCURVE",
"453 669 OFFCURVE",
"374 669 CURVE SMOOTH",
"279 669 LINE",
"279 603 LINE",
"290 558 OFFCURVE",
"297 504 OFFCURVE",
"298 444 CURVE",
"84 444 LINE",
"83 528 OFFCURVE",
"73 606 OFFCURVE",
"54 679 CURVE",
"100 679 LINE SMOOTH",
"140 679 OFFCURVE",
"180 681 OFFCURVE",
"209 700 CURVE",
"209 778 LINE",
"190 765 OFFCURVE",
"154 759 OFFCURVE",
"100 759 CURVE SMOOTH",
"-31 759 LINE",
"-31 693 LINE",
"-3 618 OFFCURVE",
"12 535 OFFCURVE",
"14 444 CURVE",
"0 444 LINE",
"0 364 LINE",
"19 96 LINE",
"85 96 LINE",
"104 364 LINE",
"284 364 LINE",
"303 96 LINE",
"369 96 LINE"
);
}
);
vertWidth = 0;
width = 568;
}
);
note = u182E_182E.med;
},
{
glyphname = u182E_182F.med;
lastChange = "2020-02-16 15:46:16 +0000";
layers = (
{
layerId = "UUID0";
paths = (
{
closed = 1;
nodes = (
"408 364 LINE",
"618 364 LINE",
"618 444 LINE",
"396 444 LINE",
"399 532 OFFCURVE",
"423 609 OFFCURVE",
"472 693 CURVE",
"472 759 LINE",
"362 759 LINE SMOOTH",
"317 759 OFFCURVE",
"274 760 OFFCURVE",
"242 781 CURVE",
"242 703 LINE",
"269 682 OFFCURVE",
"313 679 OFFCURVE",
"362 679 CURVE SMOOTH",
"386 679 LINE",
"349 610 OFFCURVE",
"329 531 OFFCURVE",
"326 444 CURVE",
"104 444 LINE",
"101 504 OFFCURVE",
"86 556 OFFCURVE",
"61 599 CURVE",
"83 599 LINE SMOOTH",
"138 599 OFFCURVE",
"163 603 OFFCURVE",
"182 615 CURVE",
"182 693 LINE",
"157 680 OFFCURVE",
"124 679 OFFCURVE",
"83 679 CURVE SMOOTH",
"-31 679 LINE",
"-31 613 LINE",
"12 553 OFFCURVE",
"32 503 OFFCURVE",
"33 444 CURVE",
"20 444 LINE",
"20 364 LINE",
"39 96 LINE",
"105 96 LINE",
"124 364 LINE",
"304 364 LINE",
"323 96 LINE",
"389 96 LINE"
);
}
);
vertWidth = 0;
width = 588;
}
);
note = u182E_182F.med;
},
{
glyphname = u1830.finV2;
lastChange = "2020-02-16 15:19:08 +0000";
layers = (
{
layerId = "UUID0";
paths = (
{
closed = 1;
nodes = (
"97 106 OFFCURVE",
"93 148 OFFCURVE",
"93 199 CURVE SMOOTH",
"93 350 OFFCURVE",
"124 481 OFFCURVE",
"197 617 CURVE",
"201 617 LINE",
"217 420 OFFCURVE",
"257 248 OFFCURVE",
"334 73 CURVE",
"419 73 LINE",
"374 168 OFFCURVE",
"337 265 OFFCURVE",
"313 364 CURVE",
"611 364 LINE SMOOTH",
"682 364 OFFCURVE",
"709 334 OFFCURVE",
"709 279 CURVE SMOOTH",
"709 230 OFFCURVE",
"702 191 OFFCURVE",
"687 162 CURVE",
"761 162 LINE",
"778 195 OFFCURVE",
"786 234 OFFCURVE",
"786 279 CURVE SMOOTH",
"786 389 OFFCURVE",
"728 444 OFFCURVE",
"611 444 CURVE SMOOTH",
"296 444 LINE",
"279 539 OFFCURVE",
"271 637 OFFCURVE",
"271 734 CURVE",
"190 734 LINE",
"125 645 OFFCURVE",
"79 548 OFFCURVE",
"50 444 CURVE",
"0 444 LINE",
"0 364 LINE SMOOTH",
"0 335 OFFCURVE",
"1 304 OFFCURVE",
"4 269 CURVE SMOOTH",
"8 201 OFFCURVE",
"17 130 OFFCURVE",
"28 73 CURVE",
"105 73 LINE"
);
}
);
vertWidth = 0;
width = 831;
}
);
note = u1830.finV2;
},
{
glyphname = u182F_182F.med;
lastChange = "2020-02-16 15:19:08 +0000";
layers = (
{
layerId = "UUID0";
paths = (
{
closed = 1;
nodes = (
"408 364 LINE",
"618 364 LINE",
"618 444 LINE",
"390 444 LINE",
"393 527 OFFCURVE",
"408 610 OFFCURVE",
"441 693 CURVE",
"441 759 LINE",
"338 759 LINE SMOOTH",
"281 759 OFFCURVE",
"241 760 OFFCURVE",
"209 785 CURVE",
"209 707 LINE",
"240 683 OFFCURVE",
"286 679 OFFCURVE",
"338 679 CURVE SMOOTH",
"356 679 LINE",
"333 607 OFFCURVE",
"321 529 OFFCURVE",
"320 444 CURVE",
"86 444 LINE",
"87 493 OFFCURVE",
"98 546 OFFCURVE",
"117 603 CURVE",
"117 669 LINE",
"26 669 LINE SMOOTH",
"-50 669 OFFCURVE",
"-108 672 OFFCURVE",
"-153 705 CURVE",
"-153 627 LINE",
"-113 592 OFFCURVE",
"-51 589 OFFCURVE",
"26 589 CURVE SMOOTH",
"32 589 LINE",
"23 546 OFFCURVE",
"19 499 OFFCURVE",
"16 444 CURVE",
"0 444 LINE",
"0 364 LINE",
"19 96 LINE",
"85 96 LINE",
"104 364 LINE",
"304 364 LINE",
"323 96 LINE",
"389 96 LINE"
);
}
);
vertWidth = 0;
width = 588;
}
);
note = u182F_182F.med;
},
{
glyphname = u1833.finV1;
lastChange = "2020-02-16 15:19:08 +0000";
layers = (
{
layerId = "UUID0";
paths = (
{
closed = 1;
nodes = (
"351 -157 OFFCURVE",
"381 -149 OFFCURVE",
"408 -134 CURVE SMOOTH",
"460 -103 OFFCURVE",
"491 -46 OFFCURVE",
"491 27 CURVE SMOOTH",
"491 152 OFFCURVE",
"414 232 OFFCURVE",
"290 232 CURVE SMOOTH",
"229 232 OFFCURVE",
"174 201 OFFCURVE",
"142 154 CURVE",
"117 225 OFFCURVE",
"96 295 OFFCURVE",
"79 364 CURVE",
"643 364 LINE SMOOTH",
"714 364 OFFCURVE",
"741 334 OFFCURVE",
"741 279 CURVE SMOOTH",
"741 231 OFFCURVE",
"734 192 OFFCURVE",
"719 162 CURVE",
"793 162 LINE",
"810 195 OFFCURVE",
"818 234 OFFCURVE",
"818 279 CURVE SMOOTH",
"818 389 OFFCURVE",
"760 444 OFFCURVE",
"643 444 CURVE SMOOTH",
"0 444 LINE",
"0 364 LINE",
"11 315 OFFCURVE",
"25 269 OFFCURVE",
"38 222 CURVE SMOOTH",
"66 130 OFFCURVE",
"104 37 OFFCURVE",
"145 -38 CURVE SMOOTH",
"188 -111 OFFCURVE",
"240 -157 OFFCURVE",
"319 -157 CURVE SMOOTH"
);
},
{
closed = 1;
nodes = (
"263 -77 OFFCURVE",
"217 -33 OFFCURVE",
"172 76 CURVE",
"195 123 OFFCURVE",
"239 153 OFFCURVE",
"290 153 CURVE SMOOTH",
"373 153 OFFCURVE",
"413 103 OFFCURVE",
"413 27 CURVE SMOOTH",
"413 -38 OFFCURVE",
"375 -77 OFFCURVE",
"319 -77 CURVE SMOOTH"
);
}
);
vertWidth = 0;
width = 863;
}
);
note = u1833.finV1;
},
{
glyphname = u182D_182F.med;
lastChange = "2020-02-16 15:46:44 +0000";
layers = (
{
layerId = "UUID0";
paths = (
{
closed = 1;
nodes = (
"121 200 OFFCURVE",
"79 296 OFFCURVE",
"79 417 CURVE SMOOTH",
"79 572 OFFCURVE",
"137 644 OFFCURVE",
"229 644 CURVE SMOOTH",
"269 644 OFFCURVE",
"299 633 OFFCURVE",
"320 610 CURVE SMOOTH",
"363 565 OFFCURVE",
"377 477 OFFCURVE",
"385 364 CURVE SMOOTH",
"404 96 LINE",
"470 96 LINE",
"489 364 LINE",
"699 364 LINE",
"699 444 LINE",
"458 444 LINE",
"450 507 OFFCURVE",
"436 560 OFFCURVE",
"417 605 CURVE",
"417 692 OFFCURVE",
"444 767 OFFCURVE",
"499 848 CURVE",
"499 914 LINE",
"379 914 LINE SMOOTH",
"303 914 OFFCURVE",
"247 917 OFFCURVE",
"199 950 CURVE",
"199 872 LINE",
"240 836 OFFCURVE",
"302 834 OFFCURVE",
"379 834 CURVE SMOOTH",
"407 834 LINE",
"382 793 OFFCURVE",
"365 743 OFFCURVE",
"354 688 CURVE",
"320 714 OFFCURVE",
"278 727 OFFCURVE",
"229 727 CURVE SMOOTH",
"182 727 OFFCURVE",
"142 715 OFFCURVE",
"109 690 CURVE SMOOTH",
"40 641 OFFCURVE",
"0 545 OFFCURVE",
"0 417 CURVE SMOOTH",
"0 299 OFFCURVE",
"43 174 OFFCURVE",
"129 42 CURVE",
"200 85 LINE"
);
}
);
vertWidth = 0;
width = 669;
}
);
note = u182D_182F.med;
},
{
glyphname = u182A_1822;
lastChange = "2020-02-16 15:19:08 +0000";
layers = (
{
layerId = "UUID0";
paths = (
{
closed = 1;
nodes = (
"722 113 OFFCURVE",
"669 239 OFFCURVE",
"642 364 CURVE",
"947 364 LINE SMOOTH",
"1018 364 OFFCURVE",
"1045 334 OFFCURVE",
"1045 279 CURVE SMOOTH",
"1045 230 OFFCURVE",
"1038 191 OFFCURVE",
"1023 162 CURVE",
"1097 162 LINE",
"1114 195 OFFCURVE",
"1122 234 OFFCURVE",
"1122 279 CURVE SMOOTH",
"1122 389 OFFCURVE",
"1064 444 OFFCURVE",
"947 444 CURVE SMOOTH",
"627 444 LINE",
"614 513 OFFCURVE",
"597 572 OFFCURVE",
"574 623 CURVE SMOOTH",
"529 724 OFFCURVE",
"453 782 OFFCURVE",
"330 782 CURVE SMOOTH",
"266 782 OFFCURVE",
"213 766 OFFCURVE",
"171 734 CURVE SMOOTH",
"86 669 OFFCURVE",
"45 552 OFFCURVE",
"45 408 CURVE SMOOTH",
"45 163 OFFCURVE",
"120 40 OFFCURVE",
"270 40 CURVE SMOOTH",
"306 40 OFFCURVE",
"337 50 OFFCURVE",
"364 70 CURVE SMOOTH",
"419 110 OFFCURVE",
"451 183 OFFCURVE",
"451 275 CURVE SMOOTH",
"451 288 OFFCURVE",
"450 305 OFFCURVE",
"448 328 CURVE SMOOTH",
"444 372 OFFCURVE",
"436 421 OFFCURVE",
"428 444 CURVE",
"124 444 LINE",
"125 492 OFFCURVE",
"133 535 OFFCURVE",
"148 574 CURVE SMOOTH",
"179 651 OFFCURVE",
"239 699 OFFCURVE",
"330 699 CURVE SMOOTH",
"377 699 OFFCURVE",
"415 688 OFFCURVE",
"444 665 CURVE SMOOTH",
"503 620 OFFCURVE",
"533 533 OFFCURVE",
"552 418 CURVE SMOOTH",
"566 335 OFFCURVE",
"585 259 OFFCURVE",
"609 192 CURVE SMOOTH",
"633 125 OFFCURVE",
"674 40 OFFCURVE",
"729 -67 CURVE",
"802 -31 LINE"
);
},
{
closed = 1;
nodes = (
"173 123 OFFCURVE",
"126 203 OFFCURVE",
"124 364 CURVE",
"362 364 LINE",
"369 350 OFFCURVE",
"372 320 OFFCURVE",
"372 275 CURVE SMOOTH",
"372 190 OFFCURVE",
"337 123 OFFCURVE",
"264 123 CURVE SMOOTH"
);
}
);
vertWidth = 0;
width = 1167;
}
);
note = u182A_1822;
},
{
glyphname = u1838.fin;
lastChange = "2020-02-16 15:19:08 +0000";
layers = (
{
layerId = "UUID0";
paths = (
{
closed = 1;
nodes = (
"348 -119 OFFCURVE",
"376 -108 OFFCURVE",
"392 -85 CURVE",
"392 6 LINE",
"373 -22 OFFCURVE",
"346 -36 OFFCURVE",
"309 -36 CURVE SMOOTH",
"288 -36 OFFCURVE",
"268 -27 OFFCURVE",
"251 -10 CURVE SMOOTH",
"216 25 OFFCURVE",
"187 84 OFFCURVE",
"156 152 CURVE SMOOTH",
"124 224 OFFCURVE",
"99 295 OFFCURVE",
"79 364 CURVE",
"488 364 LINE SMOOTH",
"559 364 OFFCURVE",
"586 334 OFFCURVE",
"586 279 CURVE SMOOTH",
"586 230 OFFCURVE",
"579 191 OFFCURVE",
"564 162 CURVE",
"638 162 LINE",
"655 195 OFFCURVE",
"663 234 OFFCURVE",
"663 279 CURVE SMOOTH",
"663 389 OFFCURVE",
"605 444 OFFCURVE",
"488 444 CURVE SMOOTH",
"0 444 LINE",
"0 364 LINE",
"11 328 OFFCURVE",
"21 294 OFFCURVE",
"32 259 CURVE SMOOTH",
"55 190 OFFCURVE",
"89 97 OFFCURVE",
"132 14 CURVE SMOOTH",
"175 -70 OFFCURVE",
"228 -119 OFFCURVE",
"309 -119 CURVE SMOOTH"
);
}
);
vertWidth = 0;
width = 708;
}
);
note = u1838.fin;
},
{
glyphname = u182A.ini;
lastChange = "2020-02-16 15:19:08 +0000";
layers = (
{
layerId = "UUID0";
paths = (
{
closed = 1;
nodes = (
"273 40 OFFCURVE",
"303 50 OFFCURVE",
"330 70 CURVE SMOOTH",
"383 110 OFFCURVE",
"416 184 OFFCURVE",
"416 275 CURVE SMOOTH",
"416 288 OFFCURVE",
"415 305 OFFCURVE",
"413 328 CURVE SMOOTH",
"409 372 OFFCURVE",
"401 421 OFFCURVE",
"393 444 CURVE",
"89 444 LINE",
"90 493 OFFCURVE",
"99 537 OFFCURVE",
"114 575 CURVE SMOOTH",
"146 651 OFFCURVE",
"209 699 OFFCURVE",
"300 699 CURVE SMOOTH",
"432 699 OFFCURVE",
"517 576 OFFCURVE",
"522 364 CURVE",
"596 364 LINE",
"596 475 OFFCURVE",
"573 580 OFFCURVE",
"522 657 CURVE SMOOTH",
"473 736 OFFCURVE",
"399 782 OFFCURVE",
"300 782 CURVE SMOOTH",
"236 782 OFFCURVE",
"182 766 OFFCURVE",
"139 734 CURVE SMOOTH",
"54 669 OFFCURVE",
"10 552 OFFCURVE",
"10 408 CURVE SMOOTH",
"10 163 OFFCURVE",
"83 40 OFFCURVE",
"238 40 CURVE SMOOTH"
);
},
{
closed = 1;
nodes = (
"138 123 OFFCURVE",
"91 203 OFFCURVE",
"89 364 CURVE",
"327 364 LINE",
"334 350 OFFCURVE",
"337 320 OFFCURVE",
"337 275 CURVE SMOOTH",
"337 190 OFFCURVE",
"302 123 OFFCURVE",
"229 123 CURVE SMOOTH"
);
}
);
vertWidth = 0;
width = 522;
}
);
note = u182A.ini;
},
{
glyphname = u1844.med;
lastChange = "2020-02-16 15:19:08 +0000";
layers = (
{
layerId = "UUID0";
paths = (
{
closed = 1;
nodes = (
"345 108 OFFCURVE",
"306 119 OFFCURVE",
"257 119 CURVE SMOOTH",
"216 119 LINE SMOOTH",
"125 119 OFFCURVE",
"79 167 OFFCURVE",
"79 263 CURVE SMOOTH",
"79 364 LINE",
"514 364 LINE",
"514 444 LINE",
"0 444 LINE",
"0 263 LINE SMOOTH",
"0 110 OFFCURVE",
"77 36 OFFCURVE",
"216 36 CURVE SMOOTH",
"257 36 LINE SMOOTH",
"307 36 OFFCURVE",
"342 27 OFFCURVE",
"362 9 CURVE",
"362 92 LINE"
);
}
);
vertWidth = 0;
width = 484;
}
);
note = u1844.med;
},
{
glyphname = u1845.medV1;
lastChange = "2020-02-16 15:19:08 +0000";
layers = (
{
layerId = "UUID0";
paths = (
{
closed = 1;
nodes = (
"685 110 OFFCURVE",
"650 119 OFFCURVE",
"601 119 CURVE SMOOTH",
"572 119 LINE",
"572 364 LINE",
"858 364 LINE",
"858 444 LINE",
"493 444 LINE",
"493 119 LINE",
"460 119 LINE SMOOTH",
"395 119 OFFCURVE",
"363 154 OFFCURVE",
"363 223 CURVE SMOOTH",
"363 444 LINE",
"0 444 LINE",
"0 364 LINE",
"19 96 LINE",
"85 96 LINE",
"104 364 LINE",
"284 364 LINE",
"284 223 LINE SMOOTH",
"284 98 OFFCURVE",
"343 36 OFFCURVE",
"460 36 CURVE SMOOTH",
"601 36 LINE SMOOTH",
"651 36 OFFCURVE",
"686 27 OFFCURVE",
"706 9 CURVE",
"706 92 LINE"
);
}
);
vertWidth = 0;
width = 828;
}
);
note = u1845.medV1;
},
{
glyphname = u1845.fin;
lastChange = "2020-02-16 15:19:08 +0000";
layers = (
{
layerId = "UUID0";
paths = (
{
closed = 1;
nodes = (
"341 168 OFFCURVE",
"369 257 OFFCURVE",
"369 373 CURVE SMOOTH",
"369 444 OFFCURVE",
"354 505 OFFCURVE",
"324 556 CURVE SMOOTH",
"263 657 OFFCURVE",
"149 714 OFFCURVE",
"0 714 CURVE",
"0 96 LINE",
"79 96 LINE",
"79 629 LINE",
"216 605 OFFCURVE",
"290 516 OFFCURVE",
"290 373 CURVE SMOOTH",
"290 276 OFFCURVE",
"265 204 OFFCURVE",
"209 133 CURVE",
"278 87 LINE"
);
}
);
vertWidth = 0;
width = 414;
}
);
note = u1845.fin;
},
{
glyphname = u1845;
lastChange = "2020-02-16 15:47:20 +0000";
layers = (
{
layerId = "UUID0";
paths = (
{
closed = 1;
nodes = (
"340 256 OFFCURVE",
"345 286 OFFCURVE",
"354 307 CURVE",
"370 350 OFFCURVE",
"408 364 OFFCURVE",
"480 364 CURVE SMOOTH",
"527 364 LINE",
"527 96 LINE",
"606 96 LINE",
"606 629 LINE",
"745 604 OFFCURVE",
"817 514 OFFCURVE",
"817 373 CURVE SMOOTH",
"817 276 OFFCURVE",
"792 204 OFFCURVE",
"736 133 CURVE",
"805 87 LINE",
"868 168 OFFCURVE",
"896 257 OFFCURVE",
"896 373 CURVE SMOOTH",
"896 444 OFFCURVE",
"881 505 OFFCURVE",
"851 556 CURVE SMOOTH",
"790 657 OFFCURVE",
"676 714 OFFCURVE",
"527 714 CURVE",
"527 444 LINE",
"479 444 LINE SMOOTH",
"395 444 OFFCURVE",
"342 416 OFFCURVE",
"320 361 CURVE",
"316 361 LINE",
"313 445 LINE SMOOTH",
"312 488 OFFCURVE",
"308 524 OFFCURVE",
"299 557 CURVE SMOOTH",
"283 620 OFFCURVE",
"247 653 OFFCURVE",
"174 653 CURVE SMOOTH",
"135 653 OFFCURVE",
"92 643 OFFCURVE",
"45 623 CURVE",
"45 550 LINE",
"82 567 OFFCURVE",
"118 575 OFFCURVE",
"153 575 CURVE SMOOTH",
"214 575 OFFCURVE",
"230 520 OFFCURVE",
"235 437 CURVE SMOOTH",
"261 74 LINE",
"327 74 LINE",
"337 219 LINE SMOOTH"
);
}
);
vertWidth = 0;
width = 941;
}
);
note = u1845;
unicode = 1845;
},
{
glyphname = u1844.fin;
lastChange = "2020-02-16 15:19:08 +0000";
layers = (
{
layerId = "UUID0";
paths = (
{
closed = 1;
nodes = (
"345 108 OFFCURVE",
"306 119 OFFCURVE",
"257 119 CURVE SMOOTH",
"216 119 LINE SMOOTH",
"125 119 OFFCURVE",
"79 167 OFFCURVE",
"79 263 CURVE SMOOTH",
"79 364 LINE",
"362 364 LINE",
"362 444 LINE",
"0 444 LINE",
"0 263 LINE SMOOTH",
"0 110 OFFCURVE",
"77 36 OFFCURVE",
"216 36 CURVE SMOOTH",
"257 36 LINE SMOOTH",
"307 36 OFFCURVE",
"342 27 OFFCURVE",
"362 9 CURVE",
"362 92 LINE"
);
}
);
vertWidth = 0;
width = 407;
}
);
note = u1844.fin;
},
{
glyphname = u1844.medV1;
lastChange = "2020-02-16 15:19:08 +0000";
layers = (
{
layerId = "UUID0";
paths = (
{
closed = 1;
nodes = (
"625 110 OFFCURVE",
"590 119 OFFCURVE",
"541 119 CURVE SMOOTH",
"500 119 LINE SMOOTH",
"409 119 OFFCURVE",
"363 167 OFFCURVE",
"363 263 CURVE SMOOTH",
"363 364 LINE",
"798 364 LINE",
"798 444 LINE",
"0 444 LINE",
"0 364 LINE",
"19 96 LINE",
"85 96 LINE",
"104 364 LINE",
"284 364 LINE",
"284 263 LINE SMOOTH",
"284 110 OFFCURVE",
"361 36 OFFCURVE",
"500 36 CURVE SMOOTH",
"541 36 LINE SMOOTH",
"591 36 OFFCURVE",
"626 27 OFFCURVE",
"646 9 CURVE",
"646 92 LINE"
);
}
);
vertWidth = 0;
width = 768;
}
);
note = u1844.medV1;
},
{
glyphname = u1845.ini;
lastChange = "2020-02-16 15:19:08 +0000";
layers = (
{
layerId = "UUID0";
paths = (
{
closed = 1;
nodes = (
"893 110 OFFCURVE",
"858 119 OFFCURVE",
"809 119 CURVE SMOOTH",
"780 119 LINE",
"780 364 LINE",
"1066 364 LINE",
"1066 444 LINE",
"701 444 LINE",
"701 119 LINE",
"668 119 LINE SMOOTH",
"603 119 OFFCURVE",
"571 154 OFFCURVE",
"571 223 CURVE SMOOTH",
"571 444 LINE",
"444 444 LINE SMOOTH",
"360 444 OFFCURVE",
"307 416 OFFCURVE",
"285 361 CURVE",
"281 361 LINE",
"278 445 LINE SMOOTH",
"277 488 OFFCURVE",
"273 524 OFFCURVE",
"264 557 CURVE SMOOTH",
"248 620 OFFCURVE",
"212 653 OFFCURVE",
"139 653 CURVE SMOOTH",
"100 653 OFFCURVE",
"57 643 OFFCURVE",
"10 623 CURVE",
"10 550 LINE",
"47 567 OFFCURVE",
"83 575 OFFCURVE",
"118 575 CURVE SMOOTH",
"181 575 OFFCURVE",
"195 520 OFFCURVE",
"200 437 CURVE SMOOTH",
"226 74 LINE",
"292 74 LINE",
"302 219 LINE SMOOTH",
"305 255 OFFCURVE",
"310 284 OFFCURVE",
"319 305 CURVE",
"335 348 OFFCURVE",
"372 364 OFFCURVE",
"445 364 CURVE SMOOTH",
"492 364 LINE",
"492 223 LINE SMOOTH",
"492 98 OFFCURVE",
"551 36 OFFCURVE",
"668 36 CURVE SMOOTH",
"809 36 LINE SMOOTH",
"859 36 OFFCURVE",
"894 27 OFFCURVE",
"914 9 CURVE",
"914 92 LINE"
);
}
);
vertWidth = 0;
width = 1036;
}
);
note = u1845.ini;
},
{
glyphname = u1844.ini;
lastChange = "2020-02-16 15:19:08 +0000";
layers = (
{
layerId = "UUID0";
paths = (
{
closed = 1;
nodes = (
"833 110 OFFCURVE",
"798 119 OFFCURVE",
"749 119 CURVE SMOOTH",
"708 119 LINE SMOOTH",
"617 119 OFFCURVE",
"571 167 OFFCURVE",
"571 263 CURVE SMOOTH",
"571 364 LINE",
"1006 364 LINE",
"1006 444 LINE",
"444 444 LINE SMOOTH",
"360 444 OFFCURVE",
"307 416 OFFCURVE",
"285 361 CURVE",
"281 361 LINE",
"278 445 LINE SMOOTH",
"277 488 OFFCURVE",
"273 524 OFFCURVE",
"264 557 CURVE SMOOTH",
"248 620 OFFCURVE",
"212 653 OFFCURVE",
"139 653 CURVE SMOOTH",
"100 653 OFFCURVE",
"57 643 OFFCURVE",
"10 623 CURVE",
"10 550 LINE",
"47 567 OFFCURVE",
"83 575 OFFCURVE",
"118 575 CURVE SMOOTH",
"179 575 OFFCURVE",
"195 520 OFFCURVE",
"200 437 CURVE SMOOTH",
"226 74 LINE",
"292 74 LINE",
"302 219 LINE SMOOTH",
"305 255 OFFCURVE",
"310 284 OFFCURVE",
"319 305 CURVE",
"335 348 OFFCURVE",
"372 364 OFFCURVE",
"445 364 CURVE SMOOTH",
"492 364 LINE",
"492 263 LINE SMOOTH",
"492 110 OFFCURVE",
"569 36 OFFCURVE",
"708 36 CURVE SMOOTH",
"749 36 LINE SMOOTH",
"799 36 OFFCURVE",
"834 27 OFFCURVE",
"854 9 CURVE",
"854 92 LINE"
);
}
);
vertWidth = 0;
width = 976;
}
);
note = u1844.ini;
},
{
glyphname = u1844;
lastChange = "2020-02-16 15:19:08 +0000";
layers = (
{
layerId = "UUID0";
paths = (
{
closed = 1;
nodes = (
"868 110 OFFCURVE",
"833 119 OFFCURVE",
"784 119 CURVE SMOOTH",
"743 119 LINE SMOOTH",
"652 119 OFFCURVE",
"606 167 OFFCURVE",
"606 263 CURVE SMOOTH",
"606 364 LINE",
"889 364 LINE",
"889 444 LINE",
"479 444 LINE SMOOTH",
"395 444 OFFCURVE",
"342 416 OFFCURVE",
"320 361 CURVE",
"316 361 LINE",
"313 445 LINE SMOOTH",
"312 488 OFFCURVE",
"308 524 OFFCURVE",
"299 557 CURVE SMOOTH",
"283 620 OFFCURVE",
"247 653 OFFCURVE",
"174 653 CURVE SMOOTH",
"135 653 OFFCURVE",
"92 643 OFFCURVE",
"45 623 CURVE",
"45 550 LINE",
"82 567 OFFCURVE",
"118 575 OFFCURVE",
"153 575 CURVE SMOOTH",
"214 575 OFFCURVE",
"230 520 OFFCURVE",
"235 437 CURVE SMOOTH",
"261 74 LINE",
"327 74 LINE",
"337 219 LINE SMOOTH",
"340 255 OFFCURVE",
"345 284 OFFCURVE",
"354 305 CURVE",
"370 348 OFFCURVE",
"407 364 OFFCURVE",
"480 364 CURVE SMOOTH",
"527 364 LINE",
"527 263 LINE SMOOTH",
"527 110 OFFCURVE",
"604 36 OFFCURVE",
"743 36 CURVE SMOOTH",
"784 36 LINE SMOOTH",
"834 36 OFFCURVE",
"869 27 OFFCURVE",
"889 9 CURVE",
"889 92 LINE"
);
}
);
vertWidth = 0;
width = 934;
}
);
note = u1844;
unicode = 1844;
},
{
glyphname = u1846.ini;
lastChange = "2020-02-16 15:19:08 +0000";
layers = (
{
layerId = "UUID0";
paths = (
{
closed = 1;
nodes = (
"360 444 OFFCURVE",
"307 416 OFFCURVE",
"285 361 CURVE",
"281 361 LINE",
"278 445 LINE SMOOTH",
"277 488 OFFCURVE",
"273 524 OFFCURVE",
"264 557 CURVE SMOOTH",
"248 620 OFFCURVE",
"212 653 OFFCURVE",
"139 653 CURVE SMOOTH",
"100 653 OFFCURVE",
"57 643 OFFCURVE",
"10 623 CURVE",
"10 550 LINE",
"47 567 OFFCURVE",
"83 575 OFFCURVE",
"118 575 CURVE SMOOTH",
"179 575 OFFCURVE",
"195 520 OFFCURVE",
"200 437 CURVE SMOOTH",
"226 74 LINE",
"292 74 LINE",
"302 219 LINE SMOOTH",
"305 255 OFFCURVE",
"310 284 OFFCURVE",
"319 305 CURVE",
"335 348 OFFCURVE",
"372 364 OFFCURVE",
"445 364 CURVE SMOOTH",
"492 364 LINE",
"492 267 LINE SMOOTH",
"492 154 OFFCURVE",
"549 74 OFFCURVE",
"668 47 CURVE SMOOTH",
"870 3 LINE",
"870 364 LINE",
"1082 364 LINE",
"1082 444 LINE",
"444 444 LINE SMOOTH"
);
},
{
closed = 1;
nodes = (
"610 146 OFFCURVE",
"571 196 OFFCURVE",
"571 267 CURVE SMOOTH",
"571 364 LINE",
"792 364 LINE",
"792 104 LINE",
"690 127 LINE SMOOTH"
);
}
);
vertWidth = 0;
width = 1052;
}
);
note = u1846.ini;
},
{
glyphname = u1846;
lastChange = "2020-02-16 15:19:08 +0000";
layers = (
{
layerId = "UUID0";
paths = (
{
closed = 1;
nodes = (
"395 444 OFFCURVE",
"342 416 OFFCURVE",
"320 361 CURVE",
"316 361 LINE",
"313 445 LINE SMOOTH",
"312 488 OFFCURVE",
"308 524 OFFCURVE",
"299 557 CURVE SMOOTH",
"283 620 OFFCURVE",
"247 653 OFFCURVE",
"174 653 CURVE SMOOTH",
"135 653 OFFCURVE",
"92 643 OFFCURVE",
"45 623 CURVE",
"45 550 LINE",
"82 567 OFFCURVE",
"118 575 OFFCURVE",
"153 575 CURVE SMOOTH",
"214 575 OFFCURVE",
"230 520 OFFCURVE",
"235 437 CURVE SMOOTH",
"261 74 LINE",
"327 74 LINE",
"337 219 LINE SMOOTH",
"340 256 OFFCURVE",
"345 286 OFFCURVE",
"354 307 CURVE",
"370 350 OFFCURVE",
"408 364 OFFCURVE",
"480 364 CURVE SMOOTH",
"527 364 LINE",
"527 267 LINE SMOOTH",
"527 154 OFFCURVE",
"584 74 OFFCURVE",
"703 47 CURVE SMOOTH",
"905 3 LINE",
"905 444 LINE",
"479 444 LINE SMOOTH"
);
},
{
closed = 1;
nodes = (
"645 146 OFFCURVE",
"606 196 OFFCURVE",
"606 267 CURVE SMOOTH",
"606 364 LINE",
"827 364 LINE",
"827 104 LINE",
"725 127 LINE SMOOTH"
);
}
);
vertWidth = 0;
width = 950;
}
);
note = u1846;
unicode = 1846;
},
{
glyphname = u1847;
lastChange = "2020-02-16 15:19:08 +0000";
layers = (
{
layerId = "UUID0";
paths = (
{
closed = 1;
nodes = (
"874 -38 OFFCURVE",
"850 7 OFFCURVE",
"827 58 CURVE",
"890 91 OFFCURVE",
"932 167 OFFCURVE",
"932 275 CURVE SMOOTH",
"932 291 OFFCURVE",
"931 309 OFFCURVE",
"929 330 CURVE SMOOTH",
"925 373 OFFCURVE",
"918 417 OFFCURVE",
"909 444 CURVE",
"605 444 LINE",
"606 493 OFFCURVE",
"615 537 OFFCURVE",
"630 575 CURVE SMOOTH",
"662 651 OFFCURVE",
"724 699 OFFCURVE",
"816 699 CURVE SMOOTH",
"863 699 OFFCURVE",
"902 686 OFFCURVE",
"933 659 CURVE SMOOTH",
"996 606 OFFCURVE",
"1029 514 OFFCURVE",
"1036 409 CURVE",
"1116 419 LINE",
"1111 515 OFFCURVE",
"1081 604 OFFCURVE",
"1030 672 CURVE SMOOTH",
"979 740 OFFCURVE",
"907 782 OFFCURVE",
"816 782 CURVE SMOOTH",
"756 782 OFFCURVE",
"705 768 OFFCURVE",
"664 740 CURVE SMOOTH",
"580 683 OFFCURVE",
"535 579 OFFCURVE",
"527 444 CURVE",
"479 444 LINE SMOOTH",
"395 444 OFFCURVE",
"342 416 OFFCURVE",
"320 361 CURVE",
"316 361 LINE",
"313 445 LINE SMOOTH",
"312 488 OFFCURVE",
"308 524 OFFCURVE",
"299 557 CURVE SMOOTH",
"283 620 OFFCURVE",
"247 653 OFFCURVE",
"174 653 CURVE SMOOTH",
"135 653 OFFCURVE",
"92 643 OFFCURVE",
"45 623 CURVE",
"45 550 LINE",
"82 567 OFFCURVE",
"118 575 OFFCURVE",
"153 575 CURVE SMOOTH",
"214 575 OFFCURVE",
"230 520 OFFCURVE",
"235 437 CURVE SMOOTH",
"261 74 LINE",
"327 74 LINE",
"337 219 LINE SMOOTH",
"340 255 OFFCURVE",
"345 284 OFFCURVE",
"354 305 CURVE",
"370 348 OFFCURVE",
"407 364 OFFCURVE",
"480 364 CURVE SMOOTH",
"526 364 LINE",
"537 144 OFFCURVE",
"608 43 OFFCURVE",
"747 40 CURVE",
"770 -9 OFFCURVE",
"796 -64 OFFCURVE",
"827 -121 CURVE",
"898 -81 LINE"
);
},
{
closed = 1;
nodes = (
"654 123 OFFCURVE",
"608 203 OFFCURVE",
"605 364 CURVE",
"843 364 LINE",
"850 348 OFFCURVE",
"853 318 OFFCURVE",
"853 275 CURVE SMOOTH",
"853 190 OFFCURVE",
"818 123 OFFCURVE",
"745 123 CURVE SMOOTH"
);
}
);
vertWidth = 0;
width = 1161;
}
);
note = u1847;
unicode = 1847;
},
{
glyphname = u1847.V1;
lastChange = "2020-02-16 15:19:08 +0000";
layers = (
{
layerId = "UUID0";
paths = (
{
closed = 1;
nodes = (
"849 -37 OFFCURVE",
"826 9 OFFCURVE",
"805 54 CURVE",
"877 81 OFFCURVE",
"922 145 OFFCURVE",
"922 249 CURVE SMOOTH",
"922 312 OFFCURVE",
"904 392 OFFCURVE",
"875 444 CURVE",
"479 444 LINE SMOOTH",
"395 444 OFFCURVE",
"342 416 OFFCURVE",
"320 361 CURVE",
"316 361 LINE",
"313 445 LINE SMOOTH",
"312 488 OFFCURVE",
"308 524 OFFCURVE",
"299 557 CURVE SMOOTH",
"283 620 OFFCURVE",
"247 653 OFFCURVE",
"174 653 CURVE SMOOTH",
"135 653 OFFCURVE",
"92 643 OFFCURVE",
"45 623 CURVE",
"45 550 LINE",
"82 567 OFFCURVE",
"118 575 OFFCURVE",
"153 575 CURVE SMOOTH",
"214 575 OFFCURVE",
"230 520 OFFCURVE",
"235 437 CURVE SMOOTH",
"261 74 LINE",
"327 74 LINE",
"337 219 LINE SMOOTH",
"340 256 OFFCURVE",
"345 286 OFFCURVE",
"354 307 CURVE",
"370 350 OFFCURVE",
"408 364 OFFCURVE",
"480 364 CURVE SMOOTH",
"547 364 LINE",
"534 328 OFFCURVE",
"527 290 OFFCURVE",
"527 249 CURVE SMOOTH",
"527 116 OFFCURVE",
"598 40 OFFCURVE",
"723 40 CURVE",
"746 -9 OFFCURVE",
"772 -64 OFFCURVE",
"803 -121 CURVE",
"874 -81 LINE"
);
},
{
closed = 1;
nodes = (
"645 123 OFFCURVE",
"606 166 OFFCURVE",
"606 251 CURVE SMOOTH",
"606 290 OFFCURVE",
"613 327 OFFCURVE",
"626 364 CURVE",
"821 364 LINE",
"836 334 OFFCURVE",
"843 296 OFFCURVE",
"843 251 CURVE SMOOTH",
"843 166 OFFCURVE",
"799 123 OFFCURVE",
"724 123 CURVE SMOOTH"
);
}
);
vertWidth = 0;
width = 967;
}
);
note = u1847.V1;
},
{
glyphname = u1847.ini;
lastChange = "2020-02-16 15:19:08 +0000";
layers = (
{
layerId = "UUID0";
paths = (
{
closed = 1;
nodes = (
"814 -37 OFFCURVE",
"791 9 OFFCURVE",
"770 54 CURVE",
"842 81 OFFCURVE",
"887 145 OFFCURVE",
"887 249 CURVE SMOOTH",
"887 297 OFFCURVE",
"880 335 OFFCURVE",
"865 364 CURVE",
"1095 364 LINE",
"1095 444 LINE",
"444 444 LINE SMOOTH",
"360 444 OFFCURVE",
"307 416 OFFCURVE",
"285 361 CURVE",
"281 361 LINE",
"278 445 LINE SMOOTH",
"277 488 OFFCURVE",
"273 524 OFFCURVE",
"264 557 CURVE SMOOTH",
"248 620 OFFCURVE",
"212 653 OFFCURVE",
"139 653 CURVE SMOOTH",
"100 653 OFFCURVE",
"57 643 OFFCURVE",
"10 623 CURVE",
"10 550 LINE",
"47 567 OFFCURVE",
"83 575 OFFCURVE",
"118 575 CURVE SMOOTH",
"179 575 OFFCURVE",
"195 520 OFFCURVE",
"200 437 CURVE SMOOTH",
"226 74 LINE",
"292 74 LINE",
"302 219 LINE SMOOTH",
"305 255 OFFCURVE",
"310 284 OFFCURVE",
"319 305 CURVE",
"335 348 OFFCURVE",
"372 364 OFFCURVE",
"445 364 CURVE SMOOTH",
"512 364 LINE",
"499 328 OFFCURVE",
"492 290 OFFCURVE",
"492 249 CURVE SMOOTH",
"492 116 OFFCURVE",
"563 40 OFFCURVE",
"688 40 CURVE",
"711 -9 OFFCURVE",
"737 -64 OFFCURVE",
"768 -121 CURVE",
"839 -81 LINE"
);
},
{
closed = 1;
nodes = (
"610 123 OFFCURVE",
"571 166 OFFCURVE",
"571 251 CURVE SMOOTH",
"571 290 OFFCURVE",
"578 327 OFFCURVE",
"591 364 CURVE",
"788 364 LINE",
"801 327 OFFCURVE",
"808 290 OFFCURVE",
"808 251 CURVE SMOOTH",
"808 166 OFFCURVE",
"764 123 OFFCURVE",
"689 123 CURVE SMOOTH"
);
}
);
vertWidth = 0;
width = 1065;
}
);
note = u1847.ini;
},
{
glyphname = u1847.med;
lastChange = "2020-02-16 15:19:08 +0000";
layers = (
{
layerId = "UUID0";
paths = (
{
closed = 1;
nodes = (
"319 -30 OFFCURVE",
"297 14 OFFCURVE",
"278 53 CURVE",
"351 80 OFFCURVE",
"395 152 OFFCURVE",
"395 249 CURVE SMOOTH",
"395 297 OFFCURVE",
"388 335 OFFCURVE",
"373 364 CURVE",
"603 364 LINE",
"603 444 LINE",
"0 444 LINE",
"0 364 LINE",
"20 364 LINE",
"7 328 OFFCURVE",
"0 290 OFFCURVE",
"0 249 CURVE SMOOTH",
"0 117 OFFCURVE",
"69 40 OFFCURVE",
"196 40 CURVE",
"220 -13 OFFCURVE",
"247 -66 OFFCURVE",
"276 -121 CURVE",
"347 -81 LINE"
);
},
{
closed = 1;
nodes = (
"118 123 OFFCURVE",
"79 166 OFFCURVE",
"79 251 CURVE SMOOTH",
"79 290 OFFCURVE",
"86 328 OFFCURVE",
"99 364 CURVE",
"296 364 LINE",
"309 328 OFFCURVE",
"316 290 OFFCURVE",
"316 251 CURVE SMOOTH",
"316 166 OFFCURVE",
"272 123 OFFCURVE",
"197 123 CURVE SMOOTH"
);
}
);
vertWidth = 0;
width = 573;
}
);
note = u1847.med;
},
{
glyphname = u1847.medV1;
lastChange = "2020-02-16 15:19:08 +0000";
layers = (
{
layerId = "UUID0";
paths = (
{
closed = 1;
nodes = (
"606 -37 OFFCURVE",
"583 9 OFFCURVE",
"562 54 CURVE",
"634 81 OFFCURVE",
"679 145 OFFCURVE",
"679 249 CURVE SMOOTH",
"679 297 OFFCURVE",
"672 335 OFFCURVE",
"657 364 CURVE",
"887 364 LINE",
"887 444 LINE",
"0 444 LINE",
"0 364 LINE",
"19 96 LINE",
"85 96 LINE",
"104 364 LINE",
"304 364 LINE",
"291 328 OFFCURVE",
"284 290 OFFCURVE",
"284 249 CURVE SMOOTH",
"284 116 OFFCURVE",
"355 40 OFFCURVE",
"480 40 CURVE",
"503 -9 OFFCURVE",
"529 -64 OFFCURVE",
"560 -121 CURVE",
"631 -81 LINE"
);
},
{
closed = 1;
nodes = (
"402 123 OFFCURVE",
"363 166 OFFCURVE",
"363 251 CURVE SMOOTH",
"363 290 OFFCURVE",
"370 327 OFFCURVE",
"383 364 CURVE",
"580 364 LINE",
"593 327 OFFCURVE",
"600 290 OFFCURVE",
"600 251 CURVE SMOOTH",
"600 166 OFFCURVE",
"556 123 OFFCURVE",
"481 123 CURVE SMOOTH"
);
}
);
vertWidth = 0;
width = 857;
}
);
note = u1847.medV1;
},
{
glyphname = u1847.fin;
lastChange = "2020-02-16 15:19:08 +0000";
layers = (
{
layerId = "UUID0";
paths = (
{
closed = 1;
nodes = (
"347 -36 OFFCURVE",
"324 10 OFFCURVE",
"301 58 CURVE",
"364 91 OFFCURVE",
"406 167 OFFCURVE",
"406 275 CURVE SMOOTH",
"406 290 OFFCURVE",
"405 307 OFFCURVE",
"403 328 CURVE SMOOTH",
"399 371 OFFCURVE",
"392 417 OFFCURVE",
"383 444 CURVE",
"79 444 LINE",
"80 492 OFFCURVE",
"88 536 OFFCURVE",
"105 576 CURVE SMOOTH",
"137 652 OFFCURVE",
"198 699 OFFCURVE",
"290 699 CURVE SMOOTH",
"336 699 OFFCURVE",
"375 686 OFFCURVE",
"406 661 CURVE SMOOTH",
"469 609 OFFCURVE",
"502 518 OFFCURVE",
"510 409 CURVE",
"590 419 LINE",
"583 516 OFFCURVE",
"554 606 OFFCURVE",
"503 674 CURVE SMOOTH",
"452 741 OFFCURVE",
"381 782 OFFCURVE",
"290 782 CURVE SMOOTH",
"226 782 OFFCURVE",
"172 766 OFFCURVE",
"129 734 CURVE SMOOTH",
"44 669 OFFCURVE",
"0 552 OFFCURVE",
"0 408 CURVE SMOOTH",
"0 168 OFFCURVE",
"69 43 OFFCURVE",
"221 40 CURVE",
"242 -8 OFFCURVE",
"268 -62 OFFCURVE",
"301 -121 CURVE",
"372 -81 LINE"
);
},
{
closed = 1;
nodes = (
"128 123 OFFCURVE",
"82 203 OFFCURVE",
"79 364 CURVE",
"317 364 LINE",
"324 348 OFFCURVE",
"327 318 OFFCURVE",
"327 275 CURVE SMOOTH",
"327 190 OFFCURVE",
"292 123 OFFCURVE",
"219 123 CURVE SMOOTH"
);
}
);
vertWidth = 0;
width = 635;
}
);
note = u1847.fin;
},
{
glyphname = u1848;
lastChange = "2020-02-16 15:19:08 +0000";
layers = (
{
layerId = "UUID0";
paths = (
{
closed = 1;
nodes = (
"602 519 OFFCURVE",
"567 590 OFFCURVE",
"528 661 CURVE",
"457 621 LINE",
"490 560 OFFCURVE",
"520 500 OFFCURVE",
"545 444 CURVE",
"444 444 LINE SMOOTH",
"360 444 OFFCURVE",
"307 416 OFFCURVE",
"285 361 CURVE",
"281 361 LINE",
"278 445 LINE SMOOTH",
"277 488 OFFCURVE",
"273 524 OFFCURVE",
"264 557 CURVE SMOOTH",
"248 620 OFFCURVE",
"212 653 OFFCURVE",
"139 653 CURVE SMOOTH",
"100 653 OFFCURVE",
"57 643 OFFCURVE",
"10 623 CURVE",
"10 550 LINE",
"47 567 OFFCURVE",
"83 575 OFFCURVE",
"118 575 CURVE SMOOTH",
"181 575 OFFCURVE",
"195 522 OFFCURVE",
"200 437 CURVE SMOOTH",
"226 74 LINE",
"292 74 LINE",
"302 219 LINE SMOOTH",
"305 255 OFFCURVE",
"310 284 OFFCURVE",
"319 305 CURVE",
"335 348 OFFCURVE",
"372 364 OFFCURVE",
"445 364 CURVE SMOOTH",
"492 364 LINE",
"492 267 LINE SMOOTH",
"492 154 OFFCURVE",
"549 74 OFFCURVE",
"668 47 CURVE SMOOTH",
"870 3 LINE",
"870 444 LINE",
"631 444 LINE"
);
},
{
closed = 1;
nodes = (
"610 146 OFFCURVE",
"571 196 OFFCURVE",
"571 267 CURVE SMOOTH",
"571 364 LINE",
"792 364 LINE",
"792 104 LINE",
"690 127 LINE SMOOTH"
);
}
);
vertWidth = 0;
width = 915;
}
);
note = u1848;
unicode = 1848;
},
{
glyphname = u1848.ini;
lastChange = "2020-02-16 15:19:08 +0000";
layers = (
{
layerId = "UUID0";
paths = (
{
closed = 1;
nodes = (
"602 519 OFFCURVE",
"567 590 OFFCURVE",
"528 661 CURVE",
"457 621 LINE",
"490 560 OFFCURVE",
"520 500 OFFCURVE",
"545 444 CURVE",
"444 444 LINE SMOOTH",
"360 444 OFFCURVE",
"307 416 OFFCURVE",
"285 361 CURVE",
"281 361 LINE",
"278 445 LINE SMOOTH",
"277 488 OFFCURVE",
"273 524 OFFCURVE",
"264 557 CURVE SMOOTH",
"248 620 OFFCURVE",
"212 653 OFFCURVE",
"139 653 CURVE SMOOTH",
"100 653 OFFCURVE",
"57 643 OFFCURVE",
"10 623 CURVE",
"10 550 LINE",
"47 567 OFFCURVE",
"83 575 OFFCURVE",
"118 575 CURVE SMOOTH",
"179 575 OFFCURVE",
"195 520 OFFCURVE",
"200 437 CURVE SMOOTH",
"226 74 LINE",
"292 74 LINE",
"302 219 LINE SMOOTH",
"305 255 OFFCURVE",
"310 284 OFFCURVE",
"319 305 CURVE",
"335 348 OFFCURVE",
"372 364 OFFCURVE",
"445 364 CURVE SMOOTH",
"492 364 LINE",
"492 267 LINE SMOOTH",
"492 154 OFFCURVE",
"549 74 OFFCURVE",
"668 47 CURVE SMOOTH",
"870 3 LINE",
"870 364 LINE",
"1082 364 LINE",
"1082 444 LINE",
"631 444 LINE"
);
},
{
closed = 1;
nodes = (
"610 146 OFFCURVE",
"571 196 OFFCURVE",
"571 267 CURVE SMOOTH",
"571 364 LINE",
"792 364 LINE",
"792 104 LINE",
"690 127 LINE SMOOTH"
);
}
);
vertWidth = 0;
width = 1052;
}
);
note = u1848.ini;
},
{
glyphname = u1848.med;
lastChange = "2020-02-16 15:19:08 +0000";
layers = (
{
layerId = "UUID0";
paths = (
{
closed = 1;
nodes = (
"208 513 OFFCURVE",
"174 585 OFFCURVE",
"133 661 CURVE",
"62 621 LINE",
"89 576 OFFCURVE",
"118 516 OFFCURVE",
"150 444 CURVE",
"0 444 LINE",
"0 267 LINE SMOOTH",
"0 154 OFFCURVE",
"57 74 OFFCURVE",
"176 47 CURVE SMOOTH",
"378 3 LINE",
"378 364 LINE",
"590 364 LINE",
"590 444 LINE",
"236 444 LINE"
);
},
{
closed = 1;
nodes = (
"118 146 OFFCURVE",
"79 196 OFFCURVE",
"79 267 CURVE SMOOTH",
"79 364 LINE",
"300 364 LINE",
"300 104 LINE",
"198 127 LINE SMOOTH"
);
}
);
vertWidth = 0;
width = 560;
}
);
note = u1848.med;
},
{
glyphname = u1848.medV1;
lastChange = "2020-02-16 15:19:08 +0000";
layers = (
{
layerId = "UUID0";
paths = (
{
closed = 1;
nodes = (
"394 519 OFFCURVE",
"359 590 OFFCURVE",
"320 661 CURVE",
"249 621 LINE",
"276 573 OFFCURVE",
"305 515 OFFCURVE",
"337 444 CURVE",
"0 444 LINE",
"0 364 LINE",
"19 96 LINE",
"85 96 LINE",
"104 364 LINE",
"284 364 LINE",
"284 267 LINE SMOOTH",
"284 154 OFFCURVE",
"341 74 OFFCURVE",
"460 47 CURVE SMOOTH",
"662 3 LINE",
"662 364 LINE",
"874 364 LINE",
"874 444 LINE",
"423 444 LINE"
);
},
{
closed = 1;
nodes = (
"402 146 OFFCURVE",
"363 196 OFFCURVE",
"363 267 CURVE SMOOTH",
"363 364 LINE",
"584 364 LINE",
"584 104 LINE",
"482 127 LINE SMOOTH"
);
}
);
vertWidth = 0;
width = 844;
}
);
note = u1848.medV1;
},
{
glyphname = u1848.fin;
lastChange = "2020-02-16 15:19:08 +0000";
layers = (
{
layerId = "UUID0";
paths = (
{
closed = 1;
nodes = (
"208 513 OFFCURVE",
"174 585 OFFCURVE",
"133 661 CURVE",
"62 621 LINE",
"93 566 OFFCURVE",
"122 507 OFFCURVE",
"150 444 CURVE",
"0 444 LINE",
"0 267 LINE SMOOTH",
"0 154 OFFCURVE",
"57 74 OFFCURVE",
"176 47 CURVE SMOOTH",
"378 3 LINE",
"378 444 LINE",
"236 444 LINE"
);
},
{
closed = 1;
nodes = (
"118 146 OFFCURVE",
"79 196 OFFCURVE",
"79 267 CURVE SMOOTH",
"79 364 LINE",
"300 364 LINE",
"300 104 LINE",
"198 127 LINE SMOOTH"
);
}
);
vertWidth = 0;
width = 423;
}
);
note = u1848.fin;
},
{
glyphname = u184A;
lastChange = "2020-02-16 15:19:08 +0000";
layers = (
{
layerId = "UUID0";
paths = (
{
closed = 1;
nodes = (
"831 -240 OFFCURVE",
"824 -214 OFFCURVE",
"824 -187 CURVE SMOOTH",
"824 -168 OFFCURVE",
"827 -150 OFFCURVE",
"832 -132 CURVE",
"843 -100 OFFCURVE",
"862 -71 OFFCURVE",
"891 -31 CURVE SMOOTH",
"966 68 OFFCURVE",
"1024 152 OFFCURVE",
"1024 245 CURVE SMOOTH",
"1024 373 OFFCURVE",
"948 444 OFFCURVE",
"793 444 CURVE SMOOTH",
"45 444 LINE",
"45 364 LINE",
"64 96 LINE",
"130 96 LINE",
"149 364 LINE",
"329 364 LINE",
"329 263 LINE SMOOTH",
"329 110 OFFCURVE",
"406 36 OFFCURVE",
"545 36 CURVE SMOOTH",
"586 36 LINE SMOOTH",
"636 36 OFFCURVE",
"671 27 OFFCURVE",
"691 9 CURVE",
"691 92 LINE",
"670 110 OFFCURVE",
"635 119 OFFCURVE",
"586 119 CURVE SMOOTH",
"545 119 LINE SMOOTH",
"454 119 OFFCURVE",
"408 167 OFFCURVE",
"408 263 CURVE SMOOTH",
"408 364 LINE",
"792 364 LINE SMOOTH",
"899 364 OFFCURVE",
"946 325 OFFCURVE",
"946 245 CURVE SMOOTH",
"946 177 OFFCURVE",
"907 116 OFFCURVE",
"839 28 CURVE SMOOTH",
"783 -44 OFFCURVE",
"744 -108 OFFCURVE",
"744 -187 CURVE SMOOTH",
"744 -218 OFFCURVE",
"750 -243 OFFCURVE",
"763 -264 CURVE",
"845 -264 LINE"
);
}
);
vertWidth = 0;
width = 1069;
}
);
note = u184A;
unicode = 184A;
},
{
glyphname = u184B;
lastChange = "2020-02-16 15:19:08 +0000";
layers = (
{
layerId = "UUID0";
paths = (
{
closed = 1;
nodes = (
"687 -240 OFFCURVE",
"680 -214 OFFCURVE",
"680 -187 CURVE SMOOTH",
"680 -168 OFFCURVE",
"683 -150 OFFCURVE",
"688 -132 CURVE",
"699 -100 OFFCURVE",
"718 -71 OFFCURVE",
"747 -31 CURVE SMOOTH",
"822 68 OFFCURVE",
"880 153 OFFCURVE",
"880 245 CURVE SMOOTH",
"880 373 OFFCURVE",
"804 444 OFFCURVE",
"649 444 CURVE SMOOTH",
"90 444 LINE",
"59 392 OFFCURVE",
"45 336 OFFCURVE",
"45 260 CURVE SMOOTH",
"45 123 OFFCURVE",
"111 40 OFFCURVE",
"242 40 CURVE SMOOTH",
"369 40 OFFCURVE",
"440 124 OFFCURVE",
"440 249 CURVE SMOOTH",
"440 290 OFFCURVE",
"433 328 OFFCURVE",
"420 364 CURVE",
"648 364 LINE SMOOTH",
"755 364 OFFCURVE",
"802 325 OFFCURVE",
"802 245 CURVE SMOOTH",
"802 174 OFFCURVE",
"759 112 OFFCURVE",
"695 28 CURVE SMOOTH",
"640 -45 OFFCURVE",
"600 -108 OFFCURVE",
"600 -187 CURVE SMOOTH",
"600 -218 OFFCURVE",
"606 -243 OFFCURVE",
"619 -264 CURVE",
"701 -264 LINE"
);
},
{
closed = 1;
nodes = (
"163 123 OFFCURVE",
"124 169 OFFCURVE",
"124 262 CURVE SMOOTH",
"124 297 OFFCURVE",
"131 331 OFFCURVE",
"144 364 CURVE",
"341 364 LINE",
"354 328 OFFCURVE",
"361 290 OFFCURVE",
"361 251 CURVE SMOOTH",
"361 166 OFFCURVE",
"315 123 OFFCURVE",
"242 123 CURVE SMOOTH"
);
}
);
vertWidth = 0;
width = 925;
}
);
note = u184B;
unicode = 184B;
},
{
glyphname = u184B.fin;
lastChange = "2020-02-16 15:19:08 +0000";
layers = (
{
layerId = "UUID0";
paths = (
{
closed = 1;
nodes = (
"642 -238 OFFCURVE",
"635 -212 OFFCURVE",
"635 -187 CURVE SMOOTH",
"635 -166 OFFCURVE",
"637 -147 OFFCURVE",
"642 -132 CURVE",
"650 -101 OFFCURVE",
"670 -74 OFFCURVE",
"702 -31 CURVE SMOOTH",
"777 66 OFFCURVE",
"835 156 OFFCURVE",
"835 245 CURVE SMOOTH",
"835 373 OFFCURVE",
"759 444 OFFCURVE",
"604 444 CURVE SMOOTH",
"0 444 LINE",
"0 364 LINE",
"20 364 LINE",
"7 328 OFFCURVE",
"0 290 OFFCURVE",
"0 249 CURVE SMOOTH",
"0 116 OFFCURVE",
"69 40 OFFCURVE",
"197 40 CURVE SMOOTH",
"324 40 OFFCURVE",
"395 124 OFFCURVE",
"395 249 CURVE SMOOTH",
"395 297 OFFCURVE",
"388 335 OFFCURVE",
"373 364 CURVE",
"603 364 LINE SMOOTH",
"710 364 OFFCURVE",
"757 325 OFFCURVE",
"757 245 CURVE SMOOTH",
"757 177 OFFCURVE",
"718 116 OFFCURVE",
"650 28 CURVE SMOOTH",
"595 -44 OFFCURVE",
"555 -110 OFFCURVE",
"555 -187 CURVE SMOOTH",
"555 -218 OFFCURVE",
"561 -243 OFFCURVE",
"574 -264 CURVE",
"656 -264 LINE"
);
},
{
closed = 1;
nodes = (
"118 123 OFFCURVE",
"79 166 OFFCURVE",
"79 251 CURVE SMOOTH",
"79 290 OFFCURVE",
"86 328 OFFCURVE",
"99 364 CURVE",
"296 364 LINE",
"309 328 OFFCURVE",
"316 290 OFFCURVE",
"316 251 CURVE SMOOTH",
"316 166 OFFCURVE",
"272 123 OFFCURVE",
"197 123 CURVE SMOOTH"
);
}
);
vertWidth = 0;
width = 880;
}
);
note = u184B.fin;
},
{
glyphname = u184B_1848;
lastChange = "2020-02-16 15:19:08 +0000";
layers = (
{
layerId = "UUID0";
paths = (
{
closed = 1;
nodes = (
"312 40 OFFCURVE",
"371 72 OFFCURVE",
"396 135 CURVE",
"424 71 OFFCURVE",
"474 40 OFFCURVE",
"538 40 CURVE SMOOTH",
"683 40 OFFCURVE",
"752 146 OFFCURVE",
"752 375 CURVE SMOOTH",
"752 446 OFFCURVE",
"741 510 OFFCURVE",
"719 568 CURVE SMOOTH",
"675 683 OFFCURVE",
"589 761 OFFCURVE",
"461 778 CURVE",
"440 827 OFFCURVE",
"412 886 OFFCURVE",
"376 953 CURVE",
"305 913 LINE",
"336 857 OFFCURVE",
"357 813 OFFCURVE",
"372 780 CURVE",
"303 775 OFFCURVE",
"243 754 OFFCURVE",
"194 719 CURVE SMOOTH",
"97 647 OFFCURVE",
"45 526 OFFCURVE",
"45 375 CURVE SMOOTH",
"45 155 OFFCURVE",
"108 40 OFFCURVE",
"249 40 CURVE SMOOTH"
);
},
{
closed = 1;
nodes = (
"148 605 OFFCURVE",
"234 699 OFFCURVE",
"405 699 CURVE SMOOTH",
"455 699 OFFCURVE",
"499 688 OFFCURVE",
"536 667 CURVE SMOOTH",
"609 624 OFFCURVE",
"655 545 OFFCURVE",
"668 444 CURVE",
"127 444 LINE"
);
},
{
closed = 1;
nodes = (
"213 123 OFFCURVE",
"187 133 OFFCURVE",
"170 154 CURVE",
"134 194 OFFCURVE",
"124 269 OFFCURVE",
"124 364 CURVE",
"359 364 LINE",
"359 283 LINE SMOOTH",
"359 192 OFFCURVE",
"323 123 OFFCURVE",
"248 123 CURVE SMOOTH"
);
},
{
closed = 1;
nodes = (
"471 123 OFFCURVE",
"438 177 OFFCURVE",
"438 286 CURVE SMOOTH",
"438 364 LINE",
"673 364 LINE",
"672 305 OFFCURVE",
"667 258 OFFCURVE",
"658 223 CURVE SMOOTH",
"641 152 OFFCURVE",
"605 123 OFFCURVE",
"538 123 CURVE SMOOTH"
);
}
);
vertWidth = 0;
width = 797;
}
);
note = u184B_1848;
},
{
glyphname = u184B_1848.ini;
lastChange = "2020-02-16 15:19:08 +0000";
layers = (
{
layerId = "UUID0";
paths = (
{
closed = 1;
nodes = (
"277 40 OFFCURVE",
"336 72 OFFCURVE",
"361 135 CURVE",
"389 71 OFFCURVE",
"439 40 OFFCURVE",
"503 40 CURVE SMOOTH",
"645 40 OFFCURVE",
"716 148 OFFCURVE",
"717 364 CURVE",
"928 364 LINE",
"928 444 LINE",
"713 444 LINE",
"707 503 OFFCURVE",
"692 557 OFFCURVE",
"668 605 CURVE SMOOTH",
"619 700 OFFCURVE",
"537 765 OFFCURVE",
"426 778 CURVE",
"405 827 OFFCURVE",
"377 886 OFFCURVE",
"341 953 CURVE",
"270 913 LINE",
"301 857 OFFCURVE",
"322 813 OFFCURVE",
"337 780 CURVE",
"268 775 OFFCURVE",
"208 754 OFFCURVE",
"159 719 CURVE SMOOTH",
"62 647 OFFCURVE",
"10 526 OFFCURVE",
"10 375 CURVE SMOOTH",
"10 155 OFFCURVE",
"73 40 OFFCURVE",
"214 40 CURVE SMOOTH"
);
},
{
closed = 1;
nodes = (
"115 607 OFFCURVE",
"198 699 OFFCURVE",
"370 699 CURVE SMOOTH",
"420 699 OFFCURVE",
"464 688 OFFCURVE",
"501 667 CURVE SMOOTH",
"574 624 OFFCURVE",
"620 545 OFFCURVE",
"633 444 CURVE",
"92 444 LINE"
);
},
{
closed = 1;
nodes = (
"178 123 OFFCURVE",
"152 134 OFFCURVE",
"134 155 CURVE SMOOTH",
"98 198 OFFCURVE",
"89 272 OFFCURVE",
"89 364 CURVE",
"324 364 LINE",
"324 283 LINE SMOOTH",
"324 191 OFFCURVE",
"288 123 OFFCURVE",
"213 123 CURVE SMOOTH"
);
},
{
closed = 1;
nodes = (
"436 123 OFFCURVE",
"403 177 OFFCURVE",
"403 286 CURVE SMOOTH",
"403 364 LINE",
"638 364 LINE",
"637 305 OFFCURVE",
"632 258 OFFCURVE",
"623 223 CURVE SMOOTH",
"606 152 OFFCURVE",
"570 123 OFFCURVE",
"503 123 CURVE SMOOTH"
);
}
);
vertWidth = 0;
width = 898;
}
);
note = u184B_1848.ini;
},
{
glyphname = u184C;
lastChange = "2020-02-16 15:19:08 +0000";
layers = (
{
layerId = "UUID0";
paths = (
{
closed = 1;
nodes = (
"328 198 OFFCURVE",
"289 321 OFFCURVE",
"289 430 CURVE SMOOTH",
"289 575 OFFCURVE",
"347 644 OFFCURVE",
"439 644 CURVE SMOOTH",
"528 644 OFFCURVE",
"580 573 OFFCURVE",
"592 409 CURVE",
"671 419 LINE",
"667 472 OFFCURVE",
"656 524 OFFCURVE",
"639 575 CURVE",
"604 668 OFFCURVE",
"540 727 OFFCURVE",
"439 727 CURVE SMOOTH",
"395 727 OFFCURVE",
"355 715 OFFCURVE",
"320 692 CURVE SMOOTH",
"251 645 OFFCURVE",
"210 559 OFFCURVE",
"210 444 CURVE",
"116 444 LINE",
"116 711 LINE",
"45 711 LINE",
"45 63 LINE",
"405 63 LINE"
);
},
{
closed = 1;
nodes = (
"221 293 OFFCURVE",
"242 220 OFFCURVE",
"276 146 CURVE",
"116 146 LINE",
"116 364 LINE",
"213 364 LINE"
);
}
);
vertWidth = 0;
width = 716;
}
);
note = u184C;
unicode = 184C;
},
{
glyphname = u184C.fin;
lastChange = "2020-02-16 15:19:08 +0000";
layers = (
{
layerId = "UUID0";
paths = (
{
closed = 1;
nodes = (
"492 -238 OFFCURVE",
"485 -212 OFFCURVE",
"485 -187 CURVE SMOOTH",
"485 -118 OFFCURVE",
"516 -72 OFFCURVE",
"568 -7 CURVE SMOOTH",
"604 38 OFFCURVE",
"636 82 OFFCURVE",
"661 123 CURVE SMOOTH",
"712 206 OFFCURVE",
"740 289 OFFCURVE",
"740 388 CURVE SMOOTH",
"740 455 OFFCURVE",
"729 514 OFFCURVE",
"707 565 CURVE SMOOTH",
"663 668 OFFCURVE",
"577 727 OFFCURVE",
"449 727 CURVE SMOOTH",
"282 727 OFFCURVE",
"176 620 OFFCURVE",
"165 444 CURVE",
"71 444 LINE",
"71 711 LINE",
"0 711 LINE",
"0 63 LINE",
"360 63 LINE",
"283 194 OFFCURVE",
"244 313 OFFCURVE",
"244 419 CURVE SMOOTH",
"244 560 OFFCURVE",
"316 644 OFFCURVE",
"449 644 CURVE SMOOTH",
"588 644 OFFCURVE",
"662 543 OFFCURVE",
"662 388 CURVE SMOOTH",
"662 345 OFFCURVE",
"657 305 OFFCURVE",
"646 270 CURVE SMOOTH",
"625 199 OFFCURVE",
"582 134 OFFCURVE",
"515 50 CURVE SMOOTH",
"494 22 OFFCURVE",
"474 -4 OFFCURVE",
"457 -28 CURVE SMOOTH",
"424 -77 OFFCURVE",
"405 -124 OFFCURVE",
"405 -187 CURVE SMOOTH",
"405 -214 OFFCURVE",
"411 -239 OFFCURVE",
"424 -264 CURVE",
"506 -264 LINE"
);
},
{
closed = 1;
nodes = (
"173 293 OFFCURVE",
"194 221 OFFCURVE",
"230 146 CURVE",
"71 146 LINE",
"71 364 LINE",
"167 364 LINE"
);
}
);
vertWidth = 0;
width = 785;
}
);
note = u184C.fin;
},
{
glyphname = u184C_1823;
lastChange = "2020-02-16 15:19:08 +0000";
layers = (
{
layerId = "UUID0";
paths = (
{
closed = 1;
nodes = (
"712 40 OFFCURVE",
"746 51 OFFCURVE",
"775 73 CURVE SMOOTH",
"834 117 OFFCURVE",
"869 199 OFFCURVE",
"869 303 CURVE SMOOTH",
"869 432 OFFCURVE",
"846 546 OFFCURVE",
"791 629 CURVE SMOOTH",
"738 712 OFFCURVE",
"651 760 OFFCURVE",
"530 760 CURVE SMOOTH",
"469 760 OFFCURVE",
"416 747 OFFCURVE",
"370 721 CURVE SMOOTH",
"278 669 OFFCURVE",
"222 572 OFFCURVE",
"211 444 CURVE",
"116 444 LINE",
"116 711 LINE",
"45 711 LINE",
"45 63 LINE",
"405 63 LINE",
"328 188 OFFCURVE",
"289 302 OFFCURVE",
"289 405 CURVE SMOOTH",
"289 463 OFFCURVE",
"298 511 OFFCURVE",
"317 548 CURVE",
"354 631 OFFCURVE",
"427 677 OFFCURVE",
"530 677 CURVE SMOOTH",
"668 677 OFFCURVE",
"751 599 OFFCURVE",
"779 444 CURVE",
"512 444 LINE",
"488 397 OFFCURVE",
"474 330 OFFCURVE",
"474 275 CURVE SMOOTH",
"474 132 OFFCURVE",
"541 40 OFFCURVE",
"673 40 CURVE SMOOTH"
);
},
{
closed = 1;
nodes = (
"218 293 OFFCURVE",
"238 221 OFFCURVE",
"273 146 CURVE",
"116 146 LINE",
"116 364 LINE",
"211 364 LINE"
);
},
{
closed = 1;
nodes = (
"591 123 OFFCURVE",
"553 174 OFFCURVE",
"553 275 CURVE SMOOTH",
"553 311 OFFCURVE",
"560 341 OFFCURVE",
"569 364 CURVE",
"788 364 LINE",
"789 355 OFFCURVE",
"790 345 OFFCURVE",
"790 334 CURVE SMOOTH",
"790 303 LINE SMOOTH",
"790 266 OFFCURVE",
"786 236 OFFCURVE",
"777 213 CURVE",
"760 158 OFFCURVE",
"723 123 OFFCURVE",
"667 123 CURVE SMOOTH"
);
}
);
vertWidth = 0;
width = 914;
}
);
note = u184C_1823;
},
{
glyphname = u184C_1823.ini;
lastChange = "2020-02-16 15:19:08 +0000";
layers = (
{
layerId = "UUID0";
paths = (
{
closed = 1;
nodes = (
"676 40 OFFCURVE",
"710 51 OFFCURVE",
"739 72 CURVE SMOOTH",
"798 115 OFFCURVE",
"834 195 OFFCURVE",
"834 302 CURVE SMOOTH",
"834 334 LINE SMOOTH",
"834 345 OFFCURVE",
"833 355 OFFCURVE",
"832 364 CURVE",
"1045 364 LINE",
"1045 444 LINE",
"823 444 LINE",
"788 649 OFFCURVE",
"676 760 OFFCURVE",
"495 760 CURVE SMOOTH",
"434 760 OFFCURVE",
"381 747 OFFCURVE",
"335 721 CURVE SMOOTH",
"243 669 OFFCURVE",
"187 572 OFFCURVE",
"176 444 CURVE",
"81 444 LINE",
"81 711 LINE",
"10 711 LINE",
"10 63 LINE",
"370 63 LINE",
"293 188 OFFCURVE",
"254 302 OFFCURVE",
"254 405 CURVE SMOOTH",
"254 463 OFFCURVE",
"263 511 OFFCURVE",
"282 548 CURVE",
"319 631 OFFCURVE",
"392 677 OFFCURVE",
"495 677 CURVE SMOOTH",
"633 677 OFFCURVE",
"716 599 OFFCURVE",
"744 444 CURVE",
"477 444 LINE",
"453 397 OFFCURVE",
"439 330 OFFCURVE",
"439 275 CURVE SMOOTH",
"439 132 OFFCURVE",
"506 40 OFFCURVE",
"639 40 CURVE SMOOTH"
);
},
{
closed = 1;
nodes = (
"183 293 OFFCURVE",
"203 221 OFFCURVE",
"238 146 CURVE",
"81 146 LINE",
"81 364 LINE",
"176 364 LINE"
);
},
{
closed = 1;
nodes = (
"556 123 OFFCURVE",
"518 174 OFFCURVE",
"518 275 CURVE SMOOTH",
"518 311 OFFCURVE",
"525 341 OFFCURVE",
"534 364 CURVE",
"753 364 LINE",
"754 355 OFFCURVE",
"755 344 OFFCURVE",
"755 333 CURVE SMOOTH",
"755 301 LINE SMOOTH",
"755 265 OFFCURVE",
"751 235 OFFCURVE",
"742 212 CURVE",
"725 159 OFFCURVE",
"688 123 OFFCURVE",
"632 123 CURVE SMOOTH"
);
}
);
vertWidth = 0;
width = 1015;
}
);
note = u184C_1823.ini;
},
{
glyphname = u184C_1844;
lastChange = "2020-02-16 15:19:08 +0000";
layers = (
{
layerId = "UUID0";
paths = (
{
closed = 1;
nodes = (
"935 110 OFFCURVE",
"900 119 OFFCURVE",
"851 119 CURVE SMOOTH",
"810 119 LINE SMOOTH",
"719 119 OFFCURVE",
"673 167 OFFCURVE",
"673 263 CURVE SMOOTH",
"673 364 LINE",
"956 364 LINE",
"956 444 LINE",
"670 444 LINE",
"665 496 OFFCURVE",
"654 543 OFFCURVE",
"637 586 CURVE SMOOTH",
"601 671 OFFCURVE",
"538 727 OFFCURVE",
"439 727 CURVE SMOOTH",
"395 727 OFFCURVE",
"355 715 OFFCURVE",
"320 692 CURVE SMOOTH",
"251 645 OFFCURVE",
"210 559 OFFCURVE",
"210 444 CURVE",
"116 444 LINE",
"116 711 LINE",
"45 711 LINE",
"45 63 LINE",
"405 63 LINE",
"328 198 OFFCURVE",
"289 321 OFFCURVE",
"289 430 CURVE SMOOTH",
"289 575 OFFCURVE",
"347 644 OFFCURVE",
"439 644 CURVE SMOOTH",
"542 644 OFFCURVE",
"594 554 OFFCURVE",
"594 374 CURVE SMOOTH",
"594 263 LINE SMOOTH",
"594 110 OFFCURVE",
"671 36 OFFCURVE",
"810 36 CURVE SMOOTH",
"851 36 LINE SMOOTH",
"901 36 OFFCURVE",
"936 27 OFFCURVE",
"956 9 CURVE",
"956 92 LINE"
);
},
{
closed = 1;
nodes = (
"221 293 OFFCURVE",
"242 220 OFFCURVE",
"276 146 CURVE",
"116 146 LINE",
"116 364 LINE",
"213 364 LINE"
);
}
);
vertWidth = 0;
width = 1001;
}
);
note = u184C_1844;
},
{
glyphname = u184C_1844.ini;
lastChange = "2020-02-16 15:19:08 +0000";
layers = (
{
layerId = "UUID0";
paths = (
{
closed = 1;
nodes = (
"900 110 OFFCURVE",
"865 119 OFFCURVE",
"816 119 CURVE SMOOTH",
"775 119 LINE SMOOTH",
"684 119 OFFCURVE",
"638 167 OFFCURVE",
"638 263 CURVE SMOOTH",
"638 364 LINE",
"1073 364 LINE",
"1073 444 LINE",
"635 444 LINE",
"630 496 OFFCURVE",
"619 543 OFFCURVE",
"602 586 CURVE SMOOTH",
"566 671 OFFCURVE",
"503 727 OFFCURVE",
"404 727 CURVE SMOOTH",
"360 727 OFFCURVE",
"320 715 OFFCURVE",
"285 692 CURVE SMOOTH",
"216 645 OFFCURVE",
"175 559 OFFCURVE",
"175 444 CURVE",
"81 444 LINE",
"81 711 LINE",
"10 711 LINE",
"10 63 LINE",
"370 63 LINE",
"293 198 OFFCURVE",
"254 321 OFFCURVE",
"254 430 CURVE SMOOTH",
"254 575 OFFCURVE",
"312 644 OFFCURVE",
"404 644 CURVE SMOOTH",
"507 644 OFFCURVE",
"559 554 OFFCURVE",
"559 374 CURVE SMOOTH",
"559 263 LINE SMOOTH",
"559 110 OFFCURVE",
"636 36 OFFCURVE",
"775 36 CURVE SMOOTH",
"816 36 LINE SMOOTH",
"866 36 OFFCURVE",
"901 27 OFFCURVE",
"921 9 CURVE",
"921 92 LINE"
);
},
{
closed = 1;
nodes = (
"186 293 OFFCURVE",
"207 220 OFFCURVE",
"241 146 CURVE",
"81 146 LINE",
"81 364 LINE",
"178 364 LINE"
);
}
);
vertWidth = 0;
width = 1043;
}
);
note = u184C_1844.ini;
},
{
glyphname = u184C_1845;
lastChange = "2020-02-16 15:19:08 +0000";
layers = (
{
layerId = "UUID0";
paths = (
{
closed = 1;
nodes = (
"995 110 OFFCURVE",
"960 119 OFFCURVE",
"911 119 CURVE SMOOTH",
"882 119 LINE",
"882 364 LINE",
"1168 364 LINE SMOOTH",
"1239 364 OFFCURVE",
"1266 334 OFFCURVE",
"1266 279 CURVE SMOOTH",
"1266 231 OFFCURVE",
"1259 192 OFFCURVE",
"1244 162 CURVE",
"1318 162 LINE",
"1334 197 OFFCURVE",
"1343 236 OFFCURVE",
"1343 279 CURVE SMOOTH",
"1343 389 OFFCURVE",
"1285 444 OFFCURVE",
"1168 444 CURVE SMOOTH",
"803 444 LINE",
"803 119 LINE",
"770 119 LINE SMOOTH",
"705 119 OFFCURVE",
"673 154 OFFCURVE",
"673 223 CURVE SMOOTH",
"673 374 LINE SMOOTH",
"673 470 OFFCURVE",
"655 558 OFFCURVE",
"618 623 CURVE SMOOTH",
"581 688 OFFCURVE",
"522 727 OFFCURVE",
"439 727 CURVE SMOOTH",
"395 727 OFFCURVE",
"355 715 OFFCURVE",
"320 692 CURVE SMOOTH",
"251 645 OFFCURVE",
"210 559 OFFCURVE",
"210 444 CURVE",
"116 444 LINE",
"116 711 LINE",
"45 711 LINE",
"45 63 LINE",
"405 63 LINE",
"328 198 OFFCURVE",
"289 321 OFFCURVE",
"289 430 CURVE SMOOTH",
"289 575 OFFCURVE",
"347 644 OFFCURVE",
"439 644 CURVE SMOOTH",
"542 644 OFFCURVE",
"594 554 OFFCURVE",
"594 374 CURVE SMOOTH",
"594 223 LINE SMOOTH",
"594 98 OFFCURVE",
"653 36 OFFCURVE",
"770 36 CURVE SMOOTH",
"911 36 LINE SMOOTH",
"961 36 OFFCURVE",
"996 27 OFFCURVE",
"1016 9 CURVE",
"1016 92 LINE"
);
},
{
closed = 1;
nodes = (
"221 293 OFFCURVE",
"242 220 OFFCURVE",
"276 146 CURVE",
"116 146 LINE",
"116 364 LINE",
"213 364 LINE"
);
}
);
vertWidth = 0;
width = 1388;
}
);
note = u184C_1845;
},
{
glyphname = u184C_1845.ini;
lastChange = "2020-02-16 15:19:08 +0000";
layers = (
{
layerId = "UUID0";
paths = (
{
closed = 1;
nodes = (
"960 110 OFFCURVE",
"925 119 OFFCURVE",
"876 119 CURVE SMOOTH",
"847 119 LINE",
"847 364 LINE",
"1133 364 LINE",
"1133 444 LINE",
"768 444 LINE",
"768 119 LINE",
"735 119 LINE SMOOTH",
"670 119 OFFCURVE",
"638 154 OFFCURVE",
"638 223 CURVE SMOOTH",
"638 374 LINE SMOOTH",
"638 470 OFFCURVE",
"620 558 OFFCURVE",
"583 623 CURVE SMOOTH",
"546 688 OFFCURVE",
"487 727 OFFCURVE",
"404 727 CURVE SMOOTH",
"360 727 OFFCURVE",
"320 715 OFFCURVE",
"285 692 CURVE SMOOTH",
"216 645 OFFCURVE",
"175 559 OFFCURVE",
"175 444 CURVE",
"81 444 LINE",
"81 711 LINE",
"10 711 LINE",
"10 63 LINE",
"370 63 LINE",
"293 198 OFFCURVE",
"254 321 OFFCURVE",
"254 430 CURVE SMOOTH",
"254 575 OFFCURVE",
"312 644 OFFCURVE",
"404 644 CURVE SMOOTH",
"507 644 OFFCURVE",
"559 554 OFFCURVE",
"559 374 CURVE SMOOTH",
"559 223 LINE SMOOTH",
"559 98 OFFCURVE",
"618 36 OFFCURVE",
"735 36 CURVE SMOOTH",
"876 36 LINE SMOOTH",
"926 36 OFFCURVE",
"961 27 OFFCURVE",
"981 9 CURVE",
"981 92 LINE"
);
},
{
closed = 1;
nodes = (
"186 293 OFFCURVE",
"207 220 OFFCURVE",
"241 146 CURVE",
"81 146 LINE",
"81 364 LINE",
"178 364 LINE"
);
}
);
vertWidth = 0;
width = 1103;
}
);
note = u184C_1845.ini;
},
{
glyphname = u184C_1820.ini;
lastChange = "2020-02-16 15:19:08 +0000";
layers = (
{
layerId = "UUID0";
paths = (
{
closed = 1;
nodes = (
"293 198 OFFCURVE",
"254 321 OFFCURVE",
"254 430 CURVE SMOOTH",
"254 575 OFFCURVE",
"313 644 OFFCURVE",
"406 644 CURVE SMOOTH",
"446 644 OFFCURVE",
"476 632 OFFCURVE",
"497 608 CURVE SMOOTH",
"538 559 OFFCURVE",
"552 472 OFFCURVE",
"560 361 CURVE SMOOTH",
"579 96 LINE",
"645 96 LINE",
"664 364 LINE",
"874 364 LINE",
"874 444 LINE",
"633 444 LINE",
"626 501 OFFCURVE",
"615 550 OFFCURVE",
"598 593 CURVE SMOOTH",
"565 677 OFFCURVE",
"504 727 OFFCURVE",
"404 727 CURVE SMOOTH",
"360 727 OFFCURVE",
"320 715 OFFCURVE",
"285 692 CURVE SMOOTH",
"216 645 OFFCURVE",
"175 559 OFFCURVE",
"175 444 CURVE",
"81 444 LINE",
"81 711 LINE",
"10 711 LINE",
"10 63 LINE",
"370 63 LINE"
);
},
{
closed = 1;
nodes = (
"186 293 OFFCURVE",
"207 220 OFFCURVE",
"241 146 CURVE",
"81 146 LINE",
"81 364 LINE",
"178 364 LINE"
);
}
);
vertWidth = 0;
width = 844;
}
);
note = u184C_1820.ini;
},
{
glyphname = u184C_1820;
lastChange = "2020-02-16 15:19:08 +0000";
layers = (
{
layerId = "UUID0";
paths = (
{
closed = 1;
nodes = (
"948 -238 OFFCURVE",
"941 -212 OFFCURVE",
"941 -187 CURVE SMOOTH",
"941 -162 OFFCURVE",
"943 -144 OFFCURVE",
"948 -132 CURVE",
"957 -101 OFFCURVE",
"977 -71 OFFCURVE",
"1008 -31 CURVE SMOOTH",
"1083 64 OFFCURVE",
"1141 156 OFFCURVE",
"1141 245 CURVE SMOOTH",
"1141 373 OFFCURVE",
"1063 444 OFFCURVE",
"910 444 CURVE SMOOTH",
"668 444 LINE",
"661 501 OFFCURVE",
"650 550 OFFCURVE",
"633 593 CURVE SMOOTH",
"600 677 OFFCURVE",
"539 727 OFFCURVE",
"439 727 CURVE SMOOTH",
"396 727 OFFCURVE",
"356 715 OFFCURVE",
"321 692 CURVE SMOOTH",
"252 645 OFFCURVE",
"210 559 OFFCURVE",
"210 444 CURVE",
"116 444 LINE",
"116 711 LINE",
"45 711 LINE",
"45 63 LINE",
"405 63 LINE",
"328 198 OFFCURVE",
"289 321 OFFCURVE",
"289 430 CURVE SMOOTH",
"289 575 OFFCURVE",
"347 644 OFFCURVE",
"439 644 CURVE SMOOTH",
"480 644 OFFCURVE",
"510 633 OFFCURVE",
"531 610 CURVE SMOOTH",
"574 565 OFFCURVE",
"587 477 OFFCURVE",
"595 364 CURVE SMOOTH",
"614 96 LINE",
"680 96 LINE",
"699 364 LINE",
"909 364 LINE SMOOTH",
"1016 364 OFFCURVE",
"1063 326 OFFCURVE",
"1063 242 CURVE SMOOTH",
"1063 173 OFFCURVE",
"1021 115 OFFCURVE",
"956 28 CURVE SMOOTH",
"903 -44 OFFCURVE",
"861 -108 OFFCURVE",
"861 -187 CURVE SMOOTH",
"861 -218 OFFCURVE",
"867 -243 OFFCURVE",
"880 -264 CURVE",
"962 -264 LINE"
);
},
{
closed = 1;
nodes = (
"221 293 OFFCURVE",
"242 220 OFFCURVE",
"276 146 CURVE",
"116 146 LINE",
"116 364 LINE",
"213 364 LINE"
);
}
);
vertWidth = 0;
width = 1186;
}
);
note = u184C_1820;
},
{
glyphname = u184C_1847;
lastChange = "2020-02-16 15:19:08 +0000";
layers = (
{
layerId = "UUID0";
paths = (
{
closed = 1;
nodes = (
"799 -38 OFFCURVE",
"775 8 OFFCURVE",
"752 59 CURVE",
"831 99 OFFCURVE",
"869 196 OFFCURVE",
"869 303 CURVE SMOOTH",
"869 432 OFFCURVE",
"846 546 OFFCURVE",
"791 629 CURVE SMOOTH",
"738 712 OFFCURVE",
"651 760 OFFCURVE",
"530 760 CURVE SMOOTH",
"469 760 OFFCURVE",
"416 747 OFFCURVE",
"370 721 CURVE SMOOTH",
"278 669 OFFCURVE",
"222 572 OFFCURVE",
"211 444 CURVE",
"116 444 LINE",
"116 711 LINE",
"45 711 LINE",
"45 63 LINE",
"405 63 LINE",
"328 188 OFFCURVE",
"289 302 OFFCURVE",
"289 405 CURVE SMOOTH",
"289 463 OFFCURVE",
"298 511 OFFCURVE",
"317 548 CURVE",
"354 631 OFFCURVE",
"427 677 OFFCURVE",
"530 677 CURVE SMOOTH",
"668 677 OFFCURVE",
"751 599 OFFCURVE",
"779 444 CURVE",
"512 444 LINE",
"488 397 OFFCURVE",
"474 330 OFFCURVE",
"474 275 CURVE SMOOTH",
"474 134 OFFCURVE",
"541 40 OFFCURVE",
"672 40 CURVE",
"695 -9 OFFCURVE",
"721 -64 OFFCURVE",
"752 -121 CURVE",
"823 -81 LINE"
);
},
{
closed = 1;
nodes = (
"218 293 OFFCURVE",
"238 221 OFFCURVE",
"273 146 CURVE",
"116 146 LINE",
"116 364 LINE",
"211 364 LINE"
);
},
{
closed = 1;
nodes = (
"591 123 OFFCURVE",
"553 174 OFFCURVE",
"553 275 CURVE SMOOTH",
"553 311 OFFCURVE",
"560 341 OFFCURVE",
"569 364 CURVE",
"788 364 LINE",
"789 355 OFFCURVE",
"790 345 OFFCURVE",
"790 334 CURVE SMOOTH",
"790 303 LINE SMOOTH",
"790 266 OFFCURVE",
"786 236 OFFCURVE",
"777 213 CURVE",
"760 158 OFFCURVE",
"723 123 OFFCURVE",
"667 123 CURVE SMOOTH"
);
}
);
vertWidth = 0;
width = 914;
}
);
note = u184C_1847;
},
{
glyphname = u184C_1847.ini;
lastChange = "2020-02-16 15:19:08 +0000";
layers = (
{
layerId = "UUID0";
paths = (
{
closed = 1;
nodes = (
"764 -38 OFFCURVE",
"740 8 OFFCURVE",
"717 59 CURVE",
"796 99 OFFCURVE",
"834 196 OFFCURVE",
"834 303 CURVE SMOOTH",
"834 334 LINE SMOOTH",
"834 345 OFFCURVE",
"833 355 OFFCURVE",
"832 364 CURVE",
"1045 364 LINE",
"1045 444 LINE",
"823 444 LINE",
"788 649 OFFCURVE",
"676 760 OFFCURVE",
"495 760 CURVE SMOOTH",
"434 760 OFFCURVE",
"381 747 OFFCURVE",
"335 721 CURVE SMOOTH",
"243 669 OFFCURVE",
"187 572 OFFCURVE",
"176 444 CURVE",
"81 444 LINE",
"81 711 LINE",
"10 711 LINE",
"10 63 LINE",
"370 63 LINE",
"293 188 OFFCURVE",
"254 302 OFFCURVE",
"254 405 CURVE SMOOTH",
"254 463 OFFCURVE",
"263 511 OFFCURVE",
"282 548 CURVE",
"319 631 OFFCURVE",
"392 677 OFFCURVE",
"495 677 CURVE SMOOTH",
"633 677 OFFCURVE",
"716 599 OFFCURVE",
"744 444 CURVE",
"477 444 LINE",
"453 397 OFFCURVE",
"439 330 OFFCURVE",
"439 275 CURVE SMOOTH",
"439 134 OFFCURVE",
"506 40 OFFCURVE",
"637 40 CURVE",
"660 -9 OFFCURVE",
"686 -64 OFFCURVE",
"717 -121 CURVE",
"788 -81 LINE"
);
},
{
closed = 1;
nodes = (
"183 293 OFFCURVE",
"203 221 OFFCURVE",
"238 146 CURVE",
"81 146 LINE",
"81 364 LINE",
"176 364 LINE"
);
},
{
closed = 1;
nodes = (
"556 123 OFFCURVE",
"518 174 OFFCURVE",
"518 275 CURVE SMOOTH",
"518 311 OFFCURVE",
"525 341 OFFCURVE",
"534 364 CURVE",
"753 364 LINE",
"754 355 OFFCURVE",
"755 345 OFFCURVE",
"755 334 CURVE SMOOTH",
"755 303 LINE SMOOTH",
"755 266 OFFCURVE",
"751 236 OFFCURVE",
"742 213 CURVE",
"725 158 OFFCURVE",
"688 123 OFFCURVE",
"632 123 CURVE SMOOTH"
);
}
);
vertWidth = 0;
width = 1015;
}
);
note = u184C_1847.ini;
},
{
glyphname = u184C_1848;
lastChange = "2020-02-16 15:19:08 +0000";
layers = (
{
layerId = "UUID0";
paths = (
{
closed = 1;
nodes = (
"713 40 OFFCURVE",
"746 51 OFFCURVE",
"775 73 CURVE SMOOTH",
"834 117 OFFCURVE",
"869 198 OFFCURVE",
"869 302 CURVE SMOOTH",
"869 379 OFFCURVE",
"860 450 OFFCURVE",
"842 514 CURVE SMOOTH",
"805 642 OFFCURVE",
"727 731 OFFCURVE",
"596 754 CURVE",
"571 819 OFFCURVE",
"538 885 OFFCURVE",
"501 953 CURVE",
"430 913 LINE",
"463 852 OFFCURVE",
"490 800 OFFCURVE",
"507 759 CURVE",
"451 756 OFFCURVE",
"402 742 OFFCURVE",
"359 715 CURVE SMOOTH",
"274 662 OFFCURVE",
"220 565 OFFCURVE",
"211 444 CURVE",
"116 444 LINE",
"116 711 LINE",
"45 711 LINE",
"45 63 LINE",
"405 63 LINE",
"328 188 OFFCURVE",
"289 302 OFFCURVE",
"289 405 CURVE SMOOTH",
"289 463 OFFCURVE",
"298 511 OFFCURVE",
"317 548 CURVE",
"354 631 OFFCURVE",
"427 677 OFFCURVE",
"530 677 CURVE SMOOTH",
"668 677 OFFCURVE",
"751 599 OFFCURVE",
"779 444 CURVE",
"512 444 LINE",
"488 397 OFFCURVE",
"474 330 OFFCURVE",
"474 275 CURVE SMOOTH",
"474 132 OFFCURVE",
"541 40 OFFCURVE",
"674 40 CURVE SMOOTH"
);
},
{
closed = 1;
nodes = (
"218 293 OFFCURVE",
"238 221 OFFCURVE",
"273 146 CURVE",
"116 146 LINE",
"116 364 LINE",
"211 364 LINE"
);
},
{
closed = 1;
nodes = (
"591 123 OFFCURVE",
"553 174 OFFCURVE",
"553 275 CURVE SMOOTH",
"553 311 OFFCURVE",
"560 341 OFFCURVE",
"569 364 CURVE",
"788 364 LINE",
"789 355 OFFCURVE",
"790 345 OFFCURVE",
"790 334 CURVE SMOOTH",
"790 302 LINE SMOOTH",
"790 265 OFFCURVE",
"786 235 OFFCURVE",
"777 212 CURVE",
"760 157 OFFCURVE",
"723 123 OFFCURVE",
"667 123 CURVE SMOOTH"
);
}
);
vertWidth = 0;
width = 914;
}
);
note = u184C_1848;
},
{
glyphname = u184C_1848.ini;
lastChange = "2020-02-16 15:19:08 +0000";
layers = (
{
layerId = "UUID0";
paths = (
{
closed = 1;
nodes = (
"678 40 OFFCURVE",
"711 51 OFFCURVE",
"740 73 CURVE SMOOTH",
"799 117 OFFCURVE",
"834 198 OFFCURVE",
"834 302 CURVE SMOOTH",
"834 334 LINE SMOOTH",
"834 345 OFFCURVE",
"833 355 OFFCURVE",
"832 364 CURVE",
"1045 364 LINE",
"1045 444 LINE",
"823 444 LINE",
"798 608 OFFCURVE",
"712 726 OFFCURVE",
"561 754 CURVE",
"536 819 OFFCURVE",
"503 885 OFFCURVE",
"466 953 CURVE",
"395 913 LINE",
"428 852 OFFCURVE",
"455 800 OFFCURVE",
"472 759 CURVE",
"416 756 OFFCURVE",
"367 742 OFFCURVE",
"324 715 CURVE SMOOTH",
"239 662 OFFCURVE",
"185 565 OFFCURVE",
"176 444 CURVE",
"81 444 LINE",
"81 711 LINE",
"10 711 LINE",
"10 63 LINE",
"370 63 LINE",
"293 188 OFFCURVE",
"254 302 OFFCURVE",
"254 405 CURVE SMOOTH",
"254 463 OFFCURVE",
"263 511 OFFCURVE",
"282 548 CURVE",
"319 631 OFFCURVE",
"392 677 OFFCURVE",
"495 677 CURVE SMOOTH",
"633 677 OFFCURVE",
"716 599 OFFCURVE",
"744 444 CURVE",
"477 444 LINE",
"453 397 OFFCURVE",
"439 331 OFFCURVE",
"439 275 CURVE SMOOTH",
"439 132 OFFCURVE",
"506 40 OFFCURVE",
"639 40 CURVE SMOOTH"
);
},
{
closed = 1;
nodes = (
"183 293 OFFCURVE",
"203 221 OFFCURVE",
"238 146 CURVE",
"81 146 LINE",
"81 364 LINE",
"176 364 LINE"
);
},
{
closed = 1;
nodes = (
"556 123 OFFCURVE",
"518 174 OFFCURVE",
"518 275 CURVE SMOOTH",
"518 311 OFFCURVE",
"525 341 OFFCURVE",
"534 364 CURVE",
"753 364 LINE",
"754 355 OFFCURVE",
"755 344 OFFCURVE",
"755 333 CURVE SMOOTH",
"755 301 LINE SMOOTH",
"755 265 OFFCURVE",
"751 235 OFFCURVE",
"742 212 CURVE",
"725 159 OFFCURVE",
"688 123 OFFCURVE",
"632 123 CURVE SMOOTH"
);
}
);
vertWidth = 0;
width = 1015;
}
);
note = u184C_1848.ini;
},
{
glyphname = u184D;
lastChange = "2020-02-16 15:19:08 +0000";
layers = (
{
layerId = "UUID0";
paths = (
{
closed = 1;
nodes = (
"340 255 OFFCURVE",
"345 284 OFFCURVE",
"354 305 CURVE",
"370 348 OFFCURVE",
"407 364 OFFCURVE",
"480 364 CURVE SMOOTH",
"537 364 LINE",
"556 96 LINE",
"622 96 LINE",
"641 364 LINE",
"851 364 LINE",
"851 444 LINE",
"479 444 LINE SMOOTH",
"395 444 OFFCURVE",
"342 416 OFFCURVE",
"320 361 CURVE",
"316 361 LINE",
"313 445 LINE SMOOTH",
"312 488 OFFCURVE",
"308 524 OFFCURVE",
"299 557 CURVE SMOOTH",
"283 620 OFFCURVE",
"247 653 OFFCURVE",
"174 653 CURVE SMOOTH",
"135 653 OFFCURVE",
"92 643 OFFCURVE",
"45 623 CURVE",
"45 550 LINE",
"82 567 OFFCURVE",
"118 575 OFFCURVE",
"153 575 CURVE SMOOTH",
"214 575 OFFCURVE",
"230 520 OFFCURVE",
"235 437 CURVE SMOOTH",
"261 74 LINE",
"327 74 LINE",
"337 219 LINE SMOOTH"
);
},
{
closed = 1;
nodes = (
"330 -128 OFFCURVE",
"376 -90 OFFCURVE",
"436 -47 CURVE",
"375 22 LINE",
"336 -17 OFFCURVE",
"295 -65 OFFCURVE",
"254 -124 CURVE",
"297 -163 LINE"
);
},
{
closed = 1;
nodes = (
"615 -128 OFFCURVE",
"661 -90 OFFCURVE",
"721 -47 CURVE",
"660 22 LINE",
"621 -17 OFFCURVE",
"580 -65 OFFCURVE",
"539 -124 CURVE",
"582 -163 LINE"
);
}
);
vertWidth = 0;
width = 896;
}
);
note = u184D;
unicode = 184D;
},
{
glyphname = u184D.ini;
lastChange = "2020-02-16 15:19:08 +0000";
layers = (
{
layerId = "UUID0";
paths = (
{
closed = 1;
nodes = (
"305 255 OFFCURVE",
"310 284 OFFCURVE",
"319 305 CURVE",
"335 348 OFFCURVE",
"372 364 OFFCURVE",
"445 364 CURVE SMOOTH",
"502 364 LINE",
"521 96 LINE",
"587 96 LINE",
"606 364 LINE",
"816 364 LINE",
"816 444 LINE",
"444 444 LINE SMOOTH",
"360 444 OFFCURVE",
"307 416 OFFCURVE",
"285 361 CURVE",
"281 361 LINE",
"278 445 LINE SMOOTH",
"277 488 OFFCURVE",
"273 524 OFFCURVE",
"264 557 CURVE SMOOTH",
"248 620 OFFCURVE",
"212 653 OFFCURVE",
"139 653 CURVE SMOOTH",
"100 653 OFFCURVE",
"57 643 OFFCURVE",
"10 623 CURVE",
"10 550 LINE",
"47 567 OFFCURVE",
"83 575 OFFCURVE",
"118 575 CURVE SMOOTH",
"179 575 OFFCURVE",
"195 520 OFFCURVE",
"200 437 CURVE SMOOTH",
"226 74 LINE",
"292 74 LINE",
"302 219 LINE SMOOTH"
);
},
{
closed = 1;
nodes = (
"295 -128 OFFCURVE",
"341 -90 OFFCURVE",
"401 -47 CURVE",
"340 22 LINE",
"301 -17 OFFCURVE",
"260 -65 OFFCURVE",
"219 -124 CURVE",
"262 -163 LINE"
);
},
{
closed = 1;
nodes = (
"580 -128 OFFCURVE",
"626 -90 OFFCURVE",
"686 -47 CURVE",
"625 22 LINE",
"586 -17 OFFCURVE",
"545 -65 OFFCURVE",
"504 -124 CURVE",
"547 -163 LINE"
);
}
);
vertWidth = 0;
width = 786;
}
);
note = u184D.ini;
},
{
glyphname = u184D.med;
lastChange = "2020-02-16 15:19:08 +0000";
layers = (
{
layerId = "UUID0";
paths = (
{
closed = 1;
nodes = (
"388 364 LINE",
"598 364 LINE",
"598 444 LINE",
"0 444 LINE",
"0 364 LINE",
"19 96 LINE",
"85 96 LINE",
"104 364 LINE",
"284 364 LINE",
"303 96 LINE",
"369 96 LINE"
);
},
{
closed = 1;
nodes = (
"78 -128 OFFCURVE",
"124 -90 OFFCURVE",
"184 -47 CURVE",
"123 22 LINE",
"84 -17 OFFCURVE",
"43 -65 OFFCURVE",
"2 -124 CURVE",
"45 -163 LINE"
);
},
{
closed = 1;
nodes = (
"361 -128 OFFCURVE",
"407 -90 OFFCURVE",
"467 -47 CURVE",
"406 22 LINE",
"367 -17 OFFCURVE",
"326 -65 OFFCURVE",
"285 -124 CURVE",
"328 -163 LINE"
);
}
);
vertWidth = 0;
width = 568;
}
);
note = u184D.med;
},
{
glyphname = u183B.ini;
lastChange = "2020-02-16 15:19:08 +0000";
layers = (
{
layerId = "UUID0";
paths = (
{
closed = 1;
nodes = (
"141 181 OFFCURVE",
"101 269 OFFCURVE",
"90 364 CURVE",
"250 364 LINE",
"250 444 LINE",
"90 444 LINE",
"98 576 OFFCURVE",
"153 644 OFFCURVE",
"238 644 CURVE SMOOTH",
"278 644 OFFCURVE",
"309 632 OFFCURVE",
"330 609 CURVE SMOOTH",
"373 561 OFFCURVE",
"386 475 OFFCURVE",
"393 364 CURVE",
"467 364 LINE",
"458 611 OFFCURVE",
"386 727 OFFCURVE",
"238 727 CURVE SMOOTH",
"191 727 OFFCURVE",
"151 714 OFFCURVE",
"117 688 CURVE SMOOTH",
"49 635 OFFCURVE",
"10 536 OFFCURVE",
"10 407 CURVE SMOOTH",
"10 292 OFFCURVE",
"53 170 OFFCURVE",
"139 42 CURVE",
"210 85 LINE"
);
}
);
vertWidth = 0;
width = 393;
}
);
note = u183B.ini;
},
{
glyphname = u183B.fin;
lastChange = "2020-02-16 15:19:08 +0000";
layers = (
{
layerId = "UUID0";
paths = (
{
closed = 1;
nodes = (
"329 -238 OFFCURVE",
"322 -212 OFFCURVE",
"322 -187 CURVE SMOOTH",
"322 -120 OFFCURVE",
"350 -76 OFFCURVE",
"405 -7 CURVE SMOOTH",
"452 52 OFFCURVE",
"491 108 OFFCURVE",
"520 163 CURVE SMOOTH",
"559 234 OFFCURVE",
"577 304 OFFCURVE",
"577 388 CURVE SMOOTH",
"577 455 OFFCURVE",
"566 514 OFFCURVE",
"544 565 CURVE SMOOTH",
"500 668 OFFCURVE",
"414 727 OFFCURVE",
"286 727 CURVE SMOOTH",
"227 727 OFFCURVE",
"175 714 OFFCURVE",
"132 688 CURVE SMOOTH",
"47 635 OFFCURVE",
"0 536 OFFCURVE",
"0 407 CURVE SMOOTH",
"0 292 OFFCURVE",
"43 170 OFFCURVE",
"129 42 CURVE",
"200 85 LINE",
"128 185 OFFCURVE",
"89 271 OFFCURVE",
"81 364 CURVE",
"240 364 LINE",
"240 444 LINE",
"80 444 LINE",
"92 579 OFFCURVE",
"169 644 OFFCURVE",
"286 644 CURVE SMOOTH",
"425 644 OFFCURVE",
"499 543 OFFCURVE",
"499 388 CURVE SMOOTH",
"499 307 OFFCURVE",
"481 245 OFFCURVE",
"440 174 CURVE SMOOTH",
"420 141 OFFCURVE",
"391 98 OFFCURVE",
"352 50 CURVE SMOOTH",
"283 -35 OFFCURVE",
"242 -98 OFFCURVE",
"242 -187 CURVE SMOOTH",
"242 -214 OFFCURVE",
"248 -239 OFFCURVE",
"261 -264 CURVE",
"343 -264 LINE"
);
}
);
vertWidth = 0;
width = 622;
}
);
note = u183B.fin;
},
{
glyphname = u1854.fin;
lastChange = "2020-02-16 15:19:08 +0000";
layers = (
{
layerId = "UUID0";
paths = (
{
closed = 1;
nodes = (
"43 44 OFFCURVE",
"89 77 OFFCURVE",
"137 103 CURVE SMOOTH",
"245 161 LINE SMOOTH",
"320 201 OFFCURVE",
"351 263 OFFCURVE",
"351 364 CURVE",
"560 364 LINE SMOOTH",
"631 364 OFFCURVE",
"658 334 OFFCURVE",
"658 279 CURVE SMOOTH",
"658 231 OFFCURVE",
"651 192 OFFCURVE",
"636 162 CURVE",
"710 162 LINE",
"727 195 OFFCURVE",
"735 234 OFFCURVE",
"735 279 CURVE SMOOTH",
"735 389 OFFCURVE",
"677 444 OFFCURVE",
"560 444 CURVE SMOOTH",
"0 444 LINE",
"0 364 LINE",
"274 364 LINE",
"274 293 OFFCURVE",
"255 254 OFFCURVE",
"196 222 CURVE SMOOTH",
"114 178 LINE SMOOTH",
"61 149 OFFCURVE",
"23 123 OFFCURVE",
"0 100 CURVE",
"0 5 LINE"
);
}
);
vertWidth = 0;
width = 780;
}
);
note = u1854.fin;
},
{
glyphname = u185C;
lastChange = "2020-02-16 15:19:08 +0000";
layers = (
{
layerId = "UUID0";
paths = (
{
closed = 1;
nodes = (
"223 -124 OFFCURVE",
"274 -118 OFFCURVE",
"359 -118 CURVE SMOOTH",
"480 -118 LINE",
"480 -52 LINE",
"458 13 OFFCURVE",
"447 81 OFFCURVE",
"447 151 CURVE SMOOTH",
"447 222 OFFCURVE",
"457 293 OFFCURVE",
"477 364 CURVE",
"682 364 LINE",
"682 444 LINE",
"63 444 LINE",
"45 364 LINE",
"403 364 LINE",
"386 303 OFFCURVE",
"375 238 OFFCURVE",
"374 170 CURVE",
"337 170 LINE SMOOTH",
"240 170 OFFCURVE",
"161 167 OFFCURVE",
"102 128 CURVE",
"102 43 LINE",
"167 84 OFFCURVE",
"236 90 OFFCURVE",
"337 90 CURVE SMOOTH",
"376 90 LINE",
"379 49 OFFCURVE",
"386 6 OFFCURVE",
"395 -38 CURVE",
"359 -38 LINE SMOOTH",
"280 -38 OFFCURVE",
"219 -40 OFFCURVE",
"168 -80 CURVE",
"168 -164 LINE"
);
}
);
vertWidth = 0;
width = 727;
}
);
note = u185C;
unicode = 185C;
},
{
glyphname = u185C.med;
lastChange = "2020-02-16 15:19:08 +0000";
layers = (
{
layerId = "UUID0";
paths = (
{
closed = 1;
nodes = (
"117 -125 OFFCURVE",
"172 -118 OFFCURVE",
"257 -118 CURVE SMOOTH",
"378 -118 LINE",
"378 -52 LINE",
"356 12 OFFCURVE",
"345 80 OFFCURVE",
"345 151 CURVE SMOOTH",
"345 223 OFFCURVE",
"355 294 OFFCURVE",
"375 364 CURVE",
"580 364 LINE",
"580 444 LINE",
"0 444 LINE",
"0 364 LINE",
"301 364 LINE",
"284 303 OFFCURVE",
"273 238 OFFCURVE",
"272 170 CURVE",
"235 170 LINE SMOOTH",
"136 170 OFFCURVE",
"59 167 OFFCURVE",
"0 128 CURVE",
"0 43 LINE",
"65 84 OFFCURVE",
"134 90 OFFCURVE",
"235 90 CURVE SMOOTH",
"274 90 LINE",
"277 49 OFFCURVE",
"284 6 OFFCURVE",
"293 -38 CURVE",
"257 -38 LINE SMOOTH",
"177 -38 OFFCURVE",
"111 -43 OFFCURVE",
"66 -80 CURVE",
"66 -164 LINE"
);
}
);
vertWidth = 0;
width = 550;
}
);
note = u185C.med;
},
{
glyphname = u185C.fin;
lastChange = "2020-02-16 15:19:08 +0000";
layers = (
{
layerId = "UUID0";
paths = (
{
closed = 1;
nodes = (
"117 -125 OFFCURVE",
"172 -118 OFFCURVE",
"257 -118 CURVE SMOOTH",
"378 -118 LINE",
"378 -52 LINE",
"356 12 OFFCURVE",
"345 80 OFFCURVE",
"345 151 CURVE SMOOTH",
"345 223 OFFCURVE",
"355 294 OFFCURVE",
"375 364 CURVE",
"580 364 LINE SMOOTH",
"651 364 OFFCURVE",
"678 334 OFFCURVE",
"678 279 CURVE SMOOTH",
"678 231 OFFCURVE",
"671 192 OFFCURVE",
"656 162 CURVE",
"730 162 LINE",
"747 195 OFFCURVE",
"755 234 OFFCURVE",
"755 279 CURVE SMOOTH",
"755 389 OFFCURVE",
"697 444 OFFCURVE",
"580 444 CURVE SMOOTH",
"0 444 LINE",
"0 364 LINE",
"301 364 LINE",
"284 303 OFFCURVE",
"273 238 OFFCURVE",
"272 170 CURVE",
"235 170 LINE SMOOTH",
"136 170 OFFCURVE",
"59 167 OFFCURVE",
"0 128 CURVE",
"0 43 LINE",
"65 84 OFFCURVE",
"134 90 OFFCURVE",
"235 90 CURVE SMOOTH",
"274 90 LINE",
"277 49 OFFCURVE",
"284 6 OFFCURVE",
"293 -38 CURVE",
"257 -38 LINE SMOOTH",
"177 -38 OFFCURVE",
"111 -43 OFFCURVE",
"66 -80 CURVE",
"66 -164 LINE"
);
}
);
vertWidth = 0;
width = 800;
}
);
note = u185C.fin;
},
